<?xml version="1.0" encoding="UTF-8"?>
<svg width="98px" height="128px" viewBox="0 0 98 128" version="1.1" xmlns="http://www.w3.org/2000/svg" xmlns:xlink="http://www.w3.org/1999/xlink">
    <!-- Generator: Sketch 49.3 (51167) - http://www.bohemiancoding.com/sketch -->
    <title>1</title>
    <desc>Created with Sketch.</desc>
    <defs></defs>
    <g id="Page-3" stroke="none" stroke-width="1" fill="none" fill-rule="evenodd">
        <g id="bs_microsite_IA17_1215px" transform="translate(-55.000000, -92.000000)" fill="#006DFF">
            <g id="1" transform="translate(55.000000, 92.000000)">
                <polygon id="Fill-1277" points="60.048 127.017 67.568 127.017 67.568 0.5 60.048 0.5"></polygon>
                <polygon id="Fill-1278" points="50.176 127.017 57.696 127.017 57.696 11.683 50.176 11.683"></polygon>
                <polygon id="Fill-1279" points="40.304 127.017 47.824 127.017 47.824 22.865 40.304 22.865"></polygon>
                <polygon id="Fill-1280" points="20.559 127.017 28.079 127.017 28.079 112.347 20.559 112.347"></polygon>
                <polygon id="Fill-1281" points="89.665 127.017 97.185 127.017 97.185 112.347 89.665 112.347"></polygon>
                <polygon id="Fill-1282" points="10.687 127.017 18.207 127.017 18.207 112.347 10.687 112.347"></polygon>
                <polygon id="Fill-1283" points="79.793 127.017 87.313 127.017 87.313 112.347 79.793 112.347"></polygon>
                <polygon id="Fill-1284" points="0.815 127.017 8.335 127.017 8.335 112.347 0.815 112.347"></polygon>
                <polygon id="Fill-1285" points="69.92 127.017 77.44 127.017 77.44 112.347 69.92 112.347"></polygon>
                <polygon id="Fill-1286" points="30.431 127.017 37.951 127.017 37.951 34.047 30.431 34.047"></polygon>
            </g>
        </g>
    </g>
</svg>