<?xml version="1.0" encoding="UTF-8"?>
<svg width="90px" height="128px" viewBox="0 0 90 128" version="1.1" xmlns="http://www.w3.org/2000/svg" xmlns:xlink="http://www.w3.org/1999/xlink">
    <!-- Generator: Sketch 49.3 (51167) - http://www.bohemiancoding.com/sketch -->
    <title>2</title>
    <desc>Created with Sketch.</desc>
    <defs></defs>
    <g id="Page-3" stroke="none" stroke-width="1" fill="none" fill-rule="evenodd">
        <g id="bs_microsite_IA17_1215px" transform="translate(-289.000000, -92.000000)">
            <g id="2" transform="translate(289.000000, 92.000000)">
                <g id="Group-1315" transform="translate(0.000000, 0.500000)">
                    <g id="Group-1290" transform="translate(0.000000, 112.000000)">
                        <path d="M7.7429,14.1298 C9.6799,14.1298 11.3309,13.4518 12.6909,12.0918 C14.0469,10.7368 14.7289,9.0858 14.7289,7.1438 C14.7289,5.3978 13.9509,3.7508 12.3999,2.1958 C10.8449,0.8408 9.2939,0.1588 7.7429,0.1588 C5.8009,0.1588 4.1499,0.9358 2.7949,2.4868 C1.4349,4.0428 0.7569,5.5928 0.7569,7.1438 C0.7569,9.0858 1.5299,10.7368 3.0859,12.0918 C4.6369,13.4518 6.1879,14.1298 7.7429,14.1298" id="Fill-1287" fill="#006DFF"></path>
                        <path d="M7.7429,14.1298 C9.6799,14.1298 11.3309,13.4518 12.6909,12.0918 C14.0469,10.7368 14.7289,9.0858 14.7289,7.1438 C14.7289,5.3978 13.9509,3.7508 12.3999,2.1958 C10.8449,0.8408 9.2939,0.1588 7.7429,0.1588 C5.8009,0.1588 4.1499,0.9358 2.7949,2.4868 C1.4349,4.0428 0.7569,5.5928 0.7569,7.1438 C0.7569,9.0858 1.5299,10.7368 3.0859,12.0918 C4.6369,13.4518 6.1879,14.1298 7.7429,14.1298" id="Stroke-1289" stroke="#006DFF" stroke-width="0.774"></path>
                    </g>
                    <path d="M82.2572,126.1298 C84.1942,126.1298 85.8452,125.4518 87.2052,124.0918 C88.5612,122.7368 89.2432,121.0858 89.2432,119.1438 C89.2432,117.3978 88.4652,115.7508 86.9142,114.1958 C85.3592,112.8408 83.8082,112.1588 82.2572,112.1588 C80.3152,112.1588 78.6642,112.9358 77.3092,114.4868 C75.9492,116.0428 75.2712,117.5928 75.2712,119.1438 C75.2712,121.0858 76.0442,122.7368 77.6002,124.0918 C79.1512,125.4518 80.7022,126.1298 82.2572,126.1298" id="Fill-1291" fill="#006DFF"></path>
                    <path d="M82.2572,126.1298 C84.1942,126.1298 85.8452,125.4518 87.2052,124.0918 C88.5612,122.7368 89.2432,121.0858 89.2432,119.1438 C89.2432,117.3978 88.4652,115.7508 86.9142,114.1958 C85.3592,112.8408 83.8082,112.1588 82.2572,112.1588 C80.3152,112.1588 78.6642,112.9358 77.3092,114.4868 C75.9492,116.0428 75.2712,117.5928 75.2712,119.1438 C75.2712,121.0858 76.0442,122.7368 77.6002,124.0918 C79.1512,125.4518 80.7022,126.1298 82.2572,126.1298 Z" id="Stroke-1293" stroke="#006DFF" stroke-width="0.774"></path>
                    <path d="M82.2572,51.6155 C84.1942,51.6155 85.8452,50.9375 87.2052,49.5785 C88.5612,48.2225 89.2432,46.5715 89.2432,44.6295 C89.2432,42.8835 88.4652,41.2365 86.9142,39.6815 C85.3592,38.3265 83.8082,37.6445 82.2572,37.6445 C80.3152,37.6445 78.6642,38.4215 77.3092,39.9725 C75.9492,41.5285 75.2712,43.0785 75.2712,44.6295 C75.2712,46.5715 76.0442,48.2225 77.6002,49.5785 C79.1512,50.9375 80.7022,51.6155 82.2572,51.6155" id="Fill-1295" fill="#006DFF"></path>
                    <path d="M82.2572,51.6155 C84.1942,51.6155 85.8452,50.9375 87.2052,49.5785 C88.5612,48.2225 89.2432,46.5715 89.2432,44.6295 C89.2432,42.8835 88.4652,41.2365 86.9142,39.6815 C85.3592,38.3265 83.8082,37.6445 82.2572,37.6445 C80.3152,37.6445 78.6642,38.4215 77.3092,39.9725 C75.9492,41.5285 75.2712,43.0785 75.2712,44.6295 C75.2712,46.5715 76.0442,48.2225 77.6002,49.5785 C79.1512,50.9375 80.7022,51.6155 82.2572,51.6155 Z" id="Stroke-1297" stroke="#006DFF" stroke-width="0.774"></path>
                    <path d="M7.7429,32.9869 C9.6799,32.9869 11.3309,32.3089 12.6909,30.9499 C14.0469,29.5939 14.7289,27.9429 14.7289,26.0009 C14.7289,24.2549 13.9509,22.6089 12.3999,21.0529 C10.8449,19.6979 9.2939,19.0159 7.7429,19.0159 C5.8009,19.0159 4.1499,19.7929 2.7949,21.3439 C1.4349,22.8999 0.7569,24.4499 0.7569,26.0009 C0.7569,27.9429 1.5299,29.5939 3.0859,30.9499 C4.6369,32.3089 6.1879,32.9869 7.7429,32.9869" id="Fill-1299" fill="#006DFF"></path>
                    <path d="M7.7429,32.9869 C9.6799,32.9869 11.3309,32.3089 12.6909,30.9499 C14.0469,29.5939 14.7289,27.9429 14.7289,26.0009 C14.7289,24.2549 13.9509,22.6089 12.3999,21.0529 C10.8449,19.6979 9.2939,19.0159 7.7429,19.0159 C5.8009,19.0159 4.1499,19.7929 2.7949,21.3439 C1.4349,22.8999 0.7569,24.4499 0.7569,26.0009 C0.7569,27.9429 1.5299,29.5939 3.0859,30.9499 C4.6369,32.3089 6.1879,32.9869 7.7429,32.9869 Z" id="Stroke-1301" stroke="#006DFF" stroke-width="0.774"></path>
                    <path d="M82.2572,32.9869 C84.1942,32.9869 85.8452,32.3089 87.2052,30.9499 C88.5612,29.5939 89.2432,27.9429 89.2432,26.0009 C89.2432,24.2549 88.4652,22.6089 86.9142,21.0529 C85.3592,19.6979 83.8082,19.0159 82.2572,19.0159 C80.3152,19.0159 78.6642,19.7929 77.3092,21.3439 C75.9492,22.8999 75.2712,24.4499 75.2712,26.0009 C75.2712,27.9429 76.0442,29.5939 77.6002,30.9499 C79.1512,32.3089 80.7022,32.9869 82.2572,32.9869" id="Fill-1303" fill="#006DFF"></path>
                    <path d="M82.2572,32.9869 C84.1942,32.9869 85.8452,32.3089 87.2052,30.9499 C88.5612,29.5939 89.2432,27.9429 89.2432,26.0009 C89.2432,24.2549 88.4652,22.6089 86.9142,21.0529 C85.3592,19.6979 83.8082,19.0159 82.2572,19.0159 C80.3152,19.0159 78.6642,19.7929 77.3092,21.3439 C75.9492,22.8999 75.2712,24.4499 75.2712,26.0009 C75.2712,27.9429 76.0442,29.5939 77.6002,30.9499 C79.1512,32.3089 80.7022,32.9869 82.2572,32.9869 Z" id="Stroke-1305" stroke="#006DFF" stroke-width="0.774"></path>
                    <path d="M26.3715,14.3583 C28.3085,14.3583 29.9595,13.6803 31.3195,12.3203 C32.6745,10.9653 33.3575,9.3143 33.3575,7.3723 C33.3575,5.6263 32.5795,3.9793 31.0285,2.4243 C29.4735,1.0693 27.9225,0.3873 26.3715,0.3873 C24.4295,0.3873 22.7785,1.1643 21.4235,2.7153 C20.0635,4.2713 19.3855,5.8213 19.3855,7.3723 C19.3855,9.3143 20.1585,10.9653 21.7145,12.3203 C23.2655,13.6803 24.8165,14.3583 26.3715,14.3583" id="Fill-1307" fill="#006DFF"></path>
                    <path d="M26.3715,14.3583 C28.3085,14.3583 29.9595,13.6803 31.3195,12.3203 C32.6745,10.9653 33.3575,9.3143 33.3575,7.3723 C33.3575,5.6263 32.5795,3.9793 31.0285,2.4243 C29.4735,1.0693 27.9225,0.3873 26.3715,0.3873 C24.4295,0.3873 22.7785,1.1643 21.4235,2.7153 C20.0635,4.2713 19.3855,5.8213 19.3855,7.3723 C19.3855,9.3143 20.1585,10.9653 21.7145,12.3203 C23.2655,13.6803 24.8165,14.3583 26.3715,14.3583 Z" id="Stroke-1309" stroke="#006DFF" stroke-width="0.774"></path>
                    <path d="M63.6286,14.3583 C65.5656,14.3583 67.2166,13.6803 68.5766,12.3203 C69.9326,10.9653 70.6146,9.3143 70.6146,7.3723 C70.6146,5.6263 69.8366,3.9793 68.2856,2.4243 C66.7306,1.0693 65.1796,0.3873 63.6286,0.3873 C61.6866,0.3873 60.0356,1.1643 58.6806,2.7153 C57.3206,4.2713 56.6426,5.8213 56.6426,7.3723 C56.6426,9.3143 57.4156,10.9653 58.9716,12.3203 C60.5226,13.6803 62.0736,14.3583 63.6286,14.3583" id="Fill-1311" fill="#006DFF"></path>
                    <path d="M63.6286,14.3583 C65.5656,14.3583 67.2166,13.6803 68.5766,12.3203 C69.9326,10.9653 70.6146,9.3143 70.6146,7.3723 C70.6146,5.6263 69.8366,3.9793 68.2856,2.4243 C66.7306,1.0693 65.1796,0.3873 63.6286,0.3873 C61.6866,0.3873 60.0356,1.1643 58.6806,2.7153 C57.3206,4.2713 56.6426,5.8213 56.6426,7.3723 C56.6426,9.3143 57.4156,10.9653 58.9716,12.3203 C60.5226,13.6803 62.0736,14.3583 63.6286,14.3583 Z" id="Stroke-1313" stroke="#006DFF" stroke-width="0.774"></path>
                </g>
                <polyline id="Stroke-1316" stroke="#006DFF" stroke-width="2.3" points="7.6008 26.5012 26.2298 7.8722 63.6288 7.8722 82.2568 26.5012 82.2568 45.1302 7.7428 119.6442 82.2568 119.6442"></polyline>
            </g>
        </g>
    </g>
</svg>