<?xml version="1.0" encoding="UTF-8"?>
<svg width="109px" height="127px" viewBox="0 0 109 127" version="1.1" xmlns="http://www.w3.org/2000/svg" xmlns:xlink="http://www.w3.org/1999/xlink">
    <!-- Generator: Sketch 49.3 (51167) - http://www.bohemiancoding.com/sketch -->
    <title>3</title>
    <desc>Created with Sketch.</desc>
    <defs></defs>
    <g id="Page-3" stroke="none" stroke-width="1" fill="none" fill-rule="evenodd">
        <g id="bs_microsite_IA17_1215px" transform="translate(-509.000000, -92.000000)" fill="#006DFF">
            <g id="3" transform="translate(509.000000, 92.500000)">
                <path d="M33.6912,6.0248 C35.3552,6.0248 36.7032,4.6778 36.7032,3.0128 C36.7032,1.3498 35.3552,-0.0002 33.6912,-0.0002 C32.0272,-0.0002 30.6782,1.3498 30.6782,3.0128 C30.6782,4.6778 32.0272,6.0248 33.6912,6.0248" id="Fill-1317"></path>
                <path d="M39.7159,6.0248 C41.3799,6.0248 42.7279,4.6778 42.7279,3.0128 C42.7279,1.3498 41.3799,-0.0002 39.7159,-0.0002 C38.0519,-0.0002 36.7029,1.3498 36.7029,3.0128 C36.7029,4.6778 38.0519,6.0248 39.7159,6.0248" id="Fill-1319"></path>
                <path d="M45.7405,6.0248 C47.4045,6.0248 48.7525,4.6778 48.7525,3.0128 C48.7525,1.3498 47.4045,-0.0002 45.7405,-0.0002 C44.0765,-0.0002 42.7275,1.3498 42.7275,3.0128 C42.7275,4.6778 44.0765,6.0248 45.7405,6.0248" id="Fill-1321"></path>
                <path d="M51.7651,6.0248 C53.4291,6.0248 54.7771,4.6778 54.7771,3.0128 C54.7771,1.3498 53.4291,-0.0002 51.7651,-0.0002 C50.1011,-0.0002 48.7521,1.3498 48.7521,3.0128 C48.7521,4.6778 50.1011,6.0248 51.7651,6.0248" id="Fill-1323"></path>
                <path d="M57.7896,6.0248 C59.4536,6.0248 60.8026,4.6778 60.8026,3.0128 C60.8026,1.3498 59.4536,-0.0002 57.7896,-0.0002 C56.1256,-0.0002 54.7776,1.3498 54.7776,3.0128 C54.7776,4.6778 56.1256,6.0248 57.7896,6.0248" id="Fill-1325"></path>
                <path d="M63.8141,6.0248 C65.4781,6.0248 66.8271,4.6778 66.8271,3.0128 C66.8271,1.3498 65.4781,-0.0002 63.8141,-0.0002 C62.1501,-0.0002 60.8021,1.3498 60.8021,3.0128 C60.8021,4.6778 62.1501,6.0248 63.8141,6.0248" id="Fill-1327"></path>
                <path d="M69.8388,6.0248 C71.5028,6.0248 72.8518,4.6778 72.8518,3.0128 C72.8518,1.3498 71.5028,-0.0002 69.8388,-0.0002 C68.1748,-0.0002 66.8268,1.3498 66.8268,3.0128 C66.8268,4.6778 68.1748,6.0248 69.8388,6.0248" id="Fill-1329"></path>
                <path d="M75.8634,6.0248 C77.5274,6.0248 78.8754,4.6778 78.8754,3.0128 C78.8754,1.3498 77.5274,-0.0002 75.8634,-0.0002 C74.1994,-0.0002 72.8514,1.3498 72.8514,3.0128 C72.8514,4.6778 74.1994,6.0248 75.8634,6.0248" id="Fill-1331"></path>
                <path d="M21.642,12.0494 C23.306,12.0494 24.654,10.7024 24.654,9.0374 C24.654,7.3744 23.306,6.0244 21.642,6.0244 C19.978,6.0244 18.63,7.3744 18.63,9.0374 C18.63,10.7024 19.978,12.0494 21.642,12.0494" id="Fill-1333"></path>
                <path d="M27.6666,12.0494 C29.3306,12.0494 30.6786,10.7024 30.6786,9.0374 C30.6786,7.3744 29.3306,6.0244 27.6666,6.0244 C26.0026,6.0244 24.6536,7.3744 24.6536,9.0374 C24.6536,10.7024 26.0026,12.0494 27.6666,12.0494" id="Fill-1335"></path>
                <path d="M33.6912,12.0494 C35.3552,12.0494 36.7032,10.7024 36.7032,9.0374 C36.7032,7.3744 35.3552,6.0244 33.6912,6.0244 C32.0272,6.0244 30.6782,7.3744 30.6782,9.0374 C30.6782,10.7024 32.0272,12.0494 33.6912,12.0494" id="Fill-1337"></path>
                <path d="M39.7159,12.0494 C41.3799,12.0494 42.7279,10.7024 42.7279,9.0374 C42.7279,7.3744 41.3799,6.0244 39.7159,6.0244 C38.0519,6.0244 36.7029,7.3744 36.7029,9.0374 C36.7029,10.7024 38.0519,12.0494 39.7159,12.0494" id="Fill-1339"></path>
                <path d="M45.7405,12.0494 C47.4045,12.0494 48.7525,10.7024 48.7525,9.0374 C48.7525,7.3744 47.4045,6.0244 45.7405,6.0244 C44.0765,6.0244 42.7275,7.3744 42.7275,9.0374 C42.7275,10.7024 44.0765,12.0494 45.7405,12.0494" id="Fill-1341"></path>
                <path d="M51.7651,12.0494 C53.4291,12.0494 54.7771,10.7024 54.7771,9.0374 C54.7771,7.3744 53.4291,6.0244 51.7651,6.0244 C50.1011,6.0244 48.7521,7.3744 48.7521,9.0374 C48.7521,10.7024 50.1011,12.0494 51.7651,12.0494" id="Fill-1343"></path>
                <path d="M57.7896,12.0494 C59.4536,12.0494 60.8026,10.7024 60.8026,9.0374 C60.8026,7.3744 59.4536,6.0244 57.7896,6.0244 C56.1256,6.0244 54.7776,7.3744 54.7776,9.0374 C54.7776,10.7024 56.1256,12.0494 57.7896,12.0494" id="Fill-1345"></path>
                <path d="M63.8141,12.0494 C65.4781,12.0494 66.8271,10.7024 66.8271,9.0374 C66.8271,7.3744 65.4781,6.0244 63.8141,6.0244 C62.1501,6.0244 60.8021,7.3744 60.8021,9.0374 C60.8021,10.7024 62.1501,12.0494 63.8141,12.0494" id="Fill-1347"></path>
                <path d="M69.8388,12.0494 C71.5028,12.0494 72.8518,10.7024 72.8518,9.0374 C72.8518,7.3744 71.5028,6.0244 69.8388,6.0244 C68.1748,6.0244 66.8268,7.3744 66.8268,9.0374 C66.8268,10.7024 68.1748,12.0494 69.8388,12.0494" id="Fill-1349"></path>
                <path d="M75.8634,12.0494 C77.5274,12.0494 78.8754,10.7024 78.8754,9.0374 C78.8754,7.3744 77.5274,6.0244 75.8634,6.0244 C74.1994,6.0244 72.8514,7.3744 72.8514,9.0374 C72.8514,10.7024 74.1994,12.0494 75.8634,12.0494" id="Fill-1351"></path>
                <path d="M81.8881,12.0494 C83.5521,12.0494 84.9001,10.7024 84.9001,9.0374 C84.9001,7.3744 83.5521,6.0244 81.8881,6.0244 C80.2241,6.0244 78.8751,7.3744 78.8751,9.0374 C78.8751,10.7024 80.2241,12.0494 81.8881,12.0494" id="Fill-1353"></path>
                <path d="M87.9126,12.0494 C89.5766,12.0494 90.9246,10.7024 90.9246,9.0374 C90.9246,7.3744 89.5766,6.0244 87.9126,6.0244 C86.2486,6.0244 84.8996,7.3744 84.8996,9.0374 C84.8996,10.7024 86.2486,12.0494 87.9126,12.0494" id="Fill-1355"></path>
                <path d="M15.6174,18.074 C17.2814,18.074 18.6304,16.727 18.6304,15.062 C18.6304,13.399 17.2814,12.049 15.6174,12.049 C13.9534,12.049 12.6054,13.399 12.6054,15.062 C12.6054,16.727 13.9534,18.074 15.6174,18.074" id="Fill-1357"></path>
                <path d="M21.642,18.074 C23.306,18.074 24.654,16.727 24.654,15.062 C24.654,13.399 23.306,12.049 21.642,12.049 C19.978,12.049 18.63,13.399 18.63,15.062 C18.63,16.727 19.978,18.074 21.642,18.074" id="Fill-1359"></path>
                <path d="M27.6666,18.074 C29.3306,18.074 30.6786,16.727 30.6786,15.062 C30.6786,13.399 29.3306,12.049 27.6666,12.049 C26.0026,12.049 24.6536,13.399 24.6536,15.062 C24.6536,16.727 26.0026,18.074 27.6666,18.074" id="Fill-1361"></path>
                <path d="M33.6912,18.074 C35.3552,18.074 36.7032,16.727 36.7032,15.062 C36.7032,13.399 35.3552,12.049 33.6912,12.049 C32.0272,12.049 30.6782,13.399 30.6782,15.062 C30.6782,16.727 32.0272,18.074 33.6912,18.074" id="Fill-1363"></path>
                <path d="M39.7159,18.074 C41.3799,18.074 42.7279,16.727 42.7279,15.062 C42.7279,13.399 41.3799,12.049 39.7159,12.049 C38.0519,12.049 36.7029,13.399 36.7029,15.062 C36.7029,16.727 38.0519,18.074 39.7159,18.074" id="Fill-1365"></path>
                <path d="M45.7405,18.074 C47.4045,18.074 48.7525,16.727 48.7525,15.062 C48.7525,13.399 47.4045,12.049 45.7405,12.049 C44.0765,12.049 42.7275,13.399 42.7275,15.062 C42.7275,16.727 44.0765,18.074 45.7405,18.074" id="Fill-1367"></path>
                <path d="M51.7651,18.074 C53.4291,18.074 54.7771,16.727 54.7771,15.062 C54.7771,13.399 53.4291,12.049 51.7651,12.049 C50.1011,12.049 48.7521,13.399 48.7521,15.062 C48.7521,16.727 50.1011,18.074 51.7651,18.074" id="Fill-1369"></path>
                <path d="M57.7896,18.074 C59.4536,18.074 60.8026,16.727 60.8026,15.062 C60.8026,13.399 59.4536,12.049 57.7896,12.049 C56.1256,12.049 54.7776,13.399 54.7776,15.062 C54.7776,16.727 56.1256,18.074 57.7896,18.074" id="Fill-1371"></path>
                <path d="M63.8141,18.074 C65.4781,18.074 66.8271,16.727 66.8271,15.062 C66.8271,13.399 65.4781,12.049 63.8141,12.049 C62.1501,12.049 60.8021,13.399 60.8021,15.062 C60.8021,16.727 62.1501,18.074 63.8141,18.074" id="Fill-1373"></path>
                <path d="M69.8388,18.074 C71.5028,18.074 72.8518,16.727 72.8518,15.062 C72.8518,13.399 71.5028,12.049 69.8388,12.049 C68.1748,12.049 66.8268,13.399 66.8268,15.062 C66.8268,16.727 68.1748,18.074 69.8388,18.074" id="Fill-1375"></path>
                <path d="M75.8634,18.074 C77.5274,18.074 78.8754,16.727 78.8754,15.062 C78.8754,13.399 77.5274,12.049 75.8634,12.049 C74.1994,12.049 72.8514,13.399 72.8514,15.062 C72.8514,16.727 74.1994,18.074 75.8634,18.074" id="Fill-1377"></path>
                <path d="M81.8881,18.074 C83.5521,18.074 84.9001,16.727 84.9001,15.062 C84.9001,13.399 83.5521,12.049 81.8881,12.049 C80.2241,12.049 78.8751,13.399 78.8751,15.062 C78.8751,16.727 80.2241,18.074 81.8881,18.074" id="Fill-1379"></path>
                <path d="M87.9126,18.074 C89.5766,18.074 90.9246,16.727 90.9246,15.062 C90.9246,13.399 89.5766,12.049 87.9126,12.049 C86.2486,12.049 84.8996,13.399 84.8996,15.062 C84.8996,16.727 86.2486,18.074 87.9126,18.074" id="Fill-1381"></path>
                <path d="M93.9372,18.074 C95.6012,18.074 96.9502,16.727 96.9502,15.062 C96.9502,13.399 95.6012,12.049 93.9372,12.049 C92.2732,12.049 90.9242,13.399 90.9242,15.062 C90.9242,16.727 92.2732,18.074 93.9372,18.074" id="Fill-1383"></path>
                <path d="M9.5927,24.0985 C11.2567,24.0985 12.6057,22.7515 12.6057,21.0865 C12.6057,19.4235 11.2567,18.0735 9.5927,18.0735 C7.9287,18.0735 6.5807,19.4235 6.5807,21.0865 C6.5807,22.7515 7.9287,24.0985 9.5927,24.0985" id="Fill-1385"></path>
                <path d="M15.6174,24.0985 C17.2814,24.0985 18.6304,22.7515 18.6304,21.0865 C18.6304,19.4235 17.2814,18.0735 15.6174,18.0735 C13.9534,18.0735 12.6054,19.4235 12.6054,21.0865 C12.6054,22.7515 13.9534,24.0985 15.6174,24.0985" id="Fill-1387"></path>
                <path d="M21.642,24.0985 C23.306,24.0985 24.654,22.7515 24.654,21.0865 C24.654,19.4235 23.306,18.0735 21.642,18.0735 C19.978,18.0735 18.63,19.4235 18.63,21.0865 C18.63,22.7515 19.978,24.0985 21.642,24.0985" id="Fill-1389"></path>
                <path d="M27.6666,24.0985 C29.3306,24.0985 30.6786,22.7515 30.6786,21.0865 C30.6786,19.4235 29.3306,18.0735 27.6666,18.0735 C26.0026,18.0735 24.6536,19.4235 24.6536,21.0865 C24.6536,22.7515 26.0026,24.0985 27.6666,24.0985" id="Fill-1391"></path>
                <path d="M33.6912,24.0985 C35.3552,24.0985 36.7032,22.7515 36.7032,21.0865 C36.7032,19.4235 35.3552,18.0735 33.6912,18.0735 C32.0272,18.0735 30.6782,19.4235 30.6782,21.0865 C30.6782,22.7515 32.0272,24.0985 33.6912,24.0985" id="Fill-1393"></path>
                <path d="M39.7159,24.0985 C41.3799,24.0985 42.7279,22.7515 42.7279,21.0865 C42.7279,19.4235 41.3799,18.0735 39.7159,18.0735 C38.0519,18.0735 36.7029,19.4235 36.7029,21.0865 C36.7029,22.7515 38.0519,24.0985 39.7159,24.0985" id="Fill-1395"></path>
                <path d="M45.7405,24.0985 C47.4045,24.0985 48.7525,22.7515 48.7525,21.0865 C48.7525,19.4235 47.4045,18.0735 45.7405,18.0735 C44.0765,18.0735 42.7275,19.4235 42.7275,21.0865 C42.7275,22.7515 44.0765,24.0985 45.7405,24.0985" id="Fill-1397"></path>
                <path d="M51.7651,24.0985 C53.4291,24.0985 54.7771,22.7515 54.7771,21.0865 C54.7771,19.4235 53.4291,18.0735 51.7651,18.0735 C50.1011,18.0735 48.7521,19.4235 48.7521,21.0865 C48.7521,22.7515 50.1011,24.0985 51.7651,24.0985" id="Fill-1399"></path>
                <path d="M57.7896,24.0985 C59.4536,24.0985 60.8026,22.7515 60.8026,21.0865 C60.8026,19.4235 59.4536,18.0735 57.7896,18.0735 C56.1256,18.0735 54.7776,19.4235 54.7776,21.0865 C54.7776,22.7515 56.1256,24.0985 57.7896,24.0985" id="Fill-1401"></path>
                <path d="M63.8141,24.0985 C65.4781,24.0985 66.8271,22.7515 66.8271,21.0865 C66.8271,19.4235 65.4781,18.0735 63.8141,18.0735 C62.1501,18.0735 60.8021,19.4235 60.8021,21.0865 C60.8021,22.7515 62.1501,24.0985 63.8141,24.0985" id="Fill-1403"></path>
                <path d="M69.8388,24.0985 C71.5028,24.0985 72.8518,22.7515 72.8518,21.0865 C72.8518,19.4235 71.5028,18.0735 69.8388,18.0735 C68.1748,18.0735 66.8268,19.4235 66.8268,21.0865 C66.8268,22.7515 68.1748,24.0985 69.8388,24.0985" id="Fill-1405"></path>
                <path d="M75.8634,24.0985 C77.5274,24.0985 78.8754,22.7515 78.8754,21.0865 C78.8754,19.4235 77.5274,18.0735 75.8634,18.0735 C74.1994,18.0735 72.8514,19.4235 72.8514,21.0865 C72.8514,22.7515 74.1994,24.0985 75.8634,24.0985" id="Fill-1407"></path>
                <path d="M81.8881,24.0985 C83.5521,24.0985 84.9001,22.7515 84.9001,21.0865 C84.9001,19.4235 83.5521,18.0735 81.8881,18.0735 C80.2241,18.0735 78.8751,19.4235 78.8751,21.0865 C78.8751,22.7515 80.2241,24.0985 81.8881,24.0985" id="Fill-1409"></path>
                <path d="M87.9126,24.0985 C89.5766,24.0985 90.9246,22.7515 90.9246,21.0865 C90.9246,19.4235 89.5766,18.0735 87.9126,18.0735 C86.2486,18.0735 84.8996,19.4235 84.8996,21.0865 C84.8996,22.7515 86.2486,24.0985 87.9126,24.0985" id="Fill-1411"></path>
                <path d="M93.9372,24.0985 C95.6012,24.0985 96.9502,22.7515 96.9502,21.0865 C96.9502,19.4235 95.6012,18.0735 93.9372,18.0735 C92.2732,18.0735 90.9242,19.4235 90.9242,21.0865 C90.9242,22.7515 92.2732,24.0985 93.9372,24.0985" id="Fill-1413"></path>
                <path d="M99.9619,24.0985 C101.6259,24.0985 102.9739,22.7515 102.9739,21.0865 C102.9739,19.4235 101.6259,18.0735 99.9619,18.0735 C98.2979,18.0735 96.9499,19.4235 96.9499,21.0865 C96.9499,22.7515 98.2979,24.0985 99.9619,24.0985" id="Fill-1415"></path>
                <path d="M9.5927,30.1231 C11.2567,30.1231 12.6057,28.7761 12.6057,27.1111 C12.6057,25.4481 11.2567,24.0981 9.5927,24.0981 C7.9287,24.0981 6.5807,25.4481 6.5807,27.1111 C6.5807,28.7761 7.9287,30.1231 9.5927,30.1231" id="Fill-1417"></path>
                <path d="M15.6174,30.1231 C17.2814,30.1231 18.6304,28.7761 18.6304,27.1111 C18.6304,25.4481 17.2814,24.0981 15.6174,24.0981 C13.9534,24.0981 12.6054,25.4481 12.6054,27.1111 C12.6054,28.7761 13.9534,30.1231 15.6174,30.1231" id="Fill-1419"></path>
                <path d="M21.642,30.1231 C23.306,30.1231 24.654,28.7761 24.654,27.1111 C24.654,25.4481 23.306,24.0981 21.642,24.0981 C19.978,24.0981 18.63,25.4481 18.63,27.1111 C18.63,28.7761 19.978,30.1231 21.642,30.1231" id="Fill-1421"></path>
                <path d="M27.6666,30.1231 C29.3306,30.1231 30.6786,28.7761 30.6786,27.1111 C30.6786,25.4481 29.3306,24.0981 27.6666,24.0981 C26.0026,24.0981 24.6536,25.4481 24.6536,27.1111 C24.6536,28.7761 26.0026,30.1231 27.6666,30.1231" id="Fill-1423"></path>
                <path d="M33.6912,30.1231 C35.3552,30.1231 36.7032,28.7761 36.7032,27.1111 C36.7032,25.4481 35.3552,24.0981 33.6912,24.0981 C32.0272,24.0981 30.6782,25.4481 30.6782,27.1111 C30.6782,28.7761 32.0272,30.1231 33.6912,30.1231" id="Fill-1425"></path>
                <path d="M39.7159,30.1231 C41.3799,30.1231 42.7279,28.7761 42.7279,27.1111 C42.7279,25.4481 41.3799,24.0981 39.7159,24.0981 C38.0519,24.0981 36.7029,25.4481 36.7029,27.1111 C36.7029,28.7761 38.0519,30.1231 39.7159,30.1231" id="Fill-1427"></path>
                <path d="M69.8388,30.1231 C71.5028,30.1231 72.8518,28.7761 72.8518,27.1111 C72.8518,25.4481 71.5028,24.0981 69.8388,24.0981 C68.1748,24.0981 66.8268,25.4481 66.8268,27.1111 C66.8268,28.7761 68.1748,30.1231 69.8388,30.1231" id="Fill-1429"></path>
                <path d="M75.8634,30.1231 C77.5274,30.1231 78.8754,28.7761 78.8754,27.1111 C78.8754,25.4481 77.5274,24.0981 75.8634,24.0981 C74.1994,24.0981 72.8514,25.4481 72.8514,27.1111 C72.8514,28.7761 74.1994,30.1231 75.8634,30.1231" id="Fill-1431"></path>
                <path d="M81.8881,30.1231 C83.5521,30.1231 84.9001,28.7761 84.9001,27.1111 C84.9001,25.4481 83.5521,24.0981 81.8881,24.0981 C80.2241,24.0981 78.8751,25.4481 78.8751,27.1111 C78.8751,28.7761 80.2241,30.1231 81.8881,30.1231" id="Fill-1433"></path>
                <path d="M87.9126,30.1231 C89.5766,30.1231 90.9246,28.7761 90.9246,27.1111 C90.9246,25.4481 89.5766,24.0981 87.9126,24.0981 C86.2486,24.0981 84.8996,25.4481 84.8996,27.1111 C84.8996,28.7761 86.2486,30.1231 87.9126,30.1231" id="Fill-1435"></path>
                <path d="M93.9372,30.1231 C95.6012,30.1231 96.9502,28.7761 96.9502,27.1111 C96.9502,25.4481 95.6012,24.0981 93.9372,24.0981 C92.2732,24.0981 90.9242,25.4481 90.9242,27.1111 C90.9242,28.7761 92.2732,30.1231 93.9372,30.1231" id="Fill-1437"></path>
                <path d="M99.9619,30.1231 C101.6259,30.1231 102.9739,28.7761 102.9739,27.1111 C102.9739,25.4481 101.6259,24.0981 99.9619,24.0981 C98.2979,24.0981 96.9499,25.4481 96.9499,27.1111 C96.9499,28.7761 98.2979,30.1231 99.9619,30.1231" id="Fill-1439"></path>
                <path d="M75.8634,36.1478 C77.5274,36.1478 78.8754,34.8008 78.8754,33.1358 C78.8754,31.4728 77.5274,30.1228 75.8634,30.1228 C74.1994,30.1228 72.8514,31.4728 72.8514,33.1358 C72.8514,34.8008 74.1994,36.1478 75.8634,36.1478" id="Fill-1441"></path>
                <path d="M81.8881,36.1478 C83.5521,36.1478 84.9001,34.8008 84.9001,33.1358 C84.9001,31.4728 83.5521,30.1228 81.8881,30.1228 C80.2241,30.1228 78.8751,31.4728 78.8751,33.1358 C78.8751,34.8008 80.2241,36.1478 81.8881,36.1478" id="Fill-1443"></path>
                <path d="M87.9126,36.1478 C89.5766,36.1478 90.9246,34.8008 90.9246,33.1358 C90.9246,31.4728 89.5766,30.1228 87.9126,30.1228 C86.2486,30.1228 84.8996,31.4728 84.8996,33.1358 C84.8996,34.8008 86.2486,36.1478 87.9126,36.1478" id="Fill-1445"></path>
                <path d="M93.9372,36.1478 C95.6012,36.1478 96.9502,34.8008 96.9502,33.1358 C96.9502,31.4728 95.6012,30.1228 93.9372,30.1228 C92.2732,30.1228 90.9242,31.4728 90.9242,33.1358 C90.9242,34.8008 92.2732,36.1478 93.9372,36.1478" id="Fill-1447"></path>
                <path d="M99.9619,36.1478 C101.6259,36.1478 102.9739,34.8008 102.9739,33.1358 C102.9739,31.4728 101.6259,30.1228 99.9619,30.1228 C98.2979,30.1228 96.9499,31.4728 96.9499,33.1358 C96.9499,34.8008 98.2979,36.1478 99.9619,36.1478" id="Fill-1449"></path>
                <path d="M75.8634,42.1724 C77.5274,42.1724 78.8754,40.8254 78.8754,39.1604 C78.8754,37.4974 77.5274,36.1474 75.8634,36.1474 C74.1994,36.1474 72.8514,37.4974 72.8514,39.1604 C72.8514,40.8254 74.1994,42.1724 75.8634,42.1724" id="Fill-1451"></path>
                <path d="M81.8881,42.1724 C83.5521,42.1724 84.9001,40.8254 84.9001,39.1604 C84.9001,37.4974 83.5521,36.1474 81.8881,36.1474 C80.2241,36.1474 78.8751,37.4974 78.8751,39.1604 C78.8751,40.8254 80.2241,42.1724 81.8881,42.1724" id="Fill-1453"></path>
                <path d="M87.9126,42.1724 C89.5766,42.1724 90.9246,40.8254 90.9246,39.1604 C90.9246,37.4974 89.5766,36.1474 87.9126,36.1474 C86.2486,36.1474 84.8996,37.4974 84.8996,39.1604 C84.8996,40.8254 86.2486,42.1724 87.9126,42.1724" id="Fill-1455"></path>
                <path d="M93.9372,42.1724 C95.6012,42.1724 96.9502,40.8254 96.9502,39.1604 C96.9502,37.4974 95.6012,36.1474 93.9372,36.1474 C92.2732,36.1474 90.9242,37.4974 90.9242,39.1604 C90.9242,40.8254 92.2732,42.1724 93.9372,42.1724" id="Fill-1457"></path>
                <path d="M99.9619,42.1724 C101.6259,42.1724 102.9739,40.8254 102.9739,39.1604 C102.9739,37.4974 101.6259,36.1474 99.9619,36.1474 C98.2979,36.1474 96.9499,37.4974 96.9499,39.1604 C96.9499,40.8254 98.2979,42.1724 99.9619,42.1724" id="Fill-1459"></path>
                <path d="M69.8388,48.197 C71.5028,48.197 72.8518,46.85 72.8518,45.185 C72.8518,43.522 71.5028,42.172 69.8388,42.172 C68.1748,42.172 66.8268,43.522 66.8268,45.185 C66.8268,46.85 68.1748,48.197 69.8388,48.197" id="Fill-1461"></path>
                <path d="M75.8634,48.197 C77.5274,48.197 78.8754,46.85 78.8754,45.185 C78.8754,43.522 77.5274,42.172 75.8634,42.172 C74.1994,42.172 72.8514,43.522 72.8514,45.185 C72.8514,46.85 74.1994,48.197 75.8634,48.197" id="Fill-1463"></path>
                <path d="M81.8881,48.197 C83.5521,48.197 84.9001,46.85 84.9001,45.185 C84.9001,43.522 83.5521,42.172 81.8881,42.172 C80.2241,42.172 78.8751,43.522 78.8751,45.185 C78.8751,46.85 80.2241,48.197 81.8881,48.197" id="Fill-1465"></path>
                <path d="M87.9126,48.197 C89.5766,48.197 90.9246,46.85 90.9246,45.185 C90.9246,43.522 89.5766,42.172 87.9126,42.172 C86.2486,42.172 84.8996,43.522 84.8996,45.185 C84.8996,46.85 86.2486,48.197 87.9126,48.197" id="Fill-1467"></path>
                <path d="M93.9372,48.197 C95.6012,48.197 96.9502,46.85 96.9502,45.185 C96.9502,43.522 95.6012,42.172 93.9372,42.172 C92.2732,42.172 90.9242,43.522 90.9242,45.185 C90.9242,46.85 92.2732,48.197 93.9372,48.197" id="Fill-1469"></path>
                <path d="M63.8141,54.2215 C65.4781,54.2215 66.8271,52.8745 66.8271,51.2095 C66.8271,49.5465 65.4781,48.1965 63.8141,48.1965 C62.1501,48.1965 60.8021,49.5465 60.8021,51.2095 C60.8021,52.8745 62.1501,54.2215 63.8141,54.2215" id="Fill-1471"></path>
                <path d="M69.8388,54.2215 C71.5028,54.2215 72.8518,52.8745 72.8518,51.2095 C72.8518,49.5465 71.5028,48.1965 69.8388,48.1965 C68.1748,48.1965 66.8268,49.5465 66.8268,51.2095 C66.8268,52.8745 68.1748,54.2215 69.8388,54.2215" id="Fill-1473"></path>
                <path d="M75.8634,54.2215 C77.5274,54.2215 78.8754,52.8745 78.8754,51.2095 C78.8754,49.5465 77.5274,48.1965 75.8634,48.1965 C74.1994,48.1965 72.8514,49.5465 72.8514,51.2095 C72.8514,52.8745 74.1994,54.2215 75.8634,54.2215" id="Fill-1475"></path>
                <path d="M81.8881,54.2215 C83.5521,54.2215 84.9001,52.8745 84.9001,51.2095 C84.9001,49.5465 83.5521,48.1965 81.8881,48.1965 C80.2241,48.1965 78.8751,49.5465 78.8751,51.2095 C78.8751,52.8745 80.2241,54.2215 81.8881,54.2215" id="Fill-1477"></path>
                <path d="M87.9126,54.2215 C89.5766,54.2215 90.9246,52.8745 90.9246,51.2095 C90.9246,49.5465 89.5766,48.1965 87.9126,48.1965 C86.2486,48.1965 84.8996,49.5465 84.8996,51.2095 C84.8996,52.8745 86.2486,54.2215 87.9126,54.2215" id="Fill-1479"></path>
                <path d="M63.8141,60.2461 C65.4781,60.2461 66.8271,58.8991 66.8271,57.2341 C66.8271,55.5711 65.4781,54.2211 63.8141,54.2211 C62.1501,54.2211 60.8021,55.5711 60.8021,57.2341 C60.8021,58.8991 62.1501,60.2461 63.8141,60.2461" id="Fill-1481"></path>
                <path d="M69.8388,60.2461 C71.5028,60.2461 72.8518,58.8991 72.8518,57.2341 C72.8518,55.5711 71.5028,54.2211 69.8388,54.2211 C68.1748,54.2211 66.8268,55.5711 66.8268,57.2341 C66.8268,58.8991 68.1748,60.2461 69.8388,60.2461" id="Fill-1483"></path>
                <path d="M75.8634,60.2461 C77.5274,60.2461 78.8754,58.8991 78.8754,57.2341 C78.8754,55.5711 77.5274,54.2211 75.8634,54.2211 C74.1994,54.2211 72.8514,55.5711 72.8514,57.2341 C72.8514,58.8991 74.1994,60.2461 75.8634,60.2461" id="Fill-1485"></path>
                <path d="M81.8881,60.2461 C83.5521,60.2461 84.9001,58.8991 84.9001,57.2341 C84.9001,55.5711 83.5521,54.2211 81.8881,54.2211 C80.2241,54.2211 78.8751,55.5711 78.8751,57.2341 C78.8751,58.8991 80.2241,60.2461 81.8881,60.2461" id="Fill-1487"></path>
                <path d="M63.8141,66.2707 C65.4781,66.2707 66.8271,64.9237 66.8271,63.2587 C66.8271,61.5957 65.4781,60.2457 63.8141,60.2457 C62.1501,60.2457 60.8021,61.5957 60.8021,63.2587 C60.8021,64.9237 62.1501,66.2707 63.8141,66.2707" id="Fill-1489"></path>
                <path d="M69.8388,66.2707 C71.5028,66.2707 72.8518,64.9237 72.8518,63.2587 C72.8518,61.5957 71.5028,60.2457 69.8388,60.2457 C68.1748,60.2457 66.8268,61.5957 66.8268,63.2587 C66.8268,64.9237 68.1748,66.2707 69.8388,66.2707" id="Fill-1491"></path>
                <path d="M75.8634,66.2707 C77.5274,66.2707 78.8754,64.9237 78.8754,63.2587 C78.8754,61.5957 77.5274,60.2457 75.8634,60.2457 C74.1994,60.2457 72.8514,61.5957 72.8514,63.2587 C72.8514,64.9237 74.1994,66.2707 75.8634,66.2707" id="Fill-1493"></path>
                <path d="M81.8881,66.2707 C83.5521,66.2707 84.9001,64.9237 84.9001,63.2587 C84.9001,61.5957 83.5521,60.2457 81.8881,60.2457 C80.2241,60.2457 78.8751,61.5957 78.8751,63.2587 C78.8751,64.9237 80.2241,66.2707 81.8881,66.2707" id="Fill-1495"></path>
                <path d="M87.9126,66.2707 C89.5766,66.2707 90.9246,64.9237 90.9246,63.2587 C90.9246,61.5957 89.5766,60.2457 87.9126,60.2457 C86.2486,60.2457 84.8996,61.5957 84.8996,63.2587 C84.8996,64.9237 86.2486,66.2707 87.9126,66.2707" id="Fill-1497"></path>
                <path d="M93.9372,66.2707 C95.6012,66.2707 96.9502,64.9237 96.9502,63.2587 C96.9502,61.5957 95.6012,60.2457 93.9372,60.2457 C92.2732,60.2457 90.9242,61.5957 90.9242,63.2587 C90.9242,64.9237 92.2732,66.2707 93.9372,66.2707" id="Fill-1499"></path>
                <path d="M57.7895,54.2214 C59.4535,54.2214 60.8025,52.8744 60.8025,51.2094 C60.8025,49.5464 59.4535,48.1964 57.7895,48.1964 C56.1255,48.1964 54.7775,49.5464 54.7775,51.2094 C54.7775,52.8744 56.1255,54.2214 57.7895,54.2214" id="Fill-1501"></path>
                <path d="M57.7895,60.246 C59.4535,60.246 60.8025,58.899 60.8025,57.234 C60.8025,55.571 59.4535,54.221 57.7895,54.221 C56.1255,54.221 54.7775,55.571 54.7775,57.234 C54.7775,58.899 56.1255,60.246 57.7895,60.246" id="Fill-1503"></path>
                <path d="M57.7895,66.2706 C59.4535,66.2706 60.8025,64.9236 60.8025,63.2586 C60.8025,61.5956 59.4535,60.2456 57.7895,60.2456 C56.1255,60.2456 54.7775,61.5956 54.7775,63.2586 C54.7775,64.9236 56.1255,66.2706 57.7895,66.2706" id="Fill-1505"></path>
                <path d="M57.7895,72.2953 C59.4535,72.2953 60.8025,70.9483 60.8025,69.2833 C60.8025,67.6203 59.4535,66.2703 57.7895,66.2703 C56.1255,66.2703 54.7775,67.6203 54.7775,69.2833 C54.7775,70.9483 56.1255,72.2953 57.7895,72.2953" id="Fill-1507"></path>
                <path d="M51.7648,54.2214 C53.4288,54.2214 54.7778,52.8744 54.7778,51.2094 C54.7778,49.5464 53.4288,48.1964 51.7648,48.1964 C50.1008,48.1964 48.7528,49.5464 48.7528,51.2094 C48.7528,52.8744 50.1008,54.2214 51.7648,54.2214" id="Fill-1509"></path>
                <path d="M51.7648,60.246 C53.4288,60.246 54.7778,58.899 54.7778,57.234 C54.7778,55.571 53.4288,54.221 51.7648,54.221 C50.1008,54.221 48.7528,55.571 48.7528,57.234 C48.7528,58.899 50.1008,60.246 51.7648,60.246" id="Fill-1511"></path>
                <path d="M51.7648,66.2706 C53.4288,66.2706 54.7778,64.9236 54.7778,63.2586 C54.7778,61.5956 53.4288,60.2456 51.7648,60.2456 C50.1008,60.2456 48.7528,61.5956 48.7528,63.2586 C48.7528,64.9236 50.1008,66.2706 51.7648,66.2706" id="Fill-1513"></path>
                <path d="M51.7648,72.2953 C53.4288,72.2953 54.7778,70.9483 54.7778,69.2833 C54.7778,67.6203 53.4288,66.2703 51.7648,66.2703 C50.1008,66.2703 48.7528,67.6203 48.7528,69.2833 C48.7528,70.9483 50.1008,72.2953 51.7648,72.2953" id="Fill-1515"></path>
                <path d="M63.8141,72.2953 C65.4781,72.2953 66.8271,70.9483 66.8271,69.2833 C66.8271,67.6203 65.4781,66.2703 63.8141,66.2703 C62.1501,66.2703 60.8021,67.6203 60.8021,69.2833 C60.8021,70.9483 62.1501,72.2953 63.8141,72.2953" id="Fill-1517"></path>
                <path d="M69.8388,72.2953 C71.5028,72.2953 72.8518,70.9483 72.8518,69.2833 C72.8518,67.6203 71.5028,66.2703 69.8388,66.2703 C68.1748,66.2703 66.8268,67.6203 66.8268,69.2833 C66.8268,70.9483 68.1748,72.2953 69.8388,72.2953" id="Fill-1519"></path>
                <path d="M75.8634,72.2953 C77.5274,72.2953 78.8754,70.9483 78.8754,69.2833 C78.8754,67.6203 77.5274,66.2703 75.8634,66.2703 C74.1994,66.2703 72.8514,67.6203 72.8514,69.2833 C72.8514,70.9483 74.1994,72.2953 75.8634,72.2953" id="Fill-1521"></path>
                <path d="M81.8881,72.2953 C83.5521,72.2953 84.9001,70.9483 84.9001,69.2833 C84.9001,67.6203 83.5521,66.2703 81.8881,66.2703 C80.2241,66.2703 78.8751,67.6203 78.8751,69.2833 C78.8751,70.9483 80.2241,72.2953 81.8881,72.2953" id="Fill-1523"></path>
                <path d="M87.9126,72.2953 C89.5766,72.2953 90.9246,70.9483 90.9246,69.2833 C90.9246,67.6203 89.5766,66.2703 87.9126,66.2703 C86.2486,66.2703 84.8996,67.6203 84.8996,69.2833 C84.8996,70.9483 86.2486,72.2953 87.9126,72.2953" id="Fill-1525"></path>
                <path d="M93.9372,72.2953 C95.6012,72.2953 96.9502,70.9483 96.9502,69.2833 C96.9502,67.6203 95.6012,66.2703 93.9372,66.2703 C92.2732,66.2703 90.9242,67.6203 90.9242,69.2833 C90.9242,70.9483 92.2732,72.2953 93.9372,72.2953" id="Fill-1527"></path>
                <path d="M99.9619,72.2953 C101.6259,72.2953 102.9739,70.9483 102.9739,69.2833 C102.9739,67.6203 101.6259,66.2703 99.9619,66.2703 C98.2979,66.2703 96.9499,67.6203 96.9499,69.2833 C96.9499,70.9483 98.2979,72.2953 99.9619,72.2953" id="Fill-1529"></path>
                <path d="M69.8388,78.3199 C71.5028,78.3199 72.8518,76.9729 72.8518,75.3079 C72.8518,73.6449 71.5028,72.2949 69.8388,72.2949 C68.1748,72.2949 66.8268,73.6449 66.8268,75.3079 C66.8268,76.9729 68.1748,78.3199 69.8388,78.3199" id="Fill-1531"></path>
                <path d="M75.8634,78.3199 C77.5274,78.3199 78.8754,76.9729 78.8754,75.3079 C78.8754,73.6449 77.5274,72.2949 75.8634,72.2949 C74.1994,72.2949 72.8514,73.6449 72.8514,75.3079 C72.8514,76.9729 74.1994,78.3199 75.8634,78.3199" id="Fill-1533"></path>
                <path d="M81.8881,78.3199 C83.5521,78.3199 84.9001,76.9729 84.9001,75.3079 C84.9001,73.6449 83.5521,72.2949 81.8881,72.2949 C80.2241,72.2949 78.8751,73.6449 78.8751,75.3079 C78.8751,76.9729 80.2241,78.3199 81.8881,78.3199" id="Fill-1535"></path>
                <path d="M87.9126,78.3199 C89.5766,78.3199 90.9246,76.9729 90.9246,75.3079 C90.9246,73.6449 89.5766,72.2949 87.9126,72.2949 C86.2486,72.2949 84.8996,73.6449 84.8996,75.3079 C84.8996,76.9729 86.2486,78.3199 87.9126,78.3199" id="Fill-1537"></path>
                <path d="M93.9372,78.3199 C95.6012,78.3199 96.9502,76.9729 96.9502,75.3079 C96.9502,73.6449 95.6012,72.2949 93.9372,72.2949 C92.2732,72.2949 90.9242,73.6449 90.9242,75.3079 C90.9242,76.9729 92.2732,78.3199 93.9372,78.3199" id="Fill-1539"></path>
                <path d="M99.9619,78.3199 C101.6259,78.3199 102.9739,76.9729 102.9739,75.3079 C102.9739,73.6449 101.6259,72.2949 99.9619,72.2949 C98.2979,72.2949 96.9499,73.6449 96.9499,75.3079 C96.9499,76.9729 98.2979,78.3199 99.9619,78.3199" id="Fill-1541"></path>
                <path d="M75.8634,84.3445 C77.5274,84.3445 78.8754,82.9975 78.8754,81.3325 C78.8754,79.6695 77.5274,78.3195 75.8634,78.3195 C74.1994,78.3195 72.8514,79.6695 72.8514,81.3325 C72.8514,82.9975 74.1994,84.3445 75.8634,84.3445" id="Fill-1543"></path>
                <path d="M81.8881,84.3445 C83.5521,84.3445 84.9001,82.9975 84.9001,81.3325 C84.9001,79.6695 83.5521,78.3195 81.8881,78.3195 C80.2241,78.3195 78.8751,79.6695 78.8751,81.3325 C78.8751,82.9975 80.2241,84.3445 81.8881,84.3445" id="Fill-1545"></path>
                <path d="M87.9126,84.3445 C89.5766,84.3445 90.9246,82.9975 90.9246,81.3325 C90.9246,79.6695 89.5766,78.3195 87.9126,78.3195 C86.2486,78.3195 84.8996,79.6695 84.8996,81.3325 C84.8996,82.9975 86.2486,84.3445 87.9126,84.3445" id="Fill-1547"></path>
                <path d="M93.9372,84.3445 C95.6012,84.3445 96.9502,82.9975 96.9502,81.3325 C96.9502,79.6695 95.6012,78.3195 93.9372,78.3195 C92.2732,78.3195 90.9242,79.6695 90.9242,81.3325 C90.9242,82.9975 92.2732,84.3445 93.9372,84.3445" id="Fill-1549"></path>
                <path d="M99.9619,84.3445 C101.6259,84.3445 102.9739,82.9975 102.9739,81.3325 C102.9739,79.6695 101.6259,78.3195 99.9619,78.3195 C98.2979,78.3195 96.9499,79.6695 96.9499,81.3325 C96.9499,82.9975 98.2979,84.3445 99.9619,84.3445" id="Fill-1551"></path>
                <path d="M105.9865,84.3445 C107.6505,84.3445 108.9985,82.9975 108.9985,81.3325 C108.9985,79.6695 107.6505,78.3195 105.9865,78.3195 C104.3225,78.3195 102.9735,79.6695 102.9735,81.3325 C102.9735,82.9975 104.3225,84.3445 105.9865,84.3445" id="Fill-1553"></path>
                <path d="M3.5682,90.3691 C5.2322,90.3691 6.5812,89.0221 6.5812,87.3571 C6.5812,85.6941 5.2322,84.3441 3.5682,84.3441 C1.9042,84.3441 0.5562,85.6941 0.5562,87.3571 C0.5562,89.0221 1.9042,90.3691 3.5682,90.3691" id="Fill-1555"></path>
                <path d="M9.5927,90.3691 C11.2567,90.3691 12.6057,89.0221 12.6057,87.3571 C12.6057,85.6941 11.2567,84.3441 9.5927,84.3441 C7.9287,84.3441 6.5807,85.6941 6.5807,87.3571 C6.5807,89.0221 7.9287,90.3691 9.5927,90.3691" id="Fill-1557"></path>
                <path d="M15.6174,90.3691 C17.2814,90.3691 18.6304,89.0221 18.6304,87.3571 C18.6304,85.6941 17.2814,84.3441 15.6174,84.3441 C13.9534,84.3441 12.6054,85.6941 12.6054,87.3571 C12.6054,89.0221 13.9534,90.3691 15.6174,90.3691" id="Fill-1559"></path>
                <path d="M21.642,90.3691 C23.306,90.3691 24.654,89.0221 24.654,87.3571 C24.654,85.6941 23.306,84.3441 21.642,84.3441 C19.978,84.3441 18.63,85.6941 18.63,87.3571 C18.63,89.0221 19.978,90.3691 21.642,90.3691" id="Fill-1561"></path>
                <path d="M27.6666,90.3691 C29.3306,90.3691 30.6786,89.0221 30.6786,87.3571 C30.6786,85.6941 29.3306,84.3441 27.6666,84.3441 C26.0026,84.3441 24.6536,85.6941 24.6536,87.3571 C24.6536,89.0221 26.0026,90.3691 27.6666,90.3691" id="Fill-1563"></path>
                <path d="M33.6912,90.3691 C35.3552,90.3691 36.7032,89.0221 36.7032,87.3571 C36.7032,85.6941 35.3552,84.3441 33.6912,84.3441 C32.0272,84.3441 30.6782,85.6941 30.6782,87.3571 C30.6782,89.0221 32.0272,90.3691 33.6912,90.3691" id="Fill-1565"></path>
                <path d="M75.8634,90.3691 C77.5274,90.3691 78.8754,89.0221 78.8754,87.3571 C78.8754,85.6941 77.5274,84.3441 75.8634,84.3441 C74.1994,84.3441 72.8514,85.6941 72.8514,87.3571 C72.8514,89.0221 74.1994,90.3691 75.8634,90.3691" id="Fill-1567"></path>
                <path d="M81.8881,90.3691 C83.5521,90.3691 84.9001,89.0221 84.9001,87.3571 C84.9001,85.6941 83.5521,84.3441 81.8881,84.3441 C80.2241,84.3441 78.8751,85.6941 78.8751,87.3571 C78.8751,89.0221 80.2241,90.3691 81.8881,90.3691" id="Fill-1569"></path>
                <path d="M87.9126,90.3691 C89.5766,90.3691 90.9246,89.0221 90.9246,87.3571 C90.9246,85.6941 89.5766,84.3441 87.9126,84.3441 C86.2486,84.3441 84.8996,85.6941 84.8996,87.3571 C84.8996,89.0221 86.2486,90.3691 87.9126,90.3691" id="Fill-1571"></path>
                <path d="M93.9372,90.3691 C95.6012,90.3691 96.9502,89.0221 96.9502,87.3571 C96.9502,85.6941 95.6012,84.3441 93.9372,84.3441 C92.2732,84.3441 90.9242,85.6941 90.9242,87.3571 C90.9242,89.0221 92.2732,90.3691 93.9372,90.3691" id="Fill-1573"></path>
                <path d="M99.9619,90.3691 C101.6259,90.3691 102.9739,89.0221 102.9739,87.3571 C102.9739,85.6941 101.6259,84.3441 99.9619,84.3441 C98.2979,84.3441 96.9499,85.6941 96.9499,87.3571 C96.9499,89.0221 98.2979,90.3691 99.9619,90.3691" id="Fill-1575"></path>
                <path d="M105.9865,90.3691 C107.6505,90.3691 108.9985,89.0221 108.9985,87.3571 C108.9985,85.6941 107.6505,84.3441 105.9865,84.3441 C104.3225,84.3441 102.9735,85.6941 102.9735,87.3571 C102.9735,89.0221 104.3225,90.3691 105.9865,90.3691" id="Fill-1577"></path>
                <path d="M3.5682,96.3937 C5.2322,96.3937 6.5812,95.0467 6.5812,93.3817 C6.5812,91.7187 5.2322,90.3687 3.5682,90.3687 C1.9042,90.3687 0.5562,91.7187 0.5562,93.3817 C0.5562,95.0467 1.9042,96.3937 3.5682,96.3937" id="Fill-1579"></path>
                <path d="M9.5927,96.3937 C11.2567,96.3937 12.6057,95.0467 12.6057,93.3817 C12.6057,91.7187 11.2567,90.3687 9.5927,90.3687 C7.9287,90.3687 6.5807,91.7187 6.5807,93.3817 C6.5807,95.0467 7.9287,96.3937 9.5927,96.3937" id="Fill-1581"></path>
                <path d="M15.6174,96.3937 C17.2814,96.3937 18.6304,95.0467 18.6304,93.3817 C18.6304,91.7187 17.2814,90.3687 15.6174,90.3687 C13.9534,90.3687 12.6054,91.7187 12.6054,93.3817 C12.6054,95.0467 13.9534,96.3937 15.6174,96.3937" id="Fill-1583"></path>
                <path d="M21.642,96.3937 C23.306,96.3937 24.654,95.0467 24.654,93.3817 C24.654,91.7187 23.306,90.3687 21.642,90.3687 C19.978,90.3687 18.63,91.7187 18.63,93.3817 C18.63,95.0467 19.978,96.3937 21.642,96.3937" id="Fill-1585"></path>
                <path d="M27.6666,96.3937 C29.3306,96.3937 30.6786,95.0467 30.6786,93.3817 C30.6786,91.7187 29.3306,90.3687 27.6666,90.3687 C26.0026,90.3687 24.6536,91.7187 24.6536,93.3817 C24.6536,95.0467 26.0026,96.3937 27.6666,96.3937" id="Fill-1587"></path>
                <path d="M33.6912,96.3937 C35.3552,96.3937 36.7032,95.0467 36.7032,93.3817 C36.7032,91.7187 35.3552,90.3687 33.6912,90.3687 C32.0272,90.3687 30.6782,91.7187 30.6782,93.3817 C30.6782,95.0467 32.0272,96.3937 33.6912,96.3937" id="Fill-1589"></path>
                <path d="M75.8634,96.3937 C77.5274,96.3937 78.8754,95.0467 78.8754,93.3817 C78.8754,91.7187 77.5274,90.3687 75.8634,90.3687 C74.1994,90.3687 72.8514,91.7187 72.8514,93.3817 C72.8514,95.0467 74.1994,96.3937 75.8634,96.3937" id="Fill-1591"></path>
                <path d="M81.8881,96.3937 C83.5521,96.3937 84.9001,95.0467 84.9001,93.3817 C84.9001,91.7187 83.5521,90.3687 81.8881,90.3687 C80.2241,90.3687 78.8751,91.7187 78.8751,93.3817 C78.8751,95.0467 80.2241,96.3937 81.8881,96.3937" id="Fill-1593"></path>
                <path d="M87.9126,96.3937 C89.5766,96.3937 90.9246,95.0467 90.9246,93.3817 C90.9246,91.7187 89.5766,90.3687 87.9126,90.3687 C86.2486,90.3687 84.8996,91.7187 84.8996,93.3817 C84.8996,95.0467 86.2486,96.3937 87.9126,96.3937" id="Fill-1595"></path>
                <path d="M93.9372,96.3937 C95.6012,96.3937 96.9502,95.0467 96.9502,93.3817 C96.9502,91.7187 95.6012,90.3687 93.9372,90.3687 C92.2732,90.3687 90.9242,91.7187 90.9242,93.3817 C90.9242,95.0467 92.2732,96.3937 93.9372,96.3937" id="Fill-1597"></path>
                <path d="M99.9619,96.3937 C101.6259,96.3937 102.9739,95.0467 102.9739,93.3817 C102.9739,91.7187 101.6259,90.3687 99.9619,90.3687 C98.2979,90.3687 96.9499,91.7187 96.9499,93.3817 C96.9499,95.0467 98.2979,96.3937 99.9619,96.3937" id="Fill-1599"></path>
                <path d="M105.9865,96.3937 C107.6505,96.3937 108.9985,95.0467 108.9985,93.3817 C108.9985,91.7187 107.6505,90.3687 105.9865,90.3687 C104.3225,90.3687 102.9735,91.7187 102.9735,93.3817 C102.9735,95.0467 104.3225,96.3937 105.9865,96.3937" id="Fill-1601"></path>
                <path d="M9.5927,102.4183 C11.2567,102.4183 12.6057,101.0713 12.6057,99.4063 C12.6057,97.7433 11.2567,96.3933 9.5927,96.3933 C7.9287,96.3933 6.5807,97.7433 6.5807,99.4063 C6.5807,101.0713 7.9287,102.4183 9.5927,102.4183" id="Fill-1603"></path>
                <path d="M15.6174,102.4183 C17.2814,102.4183 18.6304,101.0713 18.6304,99.4063 C18.6304,97.7433 17.2814,96.3933 15.6174,96.3933 C13.9534,96.3933 12.6054,97.7433 12.6054,99.4063 C12.6054,101.0713 13.9534,102.4183 15.6174,102.4183" id="Fill-1605"></path>
                <path d="M21.642,102.4183 C23.306,102.4183 24.654,101.0713 24.654,99.4063 C24.654,97.7433 23.306,96.3933 21.642,96.3933 C19.978,96.3933 18.63,97.7433 18.63,99.4063 C18.63,101.0713 19.978,102.4183 21.642,102.4183" id="Fill-1607"></path>
                <path d="M27.6666,102.4183 C29.3306,102.4183 30.6786,101.0713 30.6786,99.4063 C30.6786,97.7433 29.3306,96.3933 27.6666,96.3933 C26.0026,96.3933 24.6536,97.7433 24.6536,99.4063 C24.6536,101.0713 26.0026,102.4183 27.6666,102.4183" id="Fill-1609"></path>
                <path d="M33.6912,102.4183 C35.3552,102.4183 36.7032,101.0713 36.7032,99.4063 C36.7032,97.7433 35.3552,96.3933 33.6912,96.3933 C32.0272,96.3933 30.6782,97.7433 30.6782,99.4063 C30.6782,101.0713 32.0272,102.4183 33.6912,102.4183" id="Fill-1611"></path>
                <path d="M39.7159,102.4183 C41.3799,102.4183 42.7279,101.0713 42.7279,99.4063 C42.7279,97.7433 41.3799,96.3933 39.7159,96.3933 C38.0519,96.3933 36.7029,97.7433 36.7029,99.4063 C36.7029,101.0713 38.0519,102.4183 39.7159,102.4183" id="Fill-1613"></path>
                <path d="M69.8388,102.4183 C71.5028,102.4183 72.8518,101.0713 72.8518,99.4063 C72.8518,97.7433 71.5028,96.3933 69.8388,96.3933 C68.1748,96.3933 66.8268,97.7433 66.8268,99.4063 C66.8268,101.0713 68.1748,102.4183 69.8388,102.4183" id="Fill-1615"></path>
                <path d="M75.8634,102.4183 C77.5274,102.4183 78.8754,101.0713 78.8754,99.4063 C78.8754,97.7433 77.5274,96.3933 75.8634,96.3933 C74.1994,96.3933 72.8514,97.7433 72.8514,99.4063 C72.8514,101.0713 74.1994,102.4183 75.8634,102.4183" id="Fill-1617"></path>
                <path d="M81.8881,102.4183 C83.5521,102.4183 84.9001,101.0713 84.9001,99.4063 C84.9001,97.7433 83.5521,96.3933 81.8881,96.3933 C80.2241,96.3933 78.8751,97.7433 78.8751,99.4063 C78.8751,101.0713 80.2241,102.4183 81.8881,102.4183" id="Fill-1619"></path>
                <path d="M87.9126,102.4183 C89.5766,102.4183 90.9246,101.0713 90.9246,99.4063 C90.9246,97.7433 89.5766,96.3933 87.9126,96.3933 C86.2486,96.3933 84.8996,97.7433 84.8996,99.4063 C84.8996,101.0713 86.2486,102.4183 87.9126,102.4183" id="Fill-1621"></path>
                <path d="M93.9372,102.4183 C95.6012,102.4183 96.9502,101.0713 96.9502,99.4063 C96.9502,97.7433 95.6012,96.3933 93.9372,96.3933 C92.2732,96.3933 90.9242,97.7433 90.9242,99.4063 C90.9242,101.0713 92.2732,102.4183 93.9372,102.4183" id="Fill-1623"></path>
                <path d="M99.9619,102.4183 C101.6259,102.4183 102.9739,101.0713 102.9739,99.4063 C102.9739,97.7433 101.6259,96.3933 99.9619,96.3933 C98.2979,96.3933 96.9499,97.7433 96.9499,99.4063 C96.9499,101.0713 98.2979,102.4183 99.9619,102.4183" id="Fill-1625"></path>
                <path d="M9.5927,108.4429 C11.2567,108.4429 12.6057,107.0959 12.6057,105.4309 C12.6057,103.7679 11.2567,102.4179 9.5927,102.4179 C7.9287,102.4179 6.5807,103.7679 6.5807,105.4309 C6.5807,107.0959 7.9287,108.4429 9.5927,108.4429" id="Fill-1627"></path>
                <path d="M15.6174,108.4429 C17.2814,108.4429 18.6304,107.0959 18.6304,105.4309 C18.6304,103.7679 17.2814,102.4179 15.6174,102.4179 C13.9534,102.4179 12.6054,103.7679 12.6054,105.4309 C12.6054,107.0959 13.9534,108.4429 15.6174,108.4429" id="Fill-1629"></path>
                <path d="M21.642,108.4429 C23.306,108.4429 24.654,107.0959 24.654,105.4309 C24.654,103.7679 23.306,102.4179 21.642,102.4179 C19.978,102.4179 18.63,103.7679 18.63,105.4309 C18.63,107.0959 19.978,108.4429 21.642,108.4429" id="Fill-1631"></path>
                <path d="M27.6666,108.4429 C29.3306,108.4429 30.6786,107.0959 30.6786,105.4309 C30.6786,103.7679 29.3306,102.4179 27.6666,102.4179 C26.0026,102.4179 24.6536,103.7679 24.6536,105.4309 C24.6536,107.0959 26.0026,108.4429 27.6666,108.4429" id="Fill-1633"></path>
                <path d="M33.6912,108.4429 C35.3552,108.4429 36.7032,107.0959 36.7032,105.4309 C36.7032,103.7679 35.3552,102.4179 33.6912,102.4179 C32.0272,102.4179 30.6782,103.7679 30.6782,105.4309 C30.6782,107.0959 32.0272,108.4429 33.6912,108.4429" id="Fill-1635"></path>
                <path d="M39.7159,108.4429 C41.3799,108.4429 42.7279,107.0959 42.7279,105.4309 C42.7279,103.7679 41.3799,102.4179 39.7159,102.4179 C38.0519,102.4179 36.7029,103.7679 36.7029,105.4309 C36.7029,107.0959 38.0519,108.4429 39.7159,108.4429" id="Fill-1637"></path>
                <path d="M45.7405,108.4429 C47.4045,108.4429 48.7525,107.0959 48.7525,105.4309 C48.7525,103.7679 47.4045,102.4179 45.7405,102.4179 C44.0765,102.4179 42.7275,103.7679 42.7275,105.4309 C42.7275,107.0959 44.0765,108.4429 45.7405,108.4429" id="Fill-1639"></path>
                <path d="M51.7651,108.4429 C53.4291,108.4429 54.7771,107.0959 54.7771,105.4309 C54.7771,103.7679 53.4291,102.4179 51.7651,102.4179 C50.1011,102.4179 48.7521,103.7679 48.7521,105.4309 C48.7521,107.0959 50.1011,108.4429 51.7651,108.4429" id="Fill-1641"></path>
                <path d="M57.7896,108.4429 C59.4536,108.4429 60.8026,107.0959 60.8026,105.4309 C60.8026,103.7679 59.4536,102.4179 57.7896,102.4179 C56.1256,102.4179 54.7776,103.7679 54.7776,105.4309 C54.7776,107.0959 56.1256,108.4429 57.7896,108.4429" id="Fill-1643"></path>
                <path d="M63.8141,108.4429 C65.4781,108.4429 66.8271,107.0959 66.8271,105.4309 C66.8271,103.7679 65.4781,102.4179 63.8141,102.4179 C62.1501,102.4179 60.8021,103.7679 60.8021,105.4309 C60.8021,107.0959 62.1501,108.4429 63.8141,108.4429" id="Fill-1645"></path>
                <path d="M69.8388,108.4429 C71.5028,108.4429 72.8518,107.0959 72.8518,105.4309 C72.8518,103.7679 71.5028,102.4179 69.8388,102.4179 C68.1748,102.4179 66.8268,103.7679 66.8268,105.4309 C66.8268,107.0959 68.1748,108.4429 69.8388,108.4429" id="Fill-1647"></path>
                <path d="M75.8634,108.4429 C77.5274,108.4429 78.8754,107.0959 78.8754,105.4309 C78.8754,103.7679 77.5274,102.4179 75.8634,102.4179 C74.1994,102.4179 72.8514,103.7679 72.8514,105.4309 C72.8514,107.0959 74.1994,108.4429 75.8634,108.4429" id="Fill-1649"></path>
                <path d="M81.8881,108.4429 C83.5521,108.4429 84.9001,107.0959 84.9001,105.4309 C84.9001,103.7679 83.5521,102.4179 81.8881,102.4179 C80.2241,102.4179 78.8751,103.7679 78.8751,105.4309 C78.8751,107.0959 80.2241,108.4429 81.8881,108.4429" id="Fill-1651"></path>
                <path d="M87.9126,108.4429 C89.5766,108.4429 90.9246,107.0959 90.9246,105.4309 C90.9246,103.7679 89.5766,102.4179 87.9126,102.4179 C86.2486,102.4179 84.8996,103.7679 84.8996,105.4309 C84.8996,107.0959 86.2486,108.4429 87.9126,108.4429" id="Fill-1653"></path>
                <path d="M93.9372,108.4429 C95.6012,108.4429 96.9502,107.0959 96.9502,105.4309 C96.9502,103.7679 95.6012,102.4179 93.9372,102.4179 C92.2732,102.4179 90.9242,103.7679 90.9242,105.4309 C90.9242,107.0959 92.2732,108.4429 93.9372,108.4429" id="Fill-1655"></path>
                <path d="M99.9619,108.4429 C101.6259,108.4429 102.9739,107.0959 102.9739,105.4309 C102.9739,103.7679 101.6259,102.4179 99.9619,102.4179 C98.2979,102.4179 96.9499,103.7679 96.9499,105.4309 C96.9499,107.0959 98.2979,108.4429 99.9619,108.4429" id="Fill-1657"></path>
                <path d="M15.6174,114.4675 C17.2814,114.4675 18.6304,113.1205 18.6304,111.4555 C18.6304,109.7925 17.2814,108.4425 15.6174,108.4425 C13.9534,108.4425 12.6054,109.7925 12.6054,111.4555 C12.6054,113.1205 13.9534,114.4675 15.6174,114.4675" id="Fill-1659"></path>
                <path d="M21.642,114.4675 C23.306,114.4675 24.654,113.1205 24.654,111.4555 C24.654,109.7925 23.306,108.4425 21.642,108.4425 C19.978,108.4425 18.63,109.7925 18.63,111.4555 C18.63,113.1205 19.978,114.4675 21.642,114.4675" id="Fill-1661"></path>
                <path d="M27.6666,114.4675 C29.3306,114.4675 30.6786,113.1205 30.6786,111.4555 C30.6786,109.7925 29.3306,108.4425 27.6666,108.4425 C26.0026,108.4425 24.6536,109.7925 24.6536,111.4555 C24.6536,113.1205 26.0026,114.4675 27.6666,114.4675" id="Fill-1663"></path>
                <path d="M33.6912,114.4675 C35.3552,114.4675 36.7032,113.1205 36.7032,111.4555 C36.7032,109.7925 35.3552,108.4425 33.6912,108.4425 C32.0272,108.4425 30.6782,109.7925 30.6782,111.4555 C30.6782,113.1205 32.0272,114.4675 33.6912,114.4675" id="Fill-1665"></path>
                <path d="M39.7159,114.4675 C41.3799,114.4675 42.7279,113.1205 42.7279,111.4555 C42.7279,109.7925 41.3799,108.4425 39.7159,108.4425 C38.0519,108.4425 36.7029,109.7925 36.7029,111.4555 C36.7029,113.1205 38.0519,114.4675 39.7159,114.4675" id="Fill-1667"></path>
                <path d="M45.7405,114.4675 C47.4045,114.4675 48.7525,113.1205 48.7525,111.4555 C48.7525,109.7925 47.4045,108.4425 45.7405,108.4425 C44.0765,108.4425 42.7275,109.7925 42.7275,111.4555 C42.7275,113.1205 44.0765,114.4675 45.7405,114.4675" id="Fill-1669"></path>
                <path d="M51.7651,114.4675 C53.4291,114.4675 54.7771,113.1205 54.7771,111.4555 C54.7771,109.7925 53.4291,108.4425 51.7651,108.4425 C50.1011,108.4425 48.7521,109.7925 48.7521,111.4555 C48.7521,113.1205 50.1011,114.4675 51.7651,114.4675" id="Fill-1671"></path>
                <path d="M57.7896,114.4675 C59.4536,114.4675 60.8026,113.1205 60.8026,111.4555 C60.8026,109.7925 59.4536,108.4425 57.7896,108.4425 C56.1256,108.4425 54.7776,109.7925 54.7776,111.4555 C54.7776,113.1205 56.1256,114.4675 57.7896,114.4675" id="Fill-1673"></path>
                <path d="M63.8141,114.4675 C65.4781,114.4675 66.8271,113.1205 66.8271,111.4555 C66.8271,109.7925 65.4781,108.4425 63.8141,108.4425 C62.1501,108.4425 60.8021,109.7925 60.8021,111.4555 C60.8021,113.1205 62.1501,114.4675 63.8141,114.4675" id="Fill-1675"></path>
                <path d="M69.8388,114.4675 C71.5028,114.4675 72.8518,113.1205 72.8518,111.4555 C72.8518,109.7925 71.5028,108.4425 69.8388,108.4425 C68.1748,108.4425 66.8268,109.7925 66.8268,111.4555 C66.8268,113.1205 68.1748,114.4675 69.8388,114.4675" id="Fill-1677"></path>
                <path d="M75.8634,114.4675 C77.5274,114.4675 78.8754,113.1205 78.8754,111.4555 C78.8754,109.7925 77.5274,108.4425 75.8634,108.4425 C74.1994,108.4425 72.8514,109.7925 72.8514,111.4555 C72.8514,113.1205 74.1994,114.4675 75.8634,114.4675" id="Fill-1679"></path>
                <path d="M81.8881,114.4675 C83.5521,114.4675 84.9001,113.1205 84.9001,111.4555 C84.9001,109.7925 83.5521,108.4425 81.8881,108.4425 C80.2241,108.4425 78.8751,109.7925 78.8751,111.4555 C78.8751,113.1205 80.2241,114.4675 81.8881,114.4675" id="Fill-1681"></path>
                <path d="M87.9126,114.4675 C89.5766,114.4675 90.9246,113.1205 90.9246,111.4555 C90.9246,109.7925 89.5766,108.4425 87.9126,108.4425 C86.2486,108.4425 84.8996,109.7925 84.8996,111.4555 C84.8996,113.1205 86.2486,114.4675 87.9126,114.4675" id="Fill-1683"></path>
                <path d="M93.9372,114.4675 C95.6012,114.4675 96.9502,113.1205 96.9502,111.4555 C96.9502,109.7925 95.6012,108.4425 93.9372,108.4425 C92.2732,108.4425 90.9242,109.7925 90.9242,111.4555 C90.9242,113.1205 92.2732,114.4675 93.9372,114.4675" id="Fill-1685"></path>
                <path d="M21.642,120.4921 C23.306,120.4921 24.654,119.1451 24.654,117.4801 C24.654,115.8171 23.306,114.4671 21.642,114.4671 C19.978,114.4671 18.63,115.8171 18.63,117.4801 C18.63,119.1451 19.978,120.4921 21.642,120.4921" id="Fill-1687"></path>
                <path d="M27.6666,120.4921 C29.3306,120.4921 30.6786,119.1451 30.6786,117.4801 C30.6786,115.8171 29.3306,114.4671 27.6666,114.4671 C26.0026,114.4671 24.6536,115.8171 24.6536,117.4801 C24.6536,119.1451 26.0026,120.4921 27.6666,120.4921" id="Fill-1689"></path>
                <path d="M33.6912,120.4921 C35.3552,120.4921 36.7032,119.1451 36.7032,117.4801 C36.7032,115.8171 35.3552,114.4671 33.6912,114.4671 C32.0272,114.4671 30.6782,115.8171 30.6782,117.4801 C30.6782,119.1451 32.0272,120.4921 33.6912,120.4921" id="Fill-1691"></path>
                <path d="M39.7159,120.4921 C41.3799,120.4921 42.7279,119.1451 42.7279,117.4801 C42.7279,115.8171 41.3799,114.4671 39.7159,114.4671 C38.0519,114.4671 36.7029,115.8171 36.7029,117.4801 C36.7029,119.1451 38.0519,120.4921 39.7159,120.4921" id="Fill-1693"></path>
                <path d="M45.7405,120.4921 C47.4045,120.4921 48.7525,119.1451 48.7525,117.4801 C48.7525,115.8171 47.4045,114.4671 45.7405,114.4671 C44.0765,114.4671 42.7275,115.8171 42.7275,117.4801 C42.7275,119.1451 44.0765,120.4921 45.7405,120.4921" id="Fill-1695"></path>
                <path d="M51.7651,120.4921 C53.4291,120.4921 54.7771,119.1451 54.7771,117.4801 C54.7771,115.8171 53.4291,114.4671 51.7651,114.4671 C50.1011,114.4671 48.7521,115.8171 48.7521,117.4801 C48.7521,119.1451 50.1011,120.4921 51.7651,120.4921" id="Fill-1697"></path>
                <path d="M57.7896,120.4921 C59.4536,120.4921 60.8026,119.1451 60.8026,117.4801 C60.8026,115.8171 59.4536,114.4671 57.7896,114.4671 C56.1256,114.4671 54.7776,115.8171 54.7776,117.4801 C54.7776,119.1451 56.1256,120.4921 57.7896,120.4921" id="Fill-1699"></path>
                <path d="M63.8141,120.4921 C65.4781,120.4921 66.8271,119.1451 66.8271,117.4801 C66.8271,115.8171 65.4781,114.4671 63.8141,114.4671 C62.1501,114.4671 60.8021,115.8171 60.8021,117.4801 C60.8021,119.1451 62.1501,120.4921 63.8141,120.4921" id="Fill-1701"></path>
                <path d="M69.8388,120.4921 C71.5028,120.4921 72.8518,119.1451 72.8518,117.4801 C72.8518,115.8171 71.5028,114.4671 69.8388,114.4671 C68.1748,114.4671 66.8268,115.8171 66.8268,117.4801 C66.8268,119.1451 68.1748,120.4921 69.8388,120.4921" id="Fill-1703"></path>
                <path d="M75.8634,120.4921 C77.5274,120.4921 78.8754,119.1451 78.8754,117.4801 C78.8754,115.8171 77.5274,114.4671 75.8634,114.4671 C74.1994,114.4671 72.8514,115.8171 72.8514,117.4801 C72.8514,119.1451 74.1994,120.4921 75.8634,120.4921" id="Fill-1705"></path>
                <path d="M81.8881,120.4921 C83.5521,120.4921 84.9001,119.1451 84.9001,117.4801 C84.9001,115.8171 83.5521,114.4671 81.8881,114.4671 C80.2241,114.4671 78.8751,115.8171 78.8751,117.4801 C78.8751,119.1451 80.2241,120.4921 81.8881,120.4921" id="Fill-1707"></path>
                <path d="M87.9126,120.4921 C89.5766,120.4921 90.9246,119.1451 90.9246,117.4801 C90.9246,115.8171 89.5766,114.4671 87.9126,114.4671 C86.2486,114.4671 84.8996,115.8171 84.8996,117.4801 C84.8996,119.1451 86.2486,120.4921 87.9126,120.4921" id="Fill-1709"></path>
                <path d="M33.6912,126.5167 C35.3552,126.5167 36.7032,125.1697 36.7032,123.5047 C36.7032,121.8407 35.3552,120.4917 33.6912,120.4917 C32.0272,120.4917 30.6782,121.8407 30.6782,123.5047 C30.6782,125.1697 32.0272,126.5167 33.6912,126.5167" id="Fill-1711"></path>
                <path d="M39.7159,126.5167 C41.3799,126.5167 42.7279,125.1697 42.7279,123.5047 C42.7279,121.8407 41.3799,120.4917 39.7159,120.4917 C38.0519,120.4917 36.7029,121.8407 36.7029,123.5047 C36.7029,125.1697 38.0519,126.5167 39.7159,126.5167" id="Fill-1713"></path>
                <path d="M45.7405,126.5167 C47.4045,126.5167 48.7525,125.1697 48.7525,123.5047 C48.7525,121.8407 47.4045,120.4917 45.7405,120.4917 C44.0765,120.4917 42.7275,121.8407 42.7275,123.5047 C42.7275,125.1697 44.0765,126.5167 45.7405,126.5167" id="Fill-1715"></path>
                <path d="M51.7651,126.5167 C53.4291,126.5167 54.7771,125.1697 54.7771,123.5047 C54.7771,121.8407 53.4291,120.4917 51.7651,120.4917 C50.1011,120.4917 48.7521,121.8407 48.7521,123.5047 C48.7521,125.1697 50.1011,126.5167 51.7651,126.5167" id="Fill-1717"></path>
                <path d="M57.7896,126.5167 C59.4536,126.5167 60.8026,125.1697 60.8026,123.5047 C60.8026,121.8407 59.4536,120.4917 57.7896,120.4917 C56.1256,120.4917 54.7776,121.8407 54.7776,123.5047 C54.7776,125.1697 56.1256,126.5167 57.7896,126.5167" id="Fill-1719"></path>
                <path d="M63.8141,126.5167 C65.4781,126.5167 66.8271,125.1697 66.8271,123.5047 C66.8271,121.8407 65.4781,120.4917 63.8141,120.4917 C62.1501,120.4917 60.8021,121.8407 60.8021,123.5047 C60.8021,125.1697 62.1501,126.5167 63.8141,126.5167" id="Fill-1721"></path>
                <path d="M69.8388,126.5167 C71.5028,126.5167 72.8518,125.1697 72.8518,123.5047 C72.8518,121.8407 71.5028,120.4917 69.8388,120.4917 C68.1748,120.4917 66.8268,121.8407 66.8268,123.5047 C66.8268,125.1697 68.1748,126.5167 69.8388,126.5167" id="Fill-1723"></path>
                <path d="M75.8634,126.5167 C77.5274,126.5167 78.8754,125.1697 78.8754,123.5047 C78.8754,121.8407 77.5274,120.4917 75.8634,120.4917 C74.1994,120.4917 72.8514,121.8407 72.8514,123.5047 C72.8514,125.1697 74.1994,126.5167 75.8634,126.5167" id="Fill-1725"></path>
            </g>
        </g>
    </g>
</svg>