<?xml version="1.0" encoding="UTF-8"?>
<svg width="104px" height="127px" viewBox="0 0 104 127" version="1.1" xmlns="http://www.w3.org/2000/svg" xmlns:xlink="http://www.w3.org/1999/xlink">
    <!-- Generator: Sketch 49.3 (51167) - http://www.bohemiancoding.com/sketch -->
    <title>Group 2129</title>
    <desc>Created with Sketch.</desc>
    <defs></defs>
    <g id="Page-3" stroke="none" stroke-width="1" fill="none" fill-rule="evenodd">
        <g id="bs_microsite_IA17_1215px" transform="translate(-52.000000, -495.000000)" fill="#006DFF">
            <g id="Group-2129" transform="translate(52.000000, 494.500000)">
                <path d="M16.0464,6.5449 C17.7164,6.5449 19.0694,5.1909 19.0694,3.5219 C19.0694,1.8519 17.7164,0.4979 16.0464,0.4979 C14.3764,0.4979 13.0234,1.8519 13.0234,3.5219 C13.0234,5.1909 14.3764,6.5449 16.0464,6.5449" id="Fill-1739"></path>
                <path d="M70.1387,6.5449 C71.8087,6.5449 73.1617,5.1909 73.1617,3.5219 C73.1617,1.8519 71.8087,0.4979 70.1387,0.4979 C68.4687,0.4979 67.1157,1.8519 67.1157,3.5219 C67.1157,5.1909 68.4687,6.5449 70.1387,6.5449" id="Fill-1741"></path>
                <path d="M64.0924,6.5449 C65.7624,6.5449 67.1154,5.1909 67.1154,3.5219 C67.1154,1.8519 65.7624,0.4979 64.0924,0.4979 C62.4224,0.4979 61.0694,1.8519 61.0694,3.5219 C61.0694,5.1909 62.4224,6.5449 64.0924,6.5449" id="Fill-1743"></path>
                <path d="M58.0462,6.5449 C59.7162,6.5449 61.0692,5.1909 61.0692,3.5219 C61.0692,1.8519 59.7162,0.4979 58.0462,0.4979 C56.3762,0.4979 55.0232,1.8519 55.0232,3.5219 C55.0232,5.1909 56.3762,6.5449 58.0462,6.5449" id="Fill-1745"></path>
                <path d="M52,6.5449 C53.67,6.5449 55.023,5.1909 55.023,3.5219 C55.023,1.8519 53.67,0.4979 52,0.4979 C50.33,0.4979 48.977,1.8519 48.977,3.5219 C48.977,5.1909 50.33,6.5449 52,6.5449" id="Fill-1747"></path>
                <path d="M22.0926,6.5449 C23.7626,6.5449 25.1156,5.1909 25.1156,3.5219 C25.1156,1.8519 23.7626,0.4979 22.0926,0.4979 C20.4226,0.4979 19.0696,1.8519 19.0696,3.5219 C19.0696,5.1909 20.4226,6.5449 22.0926,6.5449" id="Fill-1749"></path>
                <path d="M76.1849,6.5449 C77.8549,6.5449 79.2079,5.1909 79.2079,3.5219 C79.2079,1.8519 77.8549,0.4979 76.1849,0.4979 C74.5149,0.4979 73.1619,1.8519 73.1619,3.5219 C73.1619,5.1909 74.5149,6.5449 76.1849,6.5449" id="Fill-1751"></path>
                <path d="M28.1388,6.5449 C29.8088,6.5449 31.1618,5.1909 31.1618,3.5219 C31.1618,1.8519 29.8088,0.4979 28.1388,0.4979 C26.4688,0.4979 25.1158,1.8519 25.1158,3.5219 C25.1158,5.1909 26.4688,6.5449 28.1388,6.5449" id="Fill-1753"></path>
                <path d="M82.2311,6.5449 C83.9011,6.5449 85.2541,5.1909 85.2541,3.5219 C85.2541,1.8519 83.9011,0.4979 82.2311,0.4979 C80.5611,0.4979 79.2081,1.8519 79.2081,3.5219 C79.2081,5.1909 80.5611,6.5449 82.2311,6.5449" id="Fill-1755"></path>
                <path d="M33.8613,12.5918 C35.5313,12.5918 36.8843,11.2378 36.8843,9.5688 C36.8843,7.8988 35.5313,6.5448 33.8613,6.5448 C32.1913,6.5448 30.8383,7.8988 30.8383,9.5688 C30.8383,11.2378 32.1913,12.5918 33.8613,12.5918" id="Fill-1757"></path>
                <path d="M28.1388,12.5918 C29.8088,12.5918 31.1618,11.2378 31.1618,9.5688 C31.1618,7.8988 29.8088,6.5448 28.1388,6.5448 C26.4688,6.5448 25.1158,7.8988 25.1158,9.5688 C25.1158,11.2378 26.4688,12.5918 28.1388,12.5918" id="Fill-1759"></path>
                <path d="M33.8613,6.5449 C35.5313,6.5449 36.8843,5.1909 36.8843,3.5219 C36.8843,1.8519 35.5313,0.4979 33.8613,0.4979 C32.1913,0.4979 30.8383,1.8519 30.8383,3.5219 C30.8383,5.1909 32.1913,6.5449 33.8613,6.5449" id="Fill-1761"></path>
                <path d="M87.9536,12.5918 C89.6236,12.5918 90.9766,11.2378 90.9766,9.5688 C90.9766,7.8988 89.6236,6.5448 87.9536,6.5448 C86.2836,6.5448 84.9306,7.8988 84.9306,9.5688 C84.9306,11.2378 86.2836,12.5918 87.9536,12.5918" id="Fill-1763"></path>
                <path d="M70.1387,12.5918 C71.8087,12.5918 73.1617,11.2378 73.1617,9.5688 C73.1617,7.8988 71.8087,6.5448 70.1387,6.5448 C68.4687,6.5448 67.1157,7.8988 67.1157,9.5688 C67.1157,11.2378 68.4687,12.5918 70.1387,12.5918" id="Fill-1765"></path>
                <path d="M64.0924,12.5918 C65.7624,12.5918 67.1154,11.2378 67.1154,9.5688 C67.1154,7.8988 65.7624,6.5448 64.0924,6.5448 C62.4224,6.5448 61.0694,7.8988 61.0694,9.5688 C61.0694,11.2378 62.4224,12.5918 64.0924,12.5918" id="Fill-1767"></path>
                <path d="M10.0001,12.5918 C11.6701,12.5918 13.0231,11.2378 13.0231,9.5688 C13.0231,7.8988 11.6701,6.5448 10.0001,6.5448 C8.3301,6.5448 6.9771,7.8988 6.9771,9.5688 C6.9771,11.2378 8.3301,12.5918 10.0001,12.5918" id="Fill-1769"></path>
                <path d="M16.0464,12.5918 C17.7164,12.5918 19.0694,11.2378 19.0694,9.5688 C19.0694,7.8988 17.7164,6.5448 16.0464,6.5448 C14.3764,6.5448 13.0234,7.8988 13.0234,9.5688 C13.0234,11.2378 14.3764,12.5918 16.0464,12.5918" id="Fill-1771"></path>
                <path d="M39.9075,12.5918 C41.5775,12.5918 42.9305,11.2378 42.9305,9.5688 C42.9305,7.8988 41.5775,6.5448 39.9075,6.5448 C38.2375,6.5448 36.8845,7.8988 36.8845,9.5688 C36.8845,11.2378 38.2375,12.5918 39.9075,12.5918" id="Fill-1773"></path>
                <path d="M45.9538,12.5918 C47.6238,12.5918 48.9768,11.2378 48.9768,9.5688 C48.9768,7.8988 47.6238,6.5448 45.9538,6.5448 C44.2838,6.5448 42.9308,7.8988 42.9308,9.5688 C42.9308,11.2378 44.2838,12.5918 45.9538,12.5918" id="Fill-1775"></path>
                <path d="M52,12.5918 C53.67,12.5918 55.023,11.2378 55.023,9.5688 C55.023,7.8988 53.67,6.5448 52,6.5448 C50.33,6.5448 48.977,7.8988 48.977,9.5688 C48.977,11.2378 50.33,12.5918 52,12.5918" id="Fill-1777"></path>
                <path d="M45.9538,6.5449 C47.6238,6.5449 48.9768,5.1909 48.9768,3.5219 C48.9768,1.8519 47.6238,0.4979 45.9538,0.4979 C44.2838,0.4979 42.9308,1.8519 42.9308,3.5219 C42.9308,5.1909 44.2838,6.5449 45.9538,6.5449" id="Fill-1779"></path>
                <path d="M76.1849,12.5918 C77.8549,12.5918 79.2079,11.2378 79.2079,9.5688 C79.2079,7.8988 77.8549,6.5448 76.1849,6.5448 C74.5149,6.5448 73.1619,7.8988 73.1619,9.5688 C73.1619,11.2378 74.5149,12.5918 76.1849,12.5918" id="Fill-1781"></path>
                <path d="M33.8613,18.6387 C35.5313,18.6387 36.8843,17.2847 36.8843,15.6157 C36.8843,13.9457 35.5313,12.5917 33.8613,12.5917 C32.1913,12.5917 30.8383,13.9457 30.8383,15.6157 C30.8383,17.2847 32.1913,18.6387 33.8613,18.6387" id="Fill-1783"></path>
                <path d="M87.9536,18.6387 C89.6236,18.6387 90.9766,17.2847 90.9766,15.6157 C90.9766,13.9457 89.6236,12.5917 87.9536,12.5917 C86.2836,12.5917 84.9306,13.9457 84.9306,15.6157 C84.9306,17.2847 86.2836,18.6387 87.9536,18.6387" id="Fill-1785"></path>
                <path d="M16.0464,18.6387 C17.7164,18.6387 19.0694,17.2847 19.0694,15.6157 C19.0694,13.9457 17.7164,12.5917 16.0464,12.5917 C14.3764,12.5917 13.0234,13.9457 13.0234,15.6157 C13.0234,17.2847 14.3764,18.6387 16.0464,18.6387" id="Fill-1787"></path>
                <path d="M70.1387,18.6387 C71.8087,18.6387 73.1617,17.2847 73.1617,15.6157 C73.1617,13.9457 71.8087,12.5917 70.1387,12.5917 C68.4687,12.5917 67.1157,13.9457 67.1157,15.6157 C67.1157,17.2847 68.4687,18.6387 70.1387,18.6387" id="Fill-1789"></path>
                <path d="M10.0001,18.6387 C11.6701,18.6387 13.0231,17.2847 13.0231,15.6157 C13.0231,13.9457 11.6701,12.5917 10.0001,12.5917 C8.3301,12.5917 6.9771,13.9457 6.9771,15.6157 C6.9771,17.2847 8.3301,18.6387 10.0001,18.6387" id="Fill-1791"></path>
                <path d="M64.0924,18.6387 C65.7624,18.6387 67.1154,17.2847 67.1154,15.6157 C67.1154,13.9457 65.7624,12.5917 64.0924,12.5917 C62.4224,12.5917 61.0694,13.9457 61.0694,15.6157 C61.0694,17.2847 62.4224,18.6387 64.0924,18.6387" id="Fill-1793"></path>
                <path d="M58.0462,18.6387 C59.7162,18.6387 61.0692,17.2847 61.0692,15.6157 C61.0692,13.9457 59.7162,12.5917 58.0462,12.5917 C56.3762,12.5917 55.0232,13.9457 55.0232,15.6157 C55.0232,17.2847 56.3762,18.6387 58.0462,18.6387" id="Fill-1795"></path>
                <path d="M39.9075,18.6387 C41.5775,18.6387 42.9305,17.2847 42.9305,15.6157 C42.9305,13.9457 41.5775,12.5917 39.9075,12.5917 C38.2375,12.5917 36.8845,13.9457 36.8845,15.6157 C36.8845,17.2847 38.2375,18.6387 39.9075,18.6387" id="Fill-1797"></path>
                <path d="M45.9538,18.6387 C47.6238,18.6387 48.9768,17.2847 48.9768,15.6157 C48.9768,13.9457 47.6238,12.5917 45.9538,12.5917 C44.2838,12.5917 42.9308,13.9457 42.9308,15.6157 C42.9308,17.2847 44.2838,18.6387 45.9538,18.6387" id="Fill-1799"></path>
                <path d="M52,18.6387 C53.67,18.6387 55.023,17.2847 55.023,15.6157 C55.023,13.9457 53.67,12.5917 52,12.5917 C50.33,12.5917 48.977,13.9457 48.977,15.6157 C48.977,17.2847 50.33,18.6387 52,18.6387" id="Fill-1801"></path>
                <path d="M22.0926,18.6387 C23.7626,18.6387 25.1156,17.2847 25.1156,15.6157 C25.1156,13.9457 23.7626,12.5917 22.0926,12.5917 C20.4226,12.5917 19.0696,13.9457 19.0696,15.6157 C19.0696,17.2847 20.4226,18.6387 22.0926,18.6387" id="Fill-1803"></path>
                <path d="M76.1849,18.6387 C77.8549,18.6387 79.2079,17.2847 79.2079,15.6157 C79.2079,13.9457 77.8549,12.5917 76.1849,12.5917 C74.5149,12.5917 73.1619,13.9457 73.1619,15.6157 C73.1619,17.2847 74.5149,18.6387 76.1849,18.6387" id="Fill-1805"></path>
                <path d="M28.1388,18.6387 C29.8088,18.6387 31.1618,17.2847 31.1618,15.6157 C31.1618,13.9457 29.8088,12.5917 28.1388,12.5917 C26.4688,12.5917 25.1158,13.9457 25.1158,15.6157 C25.1158,17.2847 26.4688,18.6387 28.1388,18.6387" id="Fill-1807"></path>
                <path d="M82.2311,18.6387 C83.9011,18.6387 85.2541,17.2847 85.2541,15.6157 C85.2541,13.9457 83.9011,12.5917 82.2311,12.5917 C80.5611,12.5917 79.2081,13.9457 79.2081,15.6157 C79.2081,17.2847 80.5611,18.6387 82.2311,18.6387" id="Fill-1809"></path>
                <path d="M33.8613,24.6836 C35.5313,24.6836 36.8843,23.3296 36.8843,21.6606 C36.8843,19.9906 35.5313,18.6366 33.8613,18.6366 C32.1913,18.6366 30.8383,19.9906 30.8383,21.6606 C30.8383,23.3296 32.1913,24.6836 33.8613,24.6836" id="Fill-1811"></path>
                <path d="M87.9536,24.6836 C89.6236,24.6836 90.9766,23.3296 90.9766,21.6606 C90.9766,19.9906 89.6236,18.6366 87.9536,18.6366 C86.2836,18.6366 84.9306,19.9906 84.9306,21.6606 C84.9306,23.3296 86.2836,24.6836 87.9536,24.6836" id="Fill-1813"></path>
                <path d="M16.0464,24.6836 C17.7164,24.6836 19.0694,23.3296 19.0694,21.6606 C19.0694,19.9906 17.7164,18.6366 16.0464,18.6366 C14.3764,18.6366 13.0234,19.9906 13.0234,21.6606 C13.0234,23.3296 14.3764,24.6836 16.0464,24.6836" id="Fill-1815"></path>
                <path d="M22.0926,24.6836 C23.7626,24.6836 25.1156,23.3296 25.1156,21.6606 C25.1156,19.9906 23.7626,18.6366 22.0926,18.6366 C20.4226,18.6366 19.0696,19.9906 19.0696,21.6606 C19.0696,23.3296 20.4226,24.6836 22.0926,24.6836" id="Fill-1817"></path>
                <path d="M70.1387,24.6836 C71.8087,24.6836 73.1617,23.3296 73.1617,21.6606 C73.1617,19.9906 71.8087,18.6366 70.1387,18.6366 C68.4687,18.6366 67.1157,19.9906 67.1157,21.6606 C67.1157,23.3296 68.4687,24.6836 70.1387,24.6836" id="Fill-1819"></path>
                <path d="M64.0924,24.6836 C65.7624,24.6836 67.1154,23.3296 67.1154,21.6606 C67.1154,19.9906 65.7624,18.6366 64.0924,18.6366 C62.4224,18.6366 61.0694,19.9906 61.0694,21.6606 C61.0694,23.3296 62.4224,24.6836 64.0924,24.6836" id="Fill-1821"></path>
                <path d="M58.0462,24.6836 C59.7162,24.6836 61.0692,23.3296 61.0692,21.6606 C61.0692,19.9906 59.7162,18.6366 58.0462,18.6366 C56.3762,18.6366 55.0232,19.9906 55.0232,21.6606 C55.0232,23.3296 56.3762,24.6836 58.0462,24.6836" id="Fill-1823"></path>
                <path d="M39.9075,24.6836 C41.5775,24.6836 42.9305,23.3296 42.9305,21.6606 C42.9305,19.9906 41.5775,18.6366 39.9075,18.6366 C38.2375,18.6366 36.8845,19.9906 36.8845,21.6606 C36.8845,23.3296 38.2375,24.6836 39.9075,24.6836" id="Fill-1825"></path>
                <path d="M45.9538,24.6836 C47.6238,24.6836 48.9768,23.3296 48.9768,21.6606 C48.9768,19.9906 47.6238,18.6366 45.9538,18.6366 C44.2838,18.6366 42.9308,19.9906 42.9308,21.6606 C42.9308,23.3296 44.2838,24.6836 45.9538,24.6836" id="Fill-1827"></path>
                <path d="M82.2311,24.6836 C83.9011,24.6836 85.2541,23.3296 85.2541,21.6606 C85.2541,19.9906 83.9011,18.6366 82.2311,18.6366 C80.5611,18.6366 79.2081,19.9906 79.2081,21.6606 C79.2081,23.3296 80.5611,24.6836 82.2311,24.6836" id="Fill-1829"></path>
                <path d="M33.8613,30.7305 C35.5313,30.7305 36.8843,29.3765 36.8843,27.7075 C36.8843,26.0375 35.5313,24.6835 33.8613,24.6835 C32.1913,24.6835 30.8383,26.0375 30.8383,27.7075 C30.8383,29.3765 32.1913,30.7305 33.8613,30.7305" id="Fill-1831"></path>
                <path d="M16.0464,30.7305 C17.7164,30.7305 19.0694,29.3765 19.0694,27.7075 C19.0694,26.0375 17.7164,24.6835 16.0464,24.6835 C14.3764,24.6835 13.0234,26.0375 13.0234,27.7075 C13.0234,29.3765 14.3764,30.7305 16.0464,30.7305" id="Fill-1833"></path>
                <path d="M10.0001,30.7305 C11.6701,30.7305 13.0231,29.3765 13.0231,27.7075 C13.0231,26.0375 11.6701,24.6835 10.0001,24.6835 C8.3301,24.6835 6.9771,26.0375 6.9771,27.7075 C6.9771,29.3765 8.3301,30.7305 10.0001,30.7305" id="Fill-1835"></path>
                <path d="M22.0926,30.7305 C23.7626,30.7305 25.1156,29.3765 25.1156,27.7075 C25.1156,26.0375 23.7626,24.6835 22.0926,24.6835 C20.4226,24.6835 19.0696,26.0375 19.0696,27.7075 C19.0696,29.3765 20.4226,30.7305 22.0926,30.7305" id="Fill-1837"></path>
                <path d="M28.1388,30.7305 C29.8088,30.7305 31.1618,29.3765 31.1618,27.7075 C31.1618,26.0375 29.8088,24.6835 28.1388,24.6835 C26.4688,24.6835 25.1158,26.0375 25.1158,27.7075 C25.1158,29.3765 26.4688,30.7305 28.1388,30.7305" id="Fill-1839"></path>
                <path d="M33.8613,36.7773 C35.5313,36.7773 36.8843,35.4233 36.8843,33.7543 C36.8843,32.0843 35.5313,30.7303 33.8613,30.7303 C32.1913,30.7303 30.8383,32.0843 30.8383,33.7543 C30.8383,35.4233 32.1913,36.7773 33.8613,36.7773" id="Fill-1841"></path>
                <path d="M10.0001,36.7773 C11.6701,36.7773 13.0231,35.4233 13.0231,33.7543 C13.0231,32.0843 11.6701,30.7303 10.0001,30.7303 C8.3301,30.7303 6.9771,32.0843 6.9771,33.7543 C6.9771,35.4233 8.3301,36.7773 10.0001,36.7773" id="Fill-1843"></path>
                <path d="M28.1388,36.7773 C29.8088,36.7773 31.1618,35.4233 31.1618,33.7543 C31.1618,32.0843 29.8088,30.7303 28.1388,30.7303 C26.4688,30.7303 25.1158,32.0843 25.1158,33.7543 C25.1158,35.4233 26.4688,36.7773 28.1388,36.7773" id="Fill-1845"></path>
                <path d="M22.0926,36.7773 C23.7626,36.7773 25.1156,35.4233 25.1156,33.7543 C25.1156,32.0843 23.7626,30.7303 22.0926,30.7303 C20.4226,30.7303 19.0696,32.0843 19.0696,33.7543 C19.0696,35.4233 20.4226,36.7773 22.0926,36.7773" id="Fill-1847"></path>
                <path d="M33.8613,42.8223 C35.5313,42.8223 36.8843,41.4683 36.8843,39.7993 C36.8843,38.1293 35.5313,36.7753 33.8613,36.7753 C32.1913,36.7753 30.8383,38.1293 30.8383,39.7993 C30.8383,41.4683 32.1913,42.8223 33.8613,42.8223" id="Fill-1849"></path>
                <path d="M16.0464,42.8223 C17.7164,42.8223 19.0694,41.4683 19.0694,39.7993 C19.0694,38.1293 17.7164,36.7753 16.0464,36.7753 C14.3764,36.7753 13.0234,38.1293 13.0234,39.7993 C13.0234,41.4683 14.3764,42.8223 16.0464,42.8223" id="Fill-1851"></path>
                <path d="M10.0001,42.8223 C11.6701,42.8223 13.0231,41.4683 13.0231,39.7993 C13.0231,38.1293 11.6701,36.7753 10.0001,36.7753 C8.3301,36.7753 6.9771,38.1293 6.9771,39.7993 C6.9771,41.4683 8.3301,42.8223 10.0001,42.8223" id="Fill-1853"></path>
                <path d="M22.0926,42.8223 C23.7626,42.8223 25.1156,41.4683 25.1156,39.7993 C25.1156,38.1293 23.7626,36.7753 22.0926,36.7753 C20.4226,36.7753 19.0696,38.1293 19.0696,39.7993 C19.0696,41.4683 20.4226,42.8223 22.0926,42.8223" id="Fill-1855"></path>
                <path d="M33.8613,48.8691 C35.5313,48.8691 36.8843,47.5151 36.8843,45.8461 C36.8843,44.1761 35.5313,42.8221 33.8613,42.8221 C32.1913,42.8221 30.8383,44.1761 30.8383,45.8461 C30.8383,47.5151 32.1913,48.8691 33.8613,48.8691" id="Fill-1857"></path>
                <path d="M16.0464,48.8691 C17.7164,48.8691 19.0694,47.5151 19.0694,45.8461 C19.0694,44.1761 17.7164,42.8221 16.0464,42.8221 C14.3764,42.8221 13.0234,44.1761 13.0234,45.8461 C13.0234,47.5151 14.3764,48.8691 16.0464,48.8691" id="Fill-1859"></path>
                <path d="M22.0926,48.8691 C23.7626,48.8691 25.1156,47.5151 25.1156,45.8461 C25.1156,44.1761 23.7626,42.8221 22.0926,42.8221 C20.4226,42.8221 19.0696,44.1761 19.0696,45.8461 C19.0696,47.5151 20.4226,48.8691 22.0926,48.8691" id="Fill-1861"></path>
                <path d="M28.1388,48.8691 C29.8088,48.8691 31.1618,47.5151 31.1618,45.8461 C31.1618,44.1761 29.8088,42.8221 28.1388,42.8221 C26.4688,42.8221 25.1158,44.1761 25.1158,45.8461 C25.1158,47.5151 26.4688,48.8691 28.1388,48.8691" id="Fill-1863"></path>
                <path d="M33.8613,54.916 C35.5313,54.916 36.8843,53.562 36.8843,51.893 C36.8843,50.223 35.5313,48.869 33.8613,48.869 C32.1913,48.869 30.8383,50.223 30.8383,51.893 C30.8383,53.562 32.1913,54.916 33.8613,54.916" id="Fill-1865"></path>
                <path d="M70.1387,54.916 C71.8087,54.916 73.1617,53.562 73.1617,51.893 C73.1617,50.223 71.8087,48.869 70.1387,48.869 C68.4687,48.869 67.1157,50.223 67.1157,51.893 C67.1157,53.562 68.4687,54.916 70.1387,54.916" id="Fill-1867"></path>
                <path d="M10.0001,54.916 C11.6701,54.916 13.0231,53.562 13.0231,51.893 C13.0231,50.223 11.6701,48.869 10.0001,48.869 C8.3301,48.869 6.9771,50.223 6.9771,51.893 C6.9771,53.562 8.3301,54.916 10.0001,54.916" id="Fill-1869"></path>
                <path d="M64.0924,54.916 C65.7624,54.916 67.1154,53.562 67.1154,51.893 C67.1154,50.223 65.7624,48.869 64.0924,48.869 C62.4224,48.869 61.0694,50.223 61.0694,51.893 C61.0694,53.562 62.4224,54.916 64.0924,54.916" id="Fill-1871"></path>
                <path d="M39.9075,54.916 C41.5775,54.916 42.9305,53.562 42.9305,51.893 C42.9305,50.223 41.5775,48.869 39.9075,48.869 C38.2375,48.869 36.8845,50.223 36.8845,51.893 C36.8845,53.562 38.2375,54.916 39.9075,54.916" id="Fill-1873"></path>
                <path d="M45.9538,54.916 C47.6238,54.916 48.9768,53.562 48.9768,51.893 C48.9768,50.223 47.6238,48.869 45.9538,48.869 C44.2838,48.869 42.9308,50.223 42.9308,51.893 C42.9308,53.562 44.2838,54.916 45.9538,54.916" id="Fill-1875"></path>
                <path d="M52,54.916 C53.67,54.916 55.023,53.562 55.023,51.893 C55.023,50.223 53.67,48.869 52,48.869 C50.33,48.869 48.977,50.223 48.977,51.893 C48.977,53.562 50.33,54.916 52,54.916" id="Fill-1877"></path>
                <path d="M22.0926,54.916 C23.7626,54.916 25.1156,53.562 25.1156,51.893 C25.1156,50.223 23.7626,48.869 22.0926,48.869 C20.4226,48.869 19.0696,50.223 19.0696,51.893 C19.0696,53.562 20.4226,54.916 22.0926,54.916" id="Fill-1879"></path>
                <path d="M76.1849,54.916 C77.8549,54.916 79.2079,53.562 79.2079,51.893 C79.2079,50.223 77.8549,48.869 76.1849,48.869 C74.5149,48.869 73.1619,50.223 73.1619,51.893 C73.1619,53.562 74.5149,54.916 76.1849,54.916" id="Fill-1881"></path>
                <path d="M28.1388,54.916 C29.8088,54.916 31.1618,53.562 31.1618,51.893 C31.1618,50.223 29.8088,48.869 28.1388,48.869 C26.4688,48.869 25.1158,50.223 25.1158,51.893 C25.1158,53.562 26.4688,54.916 28.1388,54.916" id="Fill-1883"></path>
                <path d="M82.2311,54.916 C83.9011,54.916 85.2541,53.562 85.2541,51.893 C85.2541,50.223 83.9011,48.869 82.2311,48.869 C80.5611,48.869 79.2081,50.223 79.2081,51.893 C79.2081,53.562 80.5611,54.916 82.2311,54.916" id="Fill-1885"></path>
                <path d="M33.8613,60.9609 C35.5313,60.9609 36.8843,59.6069 36.8843,57.9379 C36.8843,56.2679 35.5313,54.9139 33.8613,54.9139 C32.1913,54.9139 30.8383,56.2679 30.8383,57.9379 C30.8383,59.6069 32.1913,60.9609 33.8613,60.9609" id="Fill-1887"></path>
                <path d="M39.9075,60.9609 C41.5775,60.9609 42.9305,59.6069 42.9305,57.9379 C42.9305,56.2679 41.5775,54.9139 39.9075,54.9139 C38.2375,54.9139 36.8845,56.2679 36.8845,57.9379 C36.8845,59.6069 38.2375,60.9609 39.9075,60.9609" id="Fill-1889"></path>
                <path d="M87.9536,60.9609 C89.6236,60.9609 90.9766,59.6069 90.9766,57.9379 C90.9766,56.2679 89.6236,54.9139 87.9536,54.9139 C86.2836,54.9139 84.9306,56.2679 84.9306,57.9379 C84.9306,59.6069 86.2836,60.9609 87.9536,60.9609" id="Fill-1891"></path>
                <path d="M93.9998,60.9609 C95.6698,60.9609 97.0228,59.6069 97.0228,57.9379 C97.0228,56.2679 95.6698,54.9139 93.9998,54.9139 C92.3298,54.9139 90.9768,56.2679 90.9768,57.9379 C90.9768,59.6069 92.3298,60.9609 93.9998,60.9609" id="Fill-1893"></path>
                <path d="M16.0464,60.9609 C17.7164,60.9609 19.0694,59.6069 19.0694,57.9379 C19.0694,56.2679 17.7164,54.9139 16.0464,54.9139 C14.3764,54.9139 13.0234,56.2679 13.0234,57.9379 C13.0234,59.6069 14.3764,60.9609 16.0464,60.9609" id="Fill-1895"></path>
                <path d="M70.1387,60.9609 C71.8087,60.9609 73.1617,59.6069 73.1617,57.9379 C73.1617,56.2679 71.8087,54.9139 70.1387,54.9139 C68.4687,54.9139 67.1157,56.2679 67.1157,57.9379 C67.1157,59.6069 68.4687,60.9609 70.1387,60.9609" id="Fill-1897"></path>
                <path d="M10.0001,60.9609 C11.6701,60.9609 13.0231,59.6069 13.0231,57.9379 C13.0231,56.2679 11.6701,54.9139 10.0001,54.9139 C8.3301,54.9139 6.9771,56.2679 6.9771,57.9379 C6.9771,59.6069 8.3301,60.9609 10.0001,60.9609" id="Fill-1899"></path>
                <path d="M64.0924,60.9609 C65.7624,60.9609 67.1154,59.6069 67.1154,57.9379 C67.1154,56.2679 65.7624,54.9139 64.0924,54.9139 C62.4224,54.9139 61.0694,56.2679 61.0694,57.9379 C61.0694,59.6069 62.4224,60.9609 64.0924,60.9609" id="Fill-1901"></path>
                <path d="M58.0462,60.9609 C59.7162,60.9609 61.0692,59.6069 61.0692,57.9379 C61.0692,56.2679 59.7162,54.9139 58.0462,54.9139 C56.3762,54.9139 55.0232,56.2679 55.0232,57.9379 C55.0232,59.6069 56.3762,60.9609 58.0462,60.9609" id="Fill-1903"></path>
                <path d="M52,60.9609 C53.67,60.9609 55.023,59.6069 55.023,57.9379 C55.023,56.2679 53.67,54.9139 52,54.9139 C50.33,54.9139 48.977,56.2679 48.977,57.9379 C48.977,59.6069 50.33,60.9609 52,60.9609" id="Fill-1905"></path>
                <path d="M22.0926,60.9609 C23.7626,60.9609 25.1156,59.6069 25.1156,57.9379 C25.1156,56.2679 23.7626,54.9139 22.0926,54.9139 C20.4226,54.9139 19.0696,56.2679 19.0696,57.9379 C19.0696,59.6069 20.4226,60.9609 22.0926,60.9609" id="Fill-1907"></path>
                <path d="M28.1388,60.9609 C29.8088,60.9609 31.1618,59.6069 31.1618,57.9379 C31.1618,56.2679 29.8088,54.9139 28.1388,54.9139 C26.4688,54.9139 25.1158,56.2679 25.1158,57.9379 C25.1158,59.6069 26.4688,60.9609 28.1388,60.9609" id="Fill-1909"></path>
                <path d="M82.2311,60.9609 C83.9011,60.9609 85.2541,59.6069 85.2541,57.9379 C85.2541,56.2679 83.9011,54.9139 82.2311,54.9139 C80.5611,54.9139 79.2081,56.2679 79.2081,57.9379 C79.2081,59.6069 80.5611,60.9609 82.2311,60.9609" id="Fill-1911"></path>
                <path d="M33.8613,67.0078 C35.5313,67.0078 36.8843,65.6538 36.8843,63.9848 C36.8843,62.3148 35.5313,60.9608 33.8613,60.9608 C32.1913,60.9608 30.8383,62.3148 30.8383,63.9848 C30.8383,65.6538 32.1913,67.0078 33.8613,67.0078" id="Fill-1913"></path>
                <path d="M28.1388,67.0078 C29.8088,67.0078 31.1618,65.6538 31.1618,63.9848 C31.1618,62.3148 29.8088,60.9608 28.1388,60.9608 C26.4688,60.9608 25.1158,62.3148 25.1158,63.9848 C25.1158,65.6538 26.4688,67.0078 28.1388,67.0078" id="Fill-1915"></path>
                <path d="M16.0464,67.0078 C17.7164,67.0078 19.0694,65.6538 19.0694,63.9848 C19.0694,62.3148 17.7164,60.9608 16.0464,60.9608 C14.3764,60.9608 13.0234,62.3148 13.0234,63.9848 C13.0234,65.6538 14.3764,67.0078 16.0464,67.0078" id="Fill-1917"></path>
                <path d="M10.0001,67.0078 C11.6701,67.0078 13.0231,65.6538 13.0231,63.9848 C13.0231,62.3148 11.6701,60.9608 10.0001,60.9608 C8.3301,60.9608 6.9771,62.3148 6.9771,63.9848 C6.9771,65.6538 8.3301,67.0078 10.0001,67.0078" id="Fill-1919"></path>
                <path d="M58.0462,67.0078 C59.7162,67.0078 61.0692,65.6538 61.0692,63.9848 C61.0692,62.3148 59.7162,60.9608 58.0462,60.9608 C56.3762,60.9608 55.0232,62.3148 55.0232,63.9848 C55.0232,65.6538 56.3762,67.0078 58.0462,67.0078" id="Fill-1921"></path>
                <path d="M39.9075,67.0078 C41.5775,67.0078 42.9305,65.6538 42.9305,63.9848 C42.9305,62.3148 41.5775,60.9608 39.9075,60.9608 C38.2375,60.9608 36.8845,62.3148 36.8845,63.9848 C36.8845,65.6538 38.2375,67.0078 39.9075,67.0078" id="Fill-1923"></path>
                <path d="M93.9998,67.0078 C95.6698,67.0078 97.0228,65.6538 97.0228,63.9848 C97.0228,62.3148 95.6698,60.9608 93.9998,60.9608 C92.3298,60.9608 90.9768,62.3148 90.9768,63.9848 C90.9768,65.6538 92.3298,67.0078 93.9998,67.0078" id="Fill-1925"></path>
                <path d="M45.9538,67.0078 C47.6238,67.0078 48.9768,65.6538 48.9768,63.9848 C48.9768,62.3148 47.6238,60.9608 45.9538,60.9608 C44.2838,60.9608 42.9308,62.3148 42.9308,63.9848 C42.9308,65.6538 44.2838,67.0078 45.9538,67.0078" id="Fill-1927"></path>
                <path d="M52,67.0078 C53.67,67.0078 55.023,65.6538 55.023,63.9848 C55.023,62.3148 53.67,60.9608 52,60.9608 C50.33,60.9608 48.977,62.3148 48.977,63.9848 C48.977,65.6538 50.33,67.0078 52,67.0078" id="Fill-1929"></path>
                <path d="M76.1849,67.0078 C77.8549,67.0078 79.2079,65.6538 79.2079,63.9848 C79.2079,62.3148 77.8549,60.9608 76.1849,60.9608 C74.5149,60.9608 73.1619,62.3148 73.1619,63.9848 C73.1619,65.6538 74.5149,67.0078 76.1849,67.0078" id="Fill-1931"></path>
                <path d="M70.1387,67.0078 C71.8087,67.0078 73.1617,65.6538 73.1617,63.9848 C73.1617,62.3148 71.8087,60.9608 70.1387,60.9608 C68.4687,60.9608 67.1157,62.3148 67.1157,63.9848 C67.1157,65.6538 68.4687,67.0078 70.1387,67.0078" id="Fill-1933"></path>
                <path d="M82.2311,67.0078 C83.9011,67.0078 85.2541,65.6538 85.2541,63.9848 C85.2541,62.3148 83.9011,60.9608 82.2311,60.9608 C80.5611,60.9608 79.2081,62.3148 79.2081,63.9848 C79.2081,65.6538 80.5611,67.0078 82.2311,67.0078" id="Fill-1935"></path>
                <path d="M33.8613,73.0547 C35.5313,73.0547 36.8843,71.7007 36.8843,70.0317 C36.8843,68.3617 35.5313,67.0077 33.8613,67.0077 C32.1913,67.0077 30.8383,68.3617 30.8383,70.0317 C30.8383,71.7007 32.1913,73.0547 33.8613,73.0547" id="Fill-1937"></path>
                <path d="M87.9536,73.0547 C89.6236,73.0547 90.9766,71.7007 90.9766,70.0317 C90.9766,68.3617 89.6236,67.0077 87.9536,67.0077 C86.2836,67.0077 84.9306,68.3617 84.9306,70.0317 C84.9306,71.7007 86.2836,73.0547 87.9536,73.0547" id="Fill-1939"></path>
                <path d="M16.0464,73.0547 C17.7164,73.0547 19.0694,71.7007 19.0694,70.0317 C19.0694,68.3617 17.7164,67.0077 16.0464,67.0077 C14.3764,67.0077 13.0234,68.3617 13.0234,70.0317 C13.0234,71.7007 14.3764,73.0547 16.0464,73.0547" id="Fill-1941"></path>
                <path d="M70.1387,73.0547 C71.8087,73.0547 73.1617,71.7007 73.1617,70.0317 C73.1617,68.3617 71.8087,67.0077 70.1387,67.0077 C68.4687,67.0077 67.1157,68.3617 67.1157,70.0317 C67.1157,71.7007 68.4687,73.0547 70.1387,73.0547" id="Fill-1943"></path>
                <path d="M64.0924,73.0547 C65.7624,73.0547 67.1154,71.7007 67.1154,70.0317 C67.1154,68.3617 65.7624,67.0077 64.0924,67.0077 C62.4224,67.0077 61.0694,68.3617 61.0694,70.0317 C61.0694,71.7007 62.4224,73.0547 64.0924,73.0547" id="Fill-1945"></path>
                <path d="M58.0462,73.0547 C59.7162,73.0547 61.0692,71.7007 61.0692,70.0317 C61.0692,68.3617 59.7162,67.0077 58.0462,67.0077 C56.3762,67.0077 55.0232,68.3617 55.0232,70.0317 C55.0232,71.7007 56.3762,73.0547 58.0462,73.0547" id="Fill-1947"></path>
                <path d="M93.9998,73.0547 C95.6698,73.0547 97.0228,71.7007 97.0228,70.0317 C97.0228,68.3617 95.6698,67.0077 93.9998,67.0077 C92.3298,67.0077 90.9768,68.3617 90.9768,70.0317 C90.9768,71.7007 92.3298,73.0547 93.9998,73.0547" id="Fill-1949"></path>
                <path d="M100.0461,73.0547 C101.7161,73.0547 103.0691,71.7007 103.0691,70.0317 C103.0691,68.3617 101.7161,67.0077 100.0461,67.0077 C98.3761,67.0077 97.0231,68.3617 97.0231,70.0317 C97.0231,71.7007 98.3761,73.0547 100.0461,73.0547" id="Fill-1951"></path>
                <path d="M22.0926,73.0547 C23.7626,73.0547 25.1156,71.7007 25.1156,70.0317 C25.1156,68.3617 23.7626,67.0077 22.0926,67.0077 C20.4226,67.0077 19.0696,68.3617 19.0696,70.0317 C19.0696,71.7007 20.4226,73.0547 22.0926,73.0547" id="Fill-1953"></path>
                <path d="M76.1849,73.0547 C77.8549,73.0547 79.2079,71.7007 79.2079,70.0317 C79.2079,68.3617 77.8549,67.0077 76.1849,67.0077 C74.5149,67.0077 73.1619,68.3617 73.1619,70.0317 C73.1619,71.7007 74.5149,73.0547 76.1849,73.0547" id="Fill-1955"></path>
                <path d="M28.1388,73.0547 C29.8088,73.0547 31.1618,71.7007 31.1618,70.0317 C31.1618,68.3617 29.8088,67.0077 28.1388,67.0077 C26.4688,67.0077 25.1158,68.3617 25.1158,70.0317 C25.1158,71.7007 26.4688,73.0547 28.1388,73.0547" id="Fill-1957"></path>
                <path d="M82.2311,73.0547 C83.9011,73.0547 85.2541,71.7007 85.2541,70.0317 C85.2541,68.3617 83.9011,67.0077 82.2311,67.0077 C80.5611,67.0077 79.2081,68.3617 79.2081,70.0317 C79.2081,71.7007 80.5611,73.0547 82.2311,73.0547" id="Fill-1959"></path>
                <path d="M70.1387,79.0996 C71.8087,79.0996 73.1617,77.7456 73.1617,76.0766 C73.1617,74.4066 71.8087,73.0526 70.1387,73.0526 C68.4687,73.0526 67.1157,74.4066 67.1157,76.0766 C67.1157,77.7456 68.4687,79.0996 70.1387,79.0996" id="Fill-1961"></path>
                <path d="M76.1849,79.0996 C77.8549,79.0996 79.2079,77.7456 79.2079,76.0766 C79.2079,74.4066 77.8549,73.0526 76.1849,73.0526 C74.5149,73.0526 73.1619,74.4066 73.1619,76.0766 C73.1619,77.7456 74.5149,79.0996 76.1849,79.0996" id="Fill-1963"></path>
                <path d="M64.0924,79.0996 C65.7624,79.0996 67.1154,77.7456 67.1154,76.0766 C67.1154,74.4066 65.7624,73.0526 64.0924,73.0526 C62.4224,73.0526 61.0694,74.4066 61.0694,76.0766 C61.0694,77.7456 62.4224,79.0996 64.0924,79.0996" id="Fill-1965"></path>
                <path d="M93.9998,79.0996 C95.6698,79.0996 97.0228,77.7456 97.0228,76.0766 C97.0228,74.4066 95.6698,73.0526 93.9998,73.0526 C92.3298,73.0526 90.9768,74.4066 90.9768,76.0766 C90.9768,77.7456 92.3298,79.0996 93.9998,79.0996" id="Fill-1967"></path>
                <path d="M87.9536,79.0996 C89.6236,79.0996 90.9766,77.7456 90.9766,76.0766 C90.9766,74.4066 89.6236,73.0526 87.9536,73.0526 C86.2836,73.0526 84.9306,74.4066 84.9306,76.0766 C84.9306,77.7456 86.2836,79.0996 87.9536,79.0996" id="Fill-1969"></path>
                <path d="M100.0461,79.0996 C101.7161,79.0996 103.0691,77.7456 103.0691,76.0766 C103.0691,74.4066 101.7161,73.0526 100.0461,73.0526 C98.3761,73.0526 97.0231,74.4066 97.0231,76.0766 C97.0231,77.7456 98.3761,79.0996 100.0461,79.0996" id="Fill-1971"></path>
                <path d="M87.9536,85.1465 C89.6236,85.1465 90.9766,83.7925 90.9766,82.1235 C90.9766,80.4535 89.6236,79.0995 87.9536,79.0995 C86.2836,79.0995 84.9306,80.4535 84.9306,82.1235 C84.9306,83.7925 86.2836,85.1465 87.9536,85.1465" id="Fill-1973"></path>
                <path d="M70.1387,85.1465 C71.8087,85.1465 73.1617,83.7925 73.1617,82.1235 C73.1617,80.4535 71.8087,79.0995 70.1387,79.0995 C68.4687,79.0995 67.1157,80.4535 67.1157,82.1235 C67.1157,83.7925 68.4687,85.1465 70.1387,85.1465" id="Fill-1975"></path>
                <path d="M93.9998,85.1465 C95.6698,85.1465 97.0228,83.7925 97.0228,82.1235 C97.0228,80.4535 95.6698,79.0995 93.9998,79.0995 C92.3298,79.0995 90.9768,80.4535 90.9768,82.1235 C90.9768,83.7925 92.3298,85.1465 93.9998,85.1465" id="Fill-1977"></path>
                <path d="M76.1849,85.1465 C77.8549,85.1465 79.2079,83.7925 79.2079,82.1235 C79.2079,80.4535 77.8549,79.0995 76.1849,79.0995 C74.5149,79.0995 73.1619,80.4535 73.1619,82.1235 C73.1619,83.7925 74.5149,85.1465 76.1849,85.1465" id="Fill-1979"></path>
                <path d="M82.2311,85.1465 C83.9011,85.1465 85.2541,83.7925 85.2541,82.1235 C85.2541,80.4535 83.9011,79.0995 82.2311,79.0995 C80.5611,79.0995 79.2081,80.4535 79.2081,82.1235 C79.2081,83.7925 80.5611,85.1465 82.2311,85.1465" id="Fill-1981"></path>
                <path d="M87.9536,91.1934 C89.6236,91.1934 90.9766,89.8394 90.9766,88.1704 C90.9766,86.5004 89.6236,85.1464 87.9536,85.1464 C86.2836,85.1464 84.9306,86.5004 84.9306,88.1704 C84.9306,89.8394 86.2836,91.1934 87.9536,91.1934" id="Fill-1983"></path>
                <path d="M81.9074,91.1934 C83.5774,91.1934 84.9304,89.8394 84.9304,88.1704 C84.9304,86.5004 83.5774,85.1464 81.9074,85.1464 C80.2374,85.1464 78.8844,86.5004 78.8844,88.1704 C78.8844,89.8394 80.2374,91.1934 81.9074,91.1934" id="Fill-1985"></path>
                <path d="M70.1387,91.1934 C71.8087,91.1934 73.1617,89.8394 73.1617,88.1704 C73.1617,86.5004 71.8087,85.1464 70.1387,85.1464 C68.4687,85.1464 67.1157,86.5004 67.1157,88.1704 C67.1157,89.8394 68.4687,91.1934 70.1387,91.1934" id="Fill-1987"></path>
                <path d="M10.0001,91.1934 C11.6701,91.1934 13.0231,89.8394 13.0231,88.1704 C13.0231,86.5004 11.6701,85.1464 10.0001,85.1464 C8.3301,85.1464 6.9771,86.5004 6.9771,88.1704 C6.9771,89.8394 8.3301,91.1934 10.0001,91.1934" id="Fill-1989"></path>
                <path d="M3.9539,91.1934 C5.6239,91.1934 6.9769,89.8394 6.9769,88.1704 C6.9769,86.5004 5.6239,85.1464 3.9539,85.1464 C2.2839,85.1464 0.9309,86.5004 0.9309,88.1704 C0.9309,89.8394 2.2839,91.1934 3.9539,91.1934" id="Fill-1991"></path>
                <path d="M100.0461,91.1934 C101.7161,91.1934 103.0691,89.8394 103.0691,88.1704 C103.0691,86.5004 101.7161,85.1464 100.0461,85.1464 C98.3761,85.1464 97.0231,86.5004 97.0231,88.1704 C97.0231,89.8394 98.3761,91.1934 100.0461,91.1934" id="Fill-1993"></path>
                <path d="M22.0926,91.1934 C23.7626,91.1934 25.1156,89.8394 25.1156,88.1704 C25.1156,86.5004 23.7626,85.1464 22.0926,85.1464 C20.4226,85.1464 19.0696,86.5004 19.0696,88.1704 C19.0696,89.8394 20.4226,91.1934 22.0926,91.1934" id="Fill-1995"></path>
                <path d="M28.1388,91.1934 C29.8088,91.1934 31.1618,89.8394 31.1618,88.1704 C31.1618,86.5004 29.8088,85.1464 28.1388,85.1464 C26.4688,85.1464 25.1158,86.5004 25.1158,88.1704 C25.1158,89.8394 26.4688,91.1934 28.1388,91.1934" id="Fill-1997"></path>
                <path d="M87.9536,97.2383 C89.6236,97.2383 90.9766,95.8843 90.9766,94.2153 C90.9766,92.5453 89.6236,91.1913 87.9536,91.1913 C86.2836,91.1913 84.9306,92.5453 84.9306,94.2153 C84.9306,95.8843 86.2836,97.2383 87.9536,97.2383" id="Fill-1999"></path>
                <path d="M16.0464,97.2383 C17.7164,97.2383 19.0694,95.8843 19.0694,94.2153 C19.0694,92.5453 17.7164,91.1913 16.0464,91.1913 C14.3764,91.1913 13.0234,92.5453 13.0234,94.2153 C13.0234,95.8843 14.3764,97.2383 16.0464,97.2383" id="Fill-2001"></path>
                <path d="M70.1387,97.2383 C71.8087,97.2383 73.1617,95.8843 73.1617,94.2153 C73.1617,92.5453 71.8087,91.1913 70.1387,91.1913 C68.4687,91.1913 67.1157,92.5453 67.1157,94.2153 C67.1157,95.8843 68.4687,97.2383 70.1387,97.2383" id="Fill-2003"></path>
                <path d="M3.9539,97.2383 C5.6239,97.2383 6.9769,95.8843 6.9769,94.2153 C6.9769,92.5453 5.6239,91.1913 3.9539,91.1913 C2.2839,91.1913 0.9309,92.5453 0.9309,94.2153 C0.9309,95.8843 2.2839,97.2383 3.9539,97.2383" id="Fill-2005"></path>
                <path d="M93.9998,97.2383 C95.6698,97.2383 97.0228,95.8843 97.0228,94.2153 C97.0228,92.5453 95.6698,91.1913 93.9998,91.1913 C92.3298,91.1913 90.9768,92.5453 90.9768,94.2153 C90.9768,95.8843 92.3298,97.2383 93.9998,97.2383" id="Fill-2007"></path>
                <path d="M100.0461,97.2383 C101.7161,97.2383 103.0691,95.8843 103.0691,94.2153 C103.0691,92.5453 101.7161,91.1913 100.0461,91.1913 C98.3761,91.1913 97.0231,92.5453 97.0231,94.2153 C97.0231,95.8843 98.3761,97.2383 100.0461,97.2383" id="Fill-2009"></path>
                <path d="M22.0926,97.2383 C23.7626,97.2383 25.1156,95.8843 25.1156,94.2153 C25.1156,92.5453 23.7626,91.1913 22.0926,91.1913 C20.4226,91.1913 19.0696,92.5453 19.0696,94.2153 C19.0696,95.8843 20.4226,97.2383 22.0926,97.2383" id="Fill-2011"></path>
                <path d="M76.1849,97.2383 C77.8549,97.2383 79.2079,95.8843 79.2079,94.2153 C79.2079,92.5453 77.8549,91.1913 76.1849,91.1913 C74.5149,91.1913 73.1619,92.5453 73.1619,94.2153 C73.1619,95.8843 74.5149,97.2383 76.1849,97.2383" id="Fill-2013"></path>
                <path d="M28.1388,97.2383 C29.8088,97.2383 31.1618,95.8843 31.1618,94.2153 C31.1618,92.5453 29.8088,91.1913 28.1388,91.1913 C26.4688,91.1913 25.1158,92.5453 25.1158,94.2153 C25.1158,95.8843 26.4688,97.2383 28.1388,97.2383" id="Fill-2015"></path>
                <path d="M82.2311,97.2383 C83.9011,97.2383 85.2541,95.8843 85.2541,94.2153 C85.2541,92.5453 83.9011,91.1913 82.2311,91.1913 C80.5611,91.1913 79.2081,92.5453 79.2081,94.2153 C79.2081,95.8843 80.5611,97.2383 82.2311,97.2383" id="Fill-2017"></path>
                <path d="M33.8613,103.2852 C35.5313,103.2852 36.8843,101.9312 36.8843,100.2622 C36.8843,98.5922 35.5313,97.2382 33.8613,97.2382 C32.1913,97.2382 30.8383,98.5922 30.8383,100.2622 C30.8383,101.9312 32.1913,103.2852 33.8613,103.2852" id="Fill-2019"></path>
                <path d="M10.0001,103.2852 C11.6701,103.2852 13.0231,101.9312 13.0231,100.2622 C13.0231,98.5922 11.6701,97.2382 10.0001,97.2382 C8.3301,97.2382 6.9771,98.5922 6.9771,100.2622 C6.9771,101.9312 8.3301,103.2852 10.0001,103.2852" id="Fill-2021"></path>
                <path d="M64.0924,103.2852 C65.7624,103.2852 67.1154,101.9312 67.1154,100.2622 C67.1154,98.5922 65.7624,97.2382 64.0924,97.2382 C62.4224,97.2382 61.0694,98.5922 61.0694,100.2622 C61.0694,101.9312 62.4224,103.2852 64.0924,103.2852" id="Fill-2023"></path>
                <path d="M3.9539,103.2852 C5.6239,103.2852 6.9769,101.9312 6.9769,100.2622 C6.9769,98.5922 5.6239,97.2382 3.9539,97.2382 C2.2839,97.2382 0.9309,98.5922 0.9309,100.2622 C0.9309,101.9312 2.2839,103.2852 3.9539,103.2852" id="Fill-2025"></path>
                <path d="M93.9998,103.2852 C95.6698,103.2852 97.0228,101.9312 97.0228,100.2622 C97.0228,98.5922 95.6698,97.2382 93.9998,97.2382 C92.3298,97.2382 90.9768,98.5922 90.9768,100.2622 C90.9768,101.9312 92.3298,103.2852 93.9998,103.2852" id="Fill-2027"></path>
                <path d="M22.0926,103.2852 C23.7626,103.2852 25.1156,101.9312 25.1156,100.2622 C25.1156,98.5922 23.7626,97.2382 22.0926,97.2382 C20.4226,97.2382 19.0696,98.5922 19.0696,100.2622 C19.0696,101.9312 20.4226,103.2852 22.0926,103.2852" id="Fill-2029"></path>
                <path d="M16.0464,103.2852 C17.7164,103.2852 19.0694,101.9312 19.0694,100.2622 C19.0694,98.5922 17.7164,97.2382 16.0464,97.2382 C14.3764,97.2382 13.0234,98.5922 13.0234,100.2622 C13.0234,101.9312 14.3764,103.2852 16.0464,103.2852" id="Fill-2031"></path>
                <path d="M76.1849,103.2852 C77.8549,103.2852 79.2079,101.9312 79.2079,100.2622 C79.2079,98.5922 77.8549,97.2382 76.1849,97.2382 C74.5149,97.2382 73.1619,98.5922 73.1619,100.2622 C73.1619,101.9312 74.5149,103.2852 76.1849,103.2852" id="Fill-2033"></path>
                <path d="M82.2311,103.2852 C83.9011,103.2852 85.2541,101.9312 85.2541,100.2622 C85.2541,98.5922 83.9011,97.2382 82.2311,97.2382 C80.5611,97.2382 79.2081,98.5922 79.2081,100.2622 C79.2081,101.9312 80.5611,103.2852 82.2311,103.2852" id="Fill-2035"></path>
                <path d="M33.8613,109.332 C35.5313,109.332 36.8843,107.978 36.8843,106.309 C36.8843,104.639 35.5313,103.285 33.8613,103.285 C32.1913,103.285 30.8383,104.639 30.8383,106.309 C30.8383,107.978 32.1913,109.332 33.8613,109.332" id="Fill-2037"></path>
                <path d="M87.9536,109.332 C89.6236,109.332 90.9766,107.978 90.9766,106.309 C90.9766,104.639 89.6236,103.285 87.9536,103.285 C86.2836,103.285 84.9306,104.639 84.9306,106.309 C84.9306,107.978 86.2836,109.332 87.9536,109.332" id="Fill-2039"></path>
                <path d="M70.1387,109.332 C71.8087,109.332 73.1617,107.978 73.1617,106.309 C73.1617,104.639 71.8087,103.285 70.1387,103.285 C68.4687,103.285 67.1157,104.639 67.1157,106.309 C67.1157,107.978 68.4687,109.332 70.1387,109.332" id="Fill-2041"></path>
                <path d="M10.0001,109.332 C11.6701,109.332 13.0231,107.978 13.0231,106.309 C13.0231,104.639 11.6701,103.285 10.0001,103.285 C8.3301,103.285 6.9771,104.639 6.9771,106.309 C6.9771,107.978 8.3301,109.332 10.0001,109.332" id="Fill-2043"></path>
                <path d="M64.0924,109.332 C65.7624,109.332 67.1154,107.978 67.1154,106.309 C67.1154,104.639 65.7624,103.285 64.0924,103.285 C62.4224,103.285 61.0694,104.639 61.0694,106.309 C61.0694,107.978 62.4224,109.332 64.0924,109.332" id="Fill-2045"></path>
                <path d="M3.9539,109.332 C5.6239,109.332 6.9769,107.978 6.9769,106.309 C6.9769,104.639 5.6239,103.285 3.9539,103.285 C2.2839,103.285 0.9309,104.639 0.9309,106.309 C0.9309,107.978 2.2839,109.332 3.9539,109.332" id="Fill-2047"></path>
                <path d="M58.0462,109.332 C59.7162,109.332 61.0692,107.978 61.0692,106.309 C61.0692,104.639 59.7162,103.285 58.0462,103.285 C56.3762,103.285 55.0232,104.639 55.0232,106.309 C55.0232,107.978 56.3762,109.332 58.0462,109.332" id="Fill-2049"></path>
                <path d="M39.9075,109.332 C41.5775,109.332 42.9305,107.978 42.9305,106.309 C42.9305,104.639 41.5775,103.285 39.9075,103.285 C38.2375,103.285 36.8845,104.639 36.8845,106.309 C36.8845,107.978 38.2375,109.332 39.9075,109.332" id="Fill-2051"></path>
                <path d="M93.9998,109.332 C95.6698,109.332 97.0228,107.978 97.0228,106.309 C97.0228,104.639 95.6698,103.285 93.9998,103.285 C92.3298,103.285 90.9768,104.639 90.9768,106.309 C90.9768,107.978 92.3298,109.332 93.9998,109.332" id="Fill-2053"></path>
                <path d="M45.9538,109.332 C47.6238,109.332 48.9768,107.978 48.9768,106.309 C48.9768,104.639 47.6238,103.285 45.9538,103.285 C44.2838,103.285 42.9308,104.639 42.9308,106.309 C42.9308,107.978 44.2838,109.332 45.9538,109.332" id="Fill-2055"></path>
                <path d="M52,109.332 C53.67,109.332 55.023,107.978 55.023,106.309 C55.023,104.639 53.67,103.285 52,103.285 C50.33,103.285 48.977,104.639 48.977,106.309 C48.977,107.978 50.33,109.332 52,109.332" id="Fill-2057"></path>
                <path d="M22.0926,109.332 C23.7626,109.332 25.1156,107.978 25.1156,106.309 C25.1156,104.639 23.7626,103.285 22.0926,103.285 C20.4226,103.285 19.0696,104.639 19.0696,106.309 C19.0696,107.978 20.4226,109.332 22.0926,109.332" id="Fill-2059"></path>
                <path d="M76.1849,109.332 C77.8549,109.332 79.2079,107.978 79.2079,106.309 C79.2079,104.639 77.8549,103.285 76.1849,103.285 C74.5149,103.285 73.1619,104.639 73.1619,106.309 C73.1619,107.978 74.5149,109.332 76.1849,109.332" id="Fill-2061"></path>
                <path d="M28.1388,109.332 C29.8088,109.332 31.1618,107.978 31.1618,106.309 C31.1618,104.639 29.8088,103.285 28.1388,103.285 C26.4688,103.285 25.1158,104.639 25.1158,106.309 C25.1158,107.978 26.4688,109.332 28.1388,109.332" id="Fill-2063"></path>
                <path d="M82.2311,109.332 C83.9011,109.332 85.2541,107.978 85.2541,106.309 C85.2541,104.639 83.9011,103.285 82.2311,103.285 C80.5611,103.285 79.2081,104.639 79.2081,106.309 C79.2081,107.978 80.5611,109.332 82.2311,109.332" id="Fill-2065"></path>
                <path d="M87.9536,115.1035 C89.6236,115.1035 90.9766,113.7495 90.9766,112.0805 C90.9766,110.4105 89.6236,109.0565 87.9536,109.0565 C86.2836,109.0565 84.9306,110.4105 84.9306,112.0805 C84.9306,113.7495 86.2836,115.1035 87.9536,115.1035" id="Fill-2067"></path>
                <path d="M16.0464,115.1035 C17.7164,115.1035 19.0694,113.7495 19.0694,112.0805 C19.0694,110.4105 17.7164,109.0565 16.0464,109.0565 C14.3764,109.0565 13.0234,110.4105 13.0234,112.0805 C13.0234,113.7495 14.3764,115.1035 16.0464,115.1035" id="Fill-2069"></path>
                <path d="M70.1387,115.1035 C71.8087,115.1035 73.1617,113.7495 73.1617,112.0805 C73.1617,110.4105 71.8087,109.0565 70.1387,109.0565 C68.4687,109.0565 67.1157,110.4105 67.1157,112.0805 C67.1157,113.7495 68.4687,115.1035 70.1387,115.1035" id="Fill-2071"></path>
                <path d="M10.0001,115.1035 C11.6701,115.1035 13.0231,113.7495 13.0231,112.0805 C13.0231,110.4105 11.6701,109.0565 10.0001,109.0565 C8.3301,109.0565 6.9771,110.4105 6.9771,112.0805 C6.9771,113.7495 8.3301,115.1035 10.0001,115.1035" id="Fill-2073"></path>
                <path d="M39.9075,115.1035 C41.5775,115.1035 42.9305,113.7495 42.9305,112.0805 C42.9305,110.4105 41.5775,109.0565 39.9075,109.0565 C38.2375,109.0565 36.8845,110.4105 36.8845,112.0805 C36.8845,113.7495 38.2375,115.1035 39.9075,115.1035" id="Fill-2075"></path>
                <path d="M45.9538,115.1035 C47.6238,115.1035 48.9768,113.7495 48.9768,112.0805 C48.9768,110.4105 47.6238,109.0565 45.9538,109.0565 C44.2838,109.0565 42.9308,110.4105 42.9308,112.0805 C42.9308,113.7495 44.2838,115.1035 45.9538,115.1035" id="Fill-2077"></path>
                <path d="M52,115.1035 C53.67,115.1035 55.023,113.7495 55.023,112.0805 C55.023,110.4105 53.67,109.0565 52,109.0565 C50.33,109.0565 48.977,110.4105 48.977,112.0805 C48.977,113.7495 50.33,115.1035 52,115.1035" id="Fill-2079"></path>
                <path d="M58.0462,115.1035 C59.7162,115.1035 61.0692,113.7495 61.0692,112.0805 C61.0692,110.4105 59.7162,109.0565 58.0462,109.0565 C56.3762,109.0565 55.0232,110.4105 55.0232,112.0805 C55.0232,113.7495 56.3762,115.1035 58.0462,115.1035" id="Fill-2081"></path>
                <path d="M22.0926,115.1035 C23.7626,115.1035 25.1156,113.7495 25.1156,112.0805 C25.1156,110.4105 23.7626,109.0565 22.0926,109.0565 C20.4226,109.0565 19.0696,110.4105 19.0696,112.0805 C19.0696,113.7495 20.4226,115.1035 22.0926,115.1035" id="Fill-2083"></path>
                <path d="M27.8151,115.1035 C29.4851,115.1035 30.8381,113.7495 30.8381,112.0805 C30.8381,110.4105 29.4851,109.0565 27.8151,109.0565 C26.1451,109.0565 24.7921,110.4105 24.7921,112.0805 C24.7921,113.7495 26.1451,115.1035 27.8151,115.1035" id="Fill-2085"></path>
                <path d="M82.2311,115.1035 C83.9011,115.1035 85.2541,113.7495 85.2541,112.0805 C85.2541,110.4105 83.9011,109.0565 82.2311,109.0565 C80.5611,109.0565 79.2081,110.4105 79.2081,112.0805 C79.2081,113.7495 80.5611,115.1035 82.2311,115.1035" id="Fill-2087"></path>
                <path d="M33.8613,121.0605 C35.5313,121.0605 36.8843,119.7065 36.8843,118.0375 C36.8843,116.3675 35.5313,115.0135 33.8613,115.0135 C32.1913,115.0135 30.8383,116.3675 30.8383,118.0375 C30.8383,119.7065 32.1913,121.0605 33.8613,121.0605" id="Fill-2089"></path>
                <path d="M16.0464,121.0605 C17.7164,121.0605 19.0694,119.7065 19.0694,118.0375 C19.0694,116.3675 17.7164,115.0135 16.0464,115.0135 C14.3764,115.0135 13.0234,116.3675 13.0234,118.0375 C13.0234,119.7065 14.3764,121.0605 16.0464,121.0605" id="Fill-2091"></path>
                <path d="M70.1387,121.0605 C71.8087,121.0605 73.1617,119.7065 73.1617,118.0375 C73.1617,116.3675 71.8087,115.0135 70.1387,115.0135 C68.4687,115.0135 67.1157,116.3675 67.1157,118.0375 C67.1157,119.7065 68.4687,121.0605 70.1387,121.0605" id="Fill-2093"></path>
                <path d="M64.0924,121.0605 C65.7624,121.0605 67.1154,119.7065 67.1154,118.0375 C67.1154,116.3675 65.7624,115.0135 64.0924,115.0135 C62.4224,115.0135 61.0694,116.3675 61.0694,118.0375 C61.0694,119.7065 62.4224,121.0605 64.0924,121.0605" id="Fill-2095"></path>
                <path d="M58.0462,121.0605 C59.7162,121.0605 61.0692,119.7065 61.0692,118.0375 C61.0692,116.3675 59.7162,115.0135 58.0462,115.0135 C56.3762,115.0135 55.0232,116.3675 55.0232,118.0375 C55.0232,119.7065 56.3762,121.0605 58.0462,121.0605" id="Fill-2097"></path>
                <path d="M39.9075,121.0605 C41.5775,121.0605 42.9305,119.7065 42.9305,118.0375 C42.9305,116.3675 41.5775,115.0135 39.9075,115.0135 C38.2375,115.0135 36.8845,116.3675 36.8845,118.0375 C36.8845,119.7065 38.2375,121.0605 39.9075,121.0605" id="Fill-2099"></path>
                <path d="M45.9538,121.0605 C47.6238,121.0605 48.9768,119.7065 48.9768,118.0375 C48.9768,116.3675 47.6238,115.0135 45.9538,115.0135 C44.2838,115.0135 42.9308,116.3675 42.9308,118.0375 C42.9308,119.7065 44.2838,121.0605 45.9538,121.0605" id="Fill-2101"></path>
                <path d="M22.0926,121.0605 C23.7626,121.0605 25.1156,119.7065 25.1156,118.0375 C25.1156,116.3675 23.7626,115.0135 22.0926,115.0135 C20.4226,115.0135 19.0696,116.3675 19.0696,118.0375 C19.0696,119.7065 20.4226,121.0605 22.0926,121.0605" id="Fill-2103"></path>
                <path d="M76.1849,121.0605 C77.8549,121.0605 79.2079,119.7065 79.2079,118.0375 C79.2079,116.3675 77.8549,115.0135 76.1849,115.0135 C74.5149,115.0135 73.1619,116.3675 73.1619,118.0375 C73.1619,119.7065 74.5149,121.0605 76.1849,121.0605" id="Fill-2105"></path>
                <path d="M28.1388,121.0605 C29.8088,121.0605 31.1618,119.7065 31.1618,118.0375 C31.1618,116.3675 29.8088,115.0135 28.1388,115.0135 C26.4688,115.0135 25.1158,116.3675 25.1158,118.0375 C25.1158,119.7065 26.4688,121.0605 28.1388,121.0605" id="Fill-2107"></path>
                <path d="M82.2311,121.0605 C83.9011,121.0605 85.2541,119.7065 85.2541,118.0375 C85.2541,116.3675 83.9011,115.0135 82.2311,115.0135 C80.5611,115.0135 79.2081,116.3675 79.2081,118.0375 C79.2081,119.7065 80.5611,121.0605 82.2311,121.0605" id="Fill-2109"></path>
                <path d="M33.8613,127.0156 C35.5313,127.0156 36.8843,125.6616 36.8843,123.9926 C36.8843,122.3226 35.5313,120.9686 33.8613,120.9686 C32.1913,120.9686 30.8383,122.3226 30.8383,123.9926 C30.8383,125.6616 32.1913,127.0156 33.8613,127.0156" id="Fill-2111"></path>
                <path d="M70.1387,127.0156 C71.8087,127.0156 73.1617,125.6616 73.1617,123.9926 C73.1617,122.3226 71.8087,120.9686 70.1387,120.9686 C68.4687,120.9686 67.1157,122.3226 67.1157,123.9926 C67.1157,125.6616 68.4687,127.0156 70.1387,127.0156" id="Fill-2113"></path>
                <path d="M64.0924,127.0156 C65.7624,127.0156 67.1154,125.6616 67.1154,123.9926 C67.1154,122.3226 65.7624,120.9686 64.0924,120.9686 C62.4224,120.9686 61.0694,122.3226 61.0694,123.9926 C61.0694,125.6616 62.4224,127.0156 64.0924,127.0156" id="Fill-2115"></path>
                <path d="M58.0462,127.0156 C59.7162,127.0156 61.0692,125.6616 61.0692,123.9926 C61.0692,122.3226 59.7162,120.9686 58.0462,120.9686 C56.3762,120.9686 55.0232,122.3226 55.0232,123.9926 C55.0232,125.6616 56.3762,127.0156 58.0462,127.0156" id="Fill-2117"></path>
                <path d="M45.9538,127.0156 C47.6238,127.0156 48.9768,125.6616 48.9768,123.9926 C48.9768,122.3226 47.6238,120.9686 45.9538,120.9686 C44.2838,120.9686 42.9308,122.3226 42.9308,123.9926 C42.9308,125.6616 44.2838,127.0156 45.9538,127.0156" id="Fill-2119"></path>
                <path d="M52,127.0156 C53.67,127.0156 55.023,125.6616 55.023,123.9926 C55.023,122.3226 53.67,120.9686 52,120.9686 C50.33,120.9686 48.977,122.3226 48.977,123.9926 C48.977,125.6616 50.33,127.0156 52,127.0156" id="Fill-2121"></path>
                <path d="M28.1388,127.0156 C29.8088,127.0156 31.1618,125.6616 31.1618,123.9926 C31.1618,122.3226 29.8088,120.9686 28.1388,120.9686 C26.4688,120.9686 25.1158,122.3226 25.1158,123.9926 C25.1158,125.6616 26.4688,127.0156 28.1388,127.0156" id="Fill-2123"></path>
                <path d="M45.9538,73.0547 C47.6238,73.0547 48.9768,71.7007 48.9768,70.0317 C48.9768,68.3617 47.6238,67.0077 45.9538,67.0077 C44.2838,67.0077 42.9308,68.3617 42.9308,70.0317 C42.9308,71.7007 44.2838,73.0547 45.9538,73.0547" id="Fill-2125"></path>
                <path d="M52,73.0547 C53.67,73.0547 55.023,71.7007 55.023,70.0317 C55.023,68.3617 53.67,67.0077 52,67.0077 C50.33,67.0077 48.977,68.3617 48.977,70.0317 C48.977,71.7007 50.33,73.0547 52,73.0547" id="Fill-2127"></path>
            </g>
        </g>
    </g>
</svg>