<?xml version="1.0" encoding="UTF-8"?>
<svg width="90px" height="127px" viewBox="0 0 90 127" version="1.1" xmlns="http://www.w3.org/2000/svg" xmlns:xlink="http://www.w3.org/1999/xlink">
    <!-- Generator: Sketch 49.3 (51167) - http://www.bohemiancoding.com/sketch -->
    <title>6</title>
    <desc>Created with Sketch.</desc>
    <defs></defs>
    <g id="Page-3" stroke="none" stroke-width="1" fill="none" fill-rule="evenodd">
        <g id="bs_microsite_IA17_1215px" transform="translate(-289.000000, -495.000000)">
            <g id="6" transform="translate(289.000000, 494.000000)">
                <g id="Group-2167" transform="translate(0.000000, 0.500000)" fill="#006DFF">
                    <path d="M63.7407,112.9444 C61.7917,112.9444 60.1307,113.6264 58.7627,114.9944 C57.3997,116.3574 56.7127,118.0184 56.7127,119.9724 C56.7127,121.7294 57.4957,123.3854 59.0557,124.9504 C60.6207,126.3134 62.1807,127.0004 63.7407,127.0004 C65.6947,127.0004 67.3557,126.2174 68.7187,124.6574 C70.0867,123.0924 70.7687,121.5324 70.7687,119.9724 C70.7687,118.0184 69.9907,116.3574 68.4257,114.9944 C66.8657,113.6264 65.3057,112.9444 63.7407,112.9444" id="Fill-2143"></path>
                    <path d="M75.4537,78.2166 C75.4537,80.1656 76.1357,81.8266 77.5037,83.1946 C78.8667,84.5576 80.5277,85.2446 82.4817,85.2446 C84.2387,85.2446 85.8947,84.4616 87.4597,82.9016 C88.8227,81.3366 89.5097,79.7766 89.5097,78.2166 C89.5097,76.2626 88.7267,74.6016 87.1667,73.2386 C85.6017,71.8706 84.0417,71.1886 82.4817,71.1886 C80.5277,71.1886 78.8667,71.9666 77.5037,73.5316 C76.1357,75.0916 75.4537,76.6516 75.4537,78.2166" id="Fill-2145"></path>
                    <path d="M0.4907,78.2166 C0.4907,80.1656 1.1727,81.8266 2.5407,83.1946 C3.9037,84.5576 5.5647,85.2446 7.5187,85.2446 C9.2757,85.2446 10.9317,84.4616 12.4967,82.9016 C13.8597,81.3366 14.5467,79.7766 14.5467,78.2166 C14.5467,76.2626 13.7637,74.6016 12.2037,73.2386 C10.6387,71.8706 9.0787,71.1886 7.5187,71.1886 C5.5647,71.1886 3.9037,71.9666 2.5407,73.5316 C1.1727,75.0916 0.4907,76.6516 0.4907,78.2166" id="Fill-2147"></path>
                    <path d="M82.4814,33.2963 C80.5324,33.2963 78.8714,32.6143 77.5034,31.2463 C76.1404,29.8833 75.4534,28.2223 75.4534,26.2683 C75.4534,24.5113 76.2364,22.8553 77.7964,21.2903 C79.3614,19.9273 80.9214,19.2403 82.4814,19.2403 C84.4354,19.2403 86.0964,20.0233 87.4594,21.5833 C88.8274,23.1483 89.5094,24.7083 89.5094,26.2683 C89.5094,28.2223 88.7314,29.8833 87.1664,31.2463 C85.6064,32.6143 84.0464,33.2963 82.4814,33.2963" id="Fill-2149"></path>
                    <path d="M7.5185,33.2963 C5.5695,33.2963 3.9085,32.6143 2.5405,31.2463 C1.1775,29.8833 0.4905,28.2223 0.4905,26.2683 C0.4905,24.5113 1.2735,22.8553 2.8335,21.2903 C4.3985,19.9273 5.9585,19.2403 7.5185,19.2403 C9.4725,19.2403 11.1335,20.0233 12.4965,21.5833 C13.8645,23.1483 14.5465,24.7083 14.5465,26.2683 C14.5465,28.2223 13.7685,29.8833 12.2035,31.2463 C10.6435,32.6143 9.0835,33.2963 7.5185,33.2963" id="Fill-2151"></path>
                    <path d="M63.7407,14.5556 C61.7917,14.5556 60.1307,13.8736 58.7627,12.5056 C57.3997,11.1426 56.7127,9.4816 56.7127,7.5276 C56.7127,5.7706 57.4957,4.1146 59.0557,2.5496 C60.6207,1.1866 62.1807,0.4996 63.7407,0.4996 C65.6947,0.4996 67.3557,1.2826 68.7187,2.8426 C70.0867,4.4076 70.7687,5.9676 70.7687,7.5276 C70.7687,9.4816 69.9907,11.1426 68.4257,12.5056 C66.8657,13.8736 65.3057,14.5556 63.7407,14.5556" id="Fill-2153"></path>
                    <path d="M63.7407,66.5037 C61.7917,66.5037 60.1307,65.8217 58.7627,64.4537 C57.3997,63.0907 56.7127,61.4297 56.7127,59.4757 C56.7127,57.7187 57.4957,56.0627 59.0557,54.4977 C60.6207,53.1347 62.1807,52.4477 63.7407,52.4477 C65.6947,52.4477 67.3557,53.2307 68.7187,54.7907 C70.0867,56.3557 70.7687,57.9157 70.7687,59.4757 C70.7687,61.4297 69.9907,63.0907 68.4257,64.4537 C66.8657,65.8217 65.3057,66.5037 63.7407,66.5037" id="Fill-2155"></path>
                    <path d="M26.2592,14.5556 C24.3102,14.5556 22.6492,13.8736 21.2812,12.5056 C19.9182,11.1426 19.2312,9.4816 19.2312,7.5276 C19.2312,5.7706 20.0142,4.1146 21.5742,2.5496 C23.1392,1.1866 24.6992,0.4996 26.2592,0.4996 C28.2132,0.4996 29.8742,1.2826 31.2372,2.8426 C32.6052,4.4076 33.2872,5.9676 33.2872,7.5276 C33.2872,9.4816 32.5092,11.1426 30.9442,12.5056 C29.3842,13.8736 27.8242,14.5556 26.2592,14.5556" id="Fill-2157"></path>
                    <path d="M26.2593,52.4481 C24.3103,52.4481 22.6493,53.1301 21.2813,54.4981 C19.9183,55.8611 19.2313,57.5221 19.2313,59.4761 C19.2313,61.2331 20.0143,62.8891 21.5743,64.4541 C23.1393,65.8171 24.6993,66.5041 26.2593,66.5041 C28.2133,66.5041 29.8743,65.7211 31.2373,64.1611 C32.6053,62.5961 33.2873,61.0361 33.2873,59.4761 C33.2873,57.5221 32.5093,55.8611 30.9443,54.4981 C29.3843,53.1301 27.8243,52.4481 26.2593,52.4481" id="Fill-2159"></path>
                    <path d="M82.4814,94.2037 C80.5324,94.2037 78.8714,94.8857 77.5034,96.2537 C76.1404,97.6167 75.4534,99.2777 75.4534,101.2317 C75.4534,102.9887 76.2364,104.6447 77.7964,106.2097 C79.3614,107.5727 80.9214,108.2597 82.4814,108.2597 C84.4354,108.2597 86.0964,107.4767 87.4594,105.9167 C88.8274,104.3517 89.5094,102.7917 89.5094,101.2317 C89.5094,99.2777 88.7314,97.6167 87.1664,96.2537 C85.6064,94.8857 84.0464,94.2037 82.4814,94.2037" id="Fill-2161"></path>
                    <path d="M7.5185,94.2037 C5.5695,94.2037 3.9085,94.8857 2.5405,96.2537 C1.1775,97.6167 0.4905,99.2777 0.4905,101.2317 C0.4905,102.9887 1.2735,104.6447 2.8335,106.2097 C4.3985,107.5727 5.9585,108.2597 7.5185,108.2597 C9.4725,108.2597 11.1335,107.4767 12.4965,105.9167 C13.8645,104.3517 14.5465,102.7917 14.5465,101.2317 C14.5465,99.2777 13.7685,97.6167 12.2035,96.2537 C10.6435,94.8857 9.0835,94.2037 7.5185,94.2037" id="Fill-2163"></path>
                    <path d="M26.2592,112.9444 C24.3102,112.9444 22.6492,113.6264 21.2812,114.9944 C19.9182,116.3574 19.2312,118.0184 19.2312,119.9724 C19.2312,121.7294 20.0142,123.3854 21.5742,124.9504 C23.1392,126.3134 24.6992,127.0004 26.2592,127.0004 C28.2132,127.0004 29.8742,126.2174 31.2372,124.6574 C32.6052,123.0924 33.2872,121.5324 33.2872,119.9724 C33.2872,118.0184 32.5092,116.3574 30.9442,114.9944 C29.3842,113.6264 27.8242,112.9444 26.2592,112.9444" id="Fill-2165"></path>
                </g>
                <polyline id="Stroke-2168" stroke="#006DFF" stroke-width="2.3" points="82.6244 26.7685 63.8834 8.0275 26.2594 8.0275 7.5184 26.7685"></polyline>
                <path d="M11.7822,74.3977 L24.9552,61.2247" id="Stroke-2170" stroke="#006DFF" stroke-width="2.3"></path>
                <polyline id="Stroke-2172" stroke="#006DFF" stroke-width="2.3" points="82.6244 101.7314 63.8834 120.4724 26.2594 120.4724 7.5184 101.7314 7.5184 82.9904"></polyline>
                <path d="M82.4814,97.4573 L82.4814,78.7163" id="Stroke-2173" stroke="#006DFF" stroke-width="2.3"></path>
                <path d="M7.5185,84.2601 L7.5185,28.8671" id="Stroke-2169" stroke="#006DFF" stroke-width="2.3"></path>
                <path d="M63.8836,59.9759 L26.2596,59.9759" id="Stroke-2174" stroke="#006DFF" stroke-width="2.3"></path>
                <path d="M78.2178,74.3977 L65.0448,61.2247" id="Stroke-2171" stroke="#006DFF" stroke-width="2.3"></path>
            </g>
        </g>
    </g>
</svg>