<?xml version="1.0" encoding="UTF-8"?>
<svg width="88px" height="128px" viewBox="0 0 88 128" version="1.1" xmlns="http://www.w3.org/2000/svg" xmlns:xlink="http://www.w3.org/1999/xlink">
    <!-- Generator: Sketch 49.3 (51167) - http://www.bohemiancoding.com/sketch -->
    <title>7</title>
    <desc>Created with Sketch.</desc>
    <defs></defs>
    <g id="Page-3" stroke="none" stroke-width="1" fill="none" fill-rule="evenodd">
        <g id="bs_microsite_IA17_1215px" transform="translate(-520.000000, -494.000000)" fill="#006DFF">
            <g id="7" transform="translate(520.000000, 494.000000)">
                <polygon id="Fill-2130" points="69.639 35.905 77.161 35.905 77.161 0.983 69.639 0.983"></polygon>
                <polygon id="Fill-2131" points="59.765 59.364 67.287 59.364 67.287 0.983 59.765 0.983"></polygon>
                <polygon id="Fill-2132" points="49.891 88.331 57.413 88.331 57.413 35.905 49.891 35.905"></polygon>
                <polygon id="Fill-2133" points="40.016 25.875 47.538 25.875 47.538 0.983 40.016 0.983"></polygon>
                <polygon id="Fill-2134" points="0.52 25.875 8.042 25.875 8.042 0.983 0.52 0.983"></polygon>
                <polygon id="Fill-2135" points="10.394 25.875 17.916 25.875 17.916 0.983 10.394 0.983"></polygon>
                <polygon id="Fill-2136" points="79.513 25.875 87.035 25.875 87.035 0.983 79.513 0.983"></polygon>
                <polygon id="Fill-2137" points="49.89 25.875 57.412 25.875 57.412 0.983 49.89 0.983"></polygon>
                <polygon id="Fill-2138" points="20.268 25.875 27.79 25.875 27.79 0.983 20.268 0.983"></polygon>
                <polygon id="Fill-2139" points="20.268 127.5 27.79 127.5 27.79 87.936 20.268 87.936"></polygon>
                <polygon id="Fill-2140" points="30.142 127.5 37.664 127.5 37.664 59.249 30.142 59.249"></polygon>
                <polygon id="Fill-2141" points="40.016 127.5 47.538 127.5 47.538 47.523 40.016 47.523"></polygon>
                <polygon id="Fill-2142" points="30.142 25.875 37.664 25.875 37.664 0.983 30.142 0.983"></polygon>
            </g>
        </g>
    </g>
</svg>