<?xml version="1.0" encoding="UTF-8"?>
<svg width="65px" height="130px" viewBox="0 0 65 130" version="1.1" xmlns="http://www.w3.org/2000/svg" xmlns:xlink="http://www.w3.org/1999/xlink">
    <!-- Generator: Sketch 49.3 (51167) - http://www.bohemiancoding.com/sketch -->
    <title>Group</title>
    <desc>Created with Sketch.</desc>
    <defs></defs>
    <g id="Page-3" stroke="none" stroke-width="1" fill="none" fill-rule="evenodd">
        <g id="bs_microsite_IA17_1215px" transform="translate(-761.000000, -493.000000)">
            <g id="Group" transform="translate(761.000000, 493.000000)">
                <g id="Group-2183" transform="translate(0.000000, 1.500000)">
                    <path d="M54.709,10.0117 C42.381,-2.3163 22.393,-2.3163 10.065,10.0117 C-2.263,22.3397 -2.263,42.3277 10.065,54.6557 C22.393,66.9837 42.381,66.9837 54.709,54.6557 C67.037,42.3277 67.037,22.3397 54.709,10.0117 M36.77,36.7167 C34.35,39.1367 30.425,39.1367 28.004,36.7167 C25.584,34.2957 25.584,30.3717 28.004,27.9507 C30.425,25.5297 34.349,25.5297 36.77,27.9507 C39.191,30.3717 39.191,34.2957 36.77,36.7167" id="Fill-2175" fill="#006DFF"></path>
                    <path d="M54.709,10.0117 C42.381,-2.3163 22.393,-2.3163 10.065,10.0117 C-2.263,22.3397 -2.263,42.3277 10.065,54.6557 C22.393,66.9837 42.381,66.9837 54.709,54.6557 C67.037,42.3277 67.037,22.3397 54.709,10.0117 Z M36.77,36.7167 C34.35,39.1367 30.425,39.1367 28.004,36.7167 C25.584,34.2957 25.584,30.3717 28.004,27.9507 C30.425,25.5297 34.349,25.5297 36.77,27.9507 C39.191,30.3717 39.191,34.2957 36.77,36.7167 Z" id="Stroke-2177" stroke="#006DFF" stroke-width="1.207"></path>
                    <path d="M55.0439,72.5332 C42.7159,60.2052 22.7279,60.2052 10.3999,72.5332 C-1.9281,84.8612 -1.9281,104.8492 10.3999,117.1772 C22.7279,129.5052 42.7159,129.5052 55.0439,117.1772 C67.3719,104.8492 67.3719,84.8612 55.0439,72.5332 M37.1049,99.2382 C34.6839,101.6582 30.7599,101.6592 28.3389,99.2382 C25.9179,96.8172 25.9179,92.8932 28.3389,90.4722 C30.7599,88.0512 34.6839,88.0512 37.1049,90.4722 C39.5259,92.8932 39.5259,96.8172 37.1049,99.2382" id="Fill-2179" fill="#006DFF"></path>
                    <path d="M55.0439,72.5332 C42.7159,60.2052 22.7279,60.2052 10.3999,72.5332 C-1.9281,84.8612 -1.9281,104.8492 10.3999,117.1772 C22.7279,129.5052 42.7159,129.5052 55.0439,117.1772 C67.3719,104.8492 67.3719,84.8612 55.0439,72.5332 Z M37.1049,99.2382 C34.6839,101.6582 30.7599,101.6592 28.3389,99.2382 C25.9179,96.8172 25.9179,92.8932 28.3389,90.4722 C30.7599,88.0512 34.6839,88.0512 37.1049,90.4722 C39.5259,92.8932 39.5259,96.8172 37.1049,99.2382 Z" id="Stroke-2181" stroke="#006DFF" stroke-width="1.207"></path>
                </g>
                <path d="M54.7993,56.2458 L32.0363,33.4828" id="Stroke-2184" stroke="#FFFFFF" stroke-width="2"></path>
                <path d="M32.5552,69.7769 L32.5552,0.2719" id="Stroke-2185" stroke="#FFFFFF" stroke-width="2"></path>
                <path d="M10.3096,73.9426 L33.0726,96.7056" id="Stroke-2186" stroke="#FFFFFF" stroke-width="2"></path>
                <path d="M32.5539,60.4121 L32.5539,129.9171" id="Stroke-2187" stroke="#FFFFFF" stroke-width="2"></path>
            </g>
        </g>
    </g>
</svg>