<?xml version="1.0" encoding="UTF-8"?>
<svg width="463px" height="542px" viewBox="0 0 463 542" version="1.1" xmlns="http://www.w3.org/2000/svg" xmlns:xlink="http://www.w3.org/1999/xlink">
    <title>2017</title>
    <defs></defs>
    <g id="Page-1" stroke="none" stroke-width="1" fill="none" fill-rule="evenodd">
        <g id="bs_microsite_IA17_1215px_B" transform="translate(-182.000000, -85.000000)">
            <g id="Group" transform="translate(182.000000, 85.000000)">
                <g id="2017">
                    <g id="0" transform="translate(222.000000, 0.000000)">
                        <path d="M121.5786,254 C187.3526,254 240.6736,200.68 240.6736,134.905 C240.6736,69.132 187.3526,15.812 121.5786,15.812 C55.8046,15.812 2.4836,69.132 2.4836,134.905 C2.4836,200.68 55.8046,254 121.5786,254" id="Fill-11" fill="#FFFFFF"></path>
                        <path d="M0.1553,134.9053 L119.5863,134.9053" id="Stroke-13" stroke="#006DFF" stroke-width="4.202"></path>
                        <path d="M206.0488,219.375 L123.5258,136.852" id="Stroke-14" stroke="#006DFF" stroke-width="4.202"></path>
                        <path d="M121.5786,0.1719 L121.5786,134.9049" id="Stroke-15" stroke="#006DFF" stroke-width="4.202"></path>
                        <path d="M144.9634,134.9053 C144.9634,121.9903 134.4934,111.5203 121.5784,111.5203 C108.6634,111.5203 98.1934,121.9903 98.1934,134.9053 C98.1934,147.8203 108.6634,158.2903 121.5784,158.2903 C134.4934,158.2903 144.9634,147.8203 144.9634,134.9053" id="Fill-16" fill="#006DFF"></path>
                    </g>
                    <g id="2" transform="translate(0.000000, 15.000000)" fill="#FFFFFF">
                        <polygon id="Fill-18" points="92.627 47.385 106.701 47.385 106.701 0.81 92.627 0.81"></polygon>
                        <polygon id="Fill-19" points="92.627 239 106.701 239 106.701 192.425 92.627 192.425"></polygon>
                        <polygon id="Fill-20" points="74.152 239 88.226 239 88.226 192.425 74.152 192.425"></polygon>
                        <polygon id="Fill-21" points="166.529 239 180.603 239 180.603 192.425 166.529 192.425"></polygon>
                        <polygon id="Fill-22" points="148.054 136.52 162.128 136.52 162.128 29.06 148.054 29.06"></polygon>
                        <polygon id="Fill-23" points="37.201 239 51.275 239 51.275 163.991 37.201 163.991"></polygon>
                        <polygon id="Fill-24" points="18.725 239 32.799 239 32.799 178.185 18.725 178.185"></polygon>
                        <polygon id="Fill-25" points="18.725 89.875 32.799 89.875 32.799 29.06 18.725 29.06"></polygon>
                        <polygon id="Fill-26" points="0.25 239 14.324 239 14.324 192.425 0.25 192.425"></polygon>
                        <polygon id="Fill-27" points="37.201 89.875 51.275 89.875 51.275 15.479 37.201 15.479"></polygon>
                        <polygon id="Fill-28" points="0.25 89.875 14.324 89.875 14.324 43.3 0.25 43.3"></polygon>
                        <polygon id="Fill-29" points="129.578 239 143.652 239 143.652 192.425 129.578 192.425"></polygon>
                        <polygon id="Fill-30" points="111.103 239 125.177 239 125.177 192.425 111.103 192.425"></polygon>
                        <polygon id="Fill-31" points="148.054 239 162.128 239 162.128 192.425 148.054 192.425"></polygon>
                        <polygon id="Fill-32" points="55.676 239 69.75 239 69.75 149.751 55.676 149.751"></polygon>
                        <polygon id="Fill-33" points="129.578 150.364 143.652 150.364 143.652 15.479 129.578 15.479"></polygon>
                        <polygon id="Fill-34" points="166.529 121.647 180.603 121.647 180.603 43.3 166.529 43.3"></polygon>
                        <polygon id="Fill-35" points="111.103 164.604 125.177 164.604 125.177 107.031 111.103 107.031"></polygon>
                        <polygon id="Fill-36" points="111.103 62.767 125.177 62.767 125.177 5.194 111.103 5.194"></polygon>
                        <polygon id="Fill-37" points="55.676 62.767 69.75 62.767 69.75 5.194 55.676 5.194"></polygon>
                        <polygon id="Fill-38" points="92.627 178.185 106.701 178.185 106.701 121.271 92.627 121.271"></polygon>
                        <polygon id="Fill-39" points="74.152 188.024 88.226 188.024 88.226 135.512 74.152 135.512"></polygon>
                        <polygon id="Fill-40" points="74.152 47.385 88.226 47.385 88.226 0.81 74.152 0.81"></polygon>
                    </g>
                    <g id="1" transform="translate(0.000000, 301.000000)">
                        <g id="Group-2">
                            <g id="Group-45" transform="translate(0.000000, 214.000000)" fill="#FFFFFF">
                                <path d="M14.3085,27 C18.0145,27 21.1735,25.704 23.7745,23.102 C26.3675,20.509 27.6725,17.351 27.6725,13.636 C27.6725,10.295 26.1845,7.145 23.2175,4.17 C20.2425,1.577 17.2755,0.272 14.3085,0.272 C10.5935,0.272 7.4355,1.76 4.8425,4.726 C2.2405,7.702 0.9445,10.669 0.9445,13.636 C0.9445,17.351 2.4235,20.509 5.3995,23.102 C8.3655,25.704 11.3325,27 14.3085,27" id="Fill-41"></path>
                                <path d="M182.2242,27 C185.9302,27 189.0892,25.704 191.6902,23.102 C194.2832,20.509 195.5882,17.351 195.5882,13.636 C195.5882,10.295 194.1002,7.145 191.1332,4.17 C188.1582,1.577 185.1912,0.272 182.2242,0.272 C178.5092,0.272 175.3512,1.76 172.7582,4.726 C170.1562,7.702 168.8602,10.669 168.8602,13.636 C168.8602,17.351 170.3392,20.509 173.3152,23.102 C176.2812,25.704 179.2482,27 182.2242,27" id="Fill-43"></path>
                            </g>
                            <path d="M181.6566,227.6197 L15.4096,227.6357" id="Stroke-47" stroke="#FFFFFF" stroke-width="4.244"></path>
                            <g id="Group-55" fill="#FFFFFF">
                                <path d="M100.3937,27.1741 C104.0997,27.1741 107.2587,25.8781 109.8597,23.2761 C112.4527,20.6831 113.7577,17.5251 113.7577,13.8101 C113.7577,10.4691 112.2697,7.3191 109.3027,4.3441 C106.3277,1.7511 103.3607,0.4461 100.3937,0.4461 C96.6787,0.4461 93.5207,1.9341 90.9277,4.9001 C88.3257,7.8761 87.0297,10.8431 87.0297,13.8101 C87.0297,17.5251 88.5087,20.6831 91.4847,23.2761 C94.4507,25.8781 97.4177,27.1741 100.3937,27.1741" id="Fill-49"></path>
                                <path d="M100.3937,241 C104.0997,241 107.2587,239.704 109.8597,237.102 C112.4527,234.509 113.7577,231.351 113.7577,227.636 C113.7577,224.295 112.2697,221.145 109.3027,218.17 C106.3277,215.577 103.3607,214.272 100.3937,214.272 C96.6787,214.272 93.5207,215.76 90.9277,218.726 C88.3257,221.702 87.0297,224.669 87.0297,227.636 C87.0297,231.351 88.5087,234.509 91.4847,237.102 C94.4507,239.704 97.4177,241 100.3937,241" id="Fill-51"></path>
                                <path d="M14.3085,106.0193 C18.0145,106.0193 21.1735,104.7233 23.7745,102.1213 C26.3675,99.5283 27.6725,96.3703 27.6725,92.6553 C27.6725,89.3143 26.1845,86.1643 23.2175,83.1893 C20.2425,80.5963 17.2755,79.2913 14.3085,79.2913 C10.5935,79.2913 7.4355,80.7793 4.8425,83.7453 C2.2405,86.7213 0.9445,89.6883 0.9445,92.6553 C0.9445,96.3703 2.4235,99.5283 5.3995,102.1213 C8.3655,104.7233 11.3325,106.0193 14.3085,106.0193" id="Fill-53"></path>
                            </g>
                            <path d="M98.9552,15.3696 L16.8482,91.0956" id="Stroke-56" stroke="#FFFFFF" stroke-width="4.244"></path>
                            <path d="M100.4044,231.5656 L100.3824,9.5336" id="Stroke-48" stroke="#FFFFFF" stroke-width="4.244"></path>
                        </g>
                    </g>
                    <g id="7" transform="translate(256.000000, 299.000000)" fill="#FFFFFF">
                        <path d="M40.8232,47.0137 C44.0212,47.0137 46.6132,44.4217 46.6132,41.2247 C46.6132,38.0277 44.0212,35.4337 40.8232,35.4337 C37.6252,35.4337 35.0332,38.0277 35.0332,41.2247 C35.0332,44.4217 37.6252,47.0137 40.8232,47.0137" id="Fill-57"></path>
                        <path d="M52.4029,47.0137 C55.6009,47.0137 58.1929,44.4217 58.1929,41.2247 C58.1929,38.0277 55.6009,35.4337 52.4029,35.4337 C49.2049,35.4337 46.6129,38.0277 46.6129,41.2247 C46.6129,44.4217 49.2049,47.0137 52.4029,47.0137" id="Fill-59"></path>
                        <path d="M166.9601,12.2754 C170.1581,12.2754 172.7501,9.6834 172.7501,6.4864 C172.7501,3.2894 170.1581,0.6954 166.9601,0.6954 C163.7621,0.6954 161.1701,3.2894 161.1701,6.4864 C161.1701,9.6834 163.7621,12.2754 166.9601,12.2754" id="Fill-61"></path>
                        <path d="M29.2434,12.2754 C32.4414,12.2754 35.0334,9.6834 35.0334,6.4864 C35.0334,3.2894 32.4414,0.6954 29.2434,0.6954 C26.0454,0.6954 23.4534,3.2894 23.4534,6.4864 C23.4534,9.6834 26.0454,12.2754 29.2434,12.2754" id="Fill-63"></path>
                        <path d="M17.6637,12.2754 C20.8617,12.2754 23.4537,9.6834 23.4537,6.4864 C23.4537,3.2894 20.8617,0.6954 17.6637,0.6954 C14.4657,0.6954 11.8737,3.2894 11.8737,6.4864 C11.8737,9.6834 14.4657,12.2754 17.6637,12.2754" id="Fill-65"></path>
                        <path d="M132.8409,12.2754 C136.0389,12.2754 138.6309,9.6834 138.6309,6.4864 C138.6309,3.2894 136.0389,0.6954 132.8409,0.6954 C129.6429,0.6954 127.0509,3.2894 127.0509,6.4864 C127.0509,9.6834 129.6429,12.2754 132.8409,12.2754" id="Fill-67"></path>
                        <path d="M109.6815,12.2754 C112.8795,12.2754 115.4715,9.6834 115.4715,6.4864 C115.4715,3.2894 112.8795,0.6954 109.6815,0.6954 C106.4835,0.6954 103.8915,3.2894 103.8915,6.4864 C103.8915,9.6834 106.4835,12.2754 109.6815,12.2754" id="Fill-69"></path>
                        <path d="M74.9423,12.2754 C78.1403,12.2754 80.7323,9.6834 80.7323,6.4864 C80.7323,3.2894 78.1403,0.6954 74.9423,0.6954 C71.7443,0.6954 69.1523,3.2894 69.1523,6.4864 C69.1523,9.6834 71.7443,12.2754 74.9423,12.2754" id="Fill-71"></path>
                        <path d="M86.522,12.2754 C89.72,12.2754 92.312,9.6834 92.312,6.4864 C92.312,3.2894 89.72,0.6954 86.522,0.6954 C83.324,0.6954 80.732,3.2894 80.732,6.4864 C80.732,9.6834 83.324,12.2754 86.522,12.2754" id="Fill-73"></path>
                        <path d="M98.1018,12.2754 C101.2998,12.2754 103.8918,9.6834 103.8918,6.4864 C103.8918,3.2894 101.2998,0.6954 98.1018,0.6954 C94.9038,0.6954 92.3118,3.2894 92.3118,6.4864 C92.3118,9.6834 94.9038,12.2754 98.1018,12.2754" id="Fill-75"></path>
                        <path d="M40.8232,12.2754 C44.0212,12.2754 46.6132,9.6834 46.6132,6.4864 C46.6132,3.2894 44.0212,0.6954 40.8232,0.6954 C37.6252,0.6954 35.0332,3.2894 35.0332,6.4864 C35.0332,9.6834 37.6252,12.2754 40.8232,12.2754" id="Fill-77"></path>
                        <path d="M144.4207,12.2754 C147.6187,12.2754 150.2107,9.6834 150.2107,6.4864 C150.2107,3.2894 147.6187,0.6954 144.4207,0.6954 C141.2227,0.6954 138.6307,3.2894 138.6307,6.4864 C138.6307,9.6834 141.2227,12.2754 144.4207,12.2754" id="Fill-79"></path>
                        <path d="M52.4029,12.2754 C55.6009,12.2754 58.1929,9.6834 58.1929,6.4864 C58.1929,3.2894 55.6009,0.6954 52.4029,0.6954 C49.2049,0.6954 46.6129,3.2894 46.6129,6.4864 C46.6129,9.6834 49.2049,12.2754 52.4029,12.2754" id="Fill-81"></path>
                        <path d="M156.0004,12.2754 C159.1984,12.2754 161.7904,9.6834 161.7904,6.4864 C161.7904,3.2894 159.1984,0.6954 156.0004,0.6954 C152.8024,0.6954 150.2104,3.2894 150.2104,6.4864 C150.2104,9.6834 152.8024,12.2754 156.0004,12.2754" id="Fill-83"></path>
                        <path d="M63.3626,23.8535 C66.5606,23.8535 69.1526,21.2615 69.1526,18.0645 C69.1526,14.8675 66.5606,12.2735 63.3626,12.2735 C60.1646,12.2735 57.5726,14.8675 57.5726,18.0645 C57.5726,21.2615 60.1646,23.8535 63.3626,23.8535" id="Fill-85"></path>
                        <path d="M166.9601,23.8535 C170.1581,23.8535 172.7501,21.2615 172.7501,18.0645 C172.7501,14.8675 170.1581,12.2735 166.9601,12.2735 C163.7621,12.2735 161.1701,14.8675 161.1701,18.0645 C161.1701,21.2615 163.7621,23.8535 166.9601,23.8535" id="Fill-87"></path>
                        <path d="M17.6637,23.8535 C20.8617,23.8535 23.4537,21.2615 23.4537,18.0645 C23.4537,14.8675 20.8617,12.2735 17.6637,12.2735 C14.4657,12.2735 11.8737,14.8675 11.8737,18.0645 C11.8737,21.2615 14.4657,23.8535 17.6637,23.8535" id="Fill-89"></path>
                        <path d="M6.084,23.8535 C9.282,23.8535 11.874,21.2615 11.874,18.0645 C11.874,14.8675 9.282,12.2735 6.084,12.2735 C2.886,12.2735 0.294,14.8675 0.294,18.0645 C0.294,21.2615 2.886,23.8535 6.084,23.8535" id="Fill-91"></path>
                        <path d="M121.2612,23.8535 C124.4592,23.8535 127.0512,21.2615 127.0512,18.0645 C127.0512,14.8675 124.4592,12.2735 121.2612,12.2735 C118.0632,12.2735 115.4712,14.8675 115.4712,18.0645 C115.4712,21.2615 118.0632,23.8535 121.2612,23.8535" id="Fill-93"></path>
                        <path d="M132.8409,23.8535 C136.0389,23.8535 138.6309,21.2615 138.6309,18.0645 C138.6309,14.8675 136.0389,12.2735 132.8409,12.2735 C129.6429,12.2735 127.0509,14.8675 127.0509,18.0645 C127.0509,21.2615 129.6429,23.8535 132.8409,23.8535" id="Fill-95"></path>
                        <path d="M109.6815,23.8535 C112.8795,23.8535 115.4715,21.2615 115.4715,18.0645 C115.4715,14.8675 112.8795,12.2735 109.6815,12.2735 C106.4835,12.2735 103.8915,14.8675 103.8915,18.0645 C103.8915,21.2615 106.4835,23.8535 109.6815,23.8535" id="Fill-97"></path>
                        <path d="M74.9423,23.8535 C78.1403,23.8535 80.7323,21.2615 80.7323,18.0645 C80.7323,14.8675 78.1403,12.2735 74.9423,12.2735 C71.7443,12.2735 69.1523,14.8675 69.1523,18.0645 C69.1523,21.2615 71.7443,23.8535 74.9423,23.8535" id="Fill-99"></path>
                        <path d="M86.522,23.8535 C89.72,23.8535 92.312,21.2615 92.312,18.0645 C92.312,14.8675 89.72,12.2735 86.522,12.2735 C83.324,12.2735 80.732,14.8675 80.732,18.0645 C80.732,21.2615 83.324,23.8535 86.522,23.8535" id="Fill-101"></path>
                        <path d="M144.4207,23.8535 C147.6187,23.8535 150.2107,21.2615 150.2107,18.0645 C150.2107,14.8675 147.6187,12.2735 144.4207,12.2735 C141.2227,12.2735 138.6307,14.8675 138.6307,18.0645 C138.6307,21.2615 141.2227,23.8535 144.4207,23.8535" id="Fill-103"></path>
                        <path d="M52.4029,23.8535 C55.6009,23.8535 58.1929,21.2615 58.1929,18.0645 C58.1929,14.8675 55.6009,12.2735 52.4029,12.2735 C49.2049,12.2735 46.6129,14.8675 46.6129,18.0645 C46.6129,21.2615 49.2049,23.8535 52.4029,23.8535" id="Fill-105"></path>
                        <path d="M156.0004,23.8535 C159.1984,23.8535 161.7904,21.2615 161.7904,18.0645 C161.7904,14.8675 159.1984,12.2735 156.0004,12.2735 C152.8024,12.2735 150.2104,14.8675 150.2104,18.0645 C150.2104,21.2615 152.8024,23.8535 156.0004,23.8535" id="Fill-107"></path>
                        <path d="M63.3626,35.4336 C66.5606,35.4336 69.1526,32.8416 69.1526,29.6446 C69.1526,26.4476 66.5606,23.8536 63.3626,23.8536 C60.1646,23.8536 57.5726,26.4476 57.5726,29.6446 C57.5726,32.8416 60.1646,35.4336 63.3626,35.4336" id="Fill-109"></path>
                        <path d="M29.2434,35.4336 C32.4414,35.4336 35.0334,32.8416 35.0334,29.6446 C35.0334,26.4476 32.4414,23.8536 29.2434,23.8536 C26.0454,23.8536 23.4534,26.4476 23.4534,29.6446 C23.4534,32.8416 26.0454,35.4336 29.2434,35.4336" id="Fill-111"></path>
                        <path d="M29.2434,23.8535 C32.4414,23.8535 35.0334,21.2615 35.0334,18.0645 C35.0334,14.8675 32.4414,12.2735 29.2434,12.2735 C26.0454,12.2735 23.4534,14.8675 23.4534,18.0645 C23.4534,21.2615 26.0454,23.8535 29.2434,23.8535" id="Fill-113"></path>
                        <path d="M132.8409,35.4336 C136.0389,35.4336 138.6309,32.8416 138.6309,29.6446 C138.6309,26.4476 136.0389,23.8536 132.8409,23.8536 C129.6429,23.8536 127.0509,26.4476 127.0509,29.6446 C127.0509,32.8416 129.6429,35.4336 132.8409,35.4336" id="Fill-115"></path>
                        <path d="M17.6637,35.4336 C20.8617,35.4336 23.4537,32.8416 23.4537,29.6446 C23.4537,26.4476 20.8617,23.8536 17.6637,23.8536 C14.4657,23.8536 11.8737,26.4476 11.8737,29.6446 C11.8737,32.8416 14.4657,35.4336 17.6637,35.4336" id="Fill-117"></path>
                        <path d="M121.2612,35.4336 C124.4592,35.4336 127.0512,32.8416 127.0512,29.6446 C127.0512,26.4476 124.4592,23.8536 121.2612,23.8536 C118.0632,23.8536 115.4712,26.4476 115.4712,29.6446 C115.4712,32.8416 118.0632,35.4336 121.2612,35.4336" id="Fill-119"></path>
                        <path d="M6.084,35.4336 C9.282,35.4336 11.874,32.8416 11.874,29.6446 C11.874,26.4476 9.282,23.8536 6.084,23.8536 C2.886,23.8536 0.294,26.4476 0.294,29.6446 C0.294,32.8416 2.886,35.4336 6.084,35.4336" id="Fill-121"></path>
                        <path d="M109.6815,35.4336 C112.8795,35.4336 115.4715,32.8416 115.4715,29.6446 C115.4715,26.4476 112.8795,23.8536 109.6815,23.8536 C106.4835,23.8536 103.8915,26.4476 103.8915,29.6446 C103.8915,32.8416 106.4835,35.4336 109.6815,35.4336" id="Fill-123"></path>
                        <path d="M74.9423,35.4336 C78.1403,35.4336 80.7323,32.8416 80.7323,29.6446 C80.7323,26.4476 78.1403,23.8536 74.9423,23.8536 C71.7443,23.8536 69.1523,26.4476 69.1523,29.6446 C69.1523,32.8416 71.7443,35.4336 74.9423,35.4336" id="Fill-125"></path>
                        <path d="M98.1018,35.4336 C101.2998,35.4336 103.8918,32.8416 103.8918,29.6446 C103.8918,26.4476 101.2998,23.8536 98.1018,23.8536 C94.9038,23.8536 92.3118,26.4476 92.3118,29.6446 C92.3118,32.8416 94.9038,35.4336 98.1018,35.4336" id="Fill-127"></path>
                        <path d="M40.8232,35.4336 C44.0212,35.4336 46.6132,32.8416 46.6132,29.6446 C46.6132,26.4476 44.0212,23.8536 40.8232,23.8536 C37.6252,23.8536 35.0332,26.4476 35.0332,29.6446 C35.0332,32.8416 37.6252,35.4336 40.8232,35.4336" id="Fill-129"></path>
                        <path d="M52.4029,35.4336 C55.6009,35.4336 58.1929,32.8416 58.1929,29.6446 C58.1929,26.4476 55.6009,23.8536 52.4029,23.8536 C49.2049,23.8536 46.6129,26.4476 46.6129,29.6446 C46.6129,32.8416 49.2049,35.4336 52.4029,35.4336" id="Fill-131"></path>
                        <path d="M156.0004,35.4336 C159.1984,35.4336 161.7904,32.8416 161.7904,29.6446 C161.7904,26.4476 159.1984,23.8536 156.0004,23.8536 C152.8024,23.8536 150.2104,26.4476 150.2104,29.6446 C150.2104,32.8416 152.8024,35.4336 156.0004,35.4336" id="Fill-133"></path>
                        <path d="M166.9601,47.0137 C170.1581,47.0137 172.7501,44.4217 172.7501,41.2247 C172.7501,38.0277 170.1581,35.4337 166.9601,35.4337 C163.7621,35.4337 161.1701,38.0277 161.1701,41.2247 C161.1701,44.4217 163.7621,47.0137 166.9601,47.0137" id="Fill-135"></path>
                        <path d="M132.8409,47.0137 C136.0389,47.0137 138.6309,44.4217 138.6309,41.2247 C138.6309,38.0277 136.0389,35.4337 132.8409,35.4337 C129.6429,35.4337 127.0509,38.0277 127.0509,41.2247 C127.0509,44.4217 129.6429,47.0137 132.8409,47.0137" id="Fill-137"></path>
                        <path d="M17.6637,47.0137 C20.8617,47.0137 23.4537,44.4217 23.4537,41.2247 C23.4537,38.0277 20.8617,35.4337 17.6637,35.4337 C14.4657,35.4337 11.8737,38.0277 11.8737,41.2247 C11.8737,44.4217 14.4657,47.0137 17.6637,47.0137" id="Fill-139"></path>
                        <path d="M6.084,47.0137 C9.282,47.0137 11.874,44.4217 11.874,41.2247 C11.874,38.0277 9.282,35.4337 6.084,35.4337 C2.886,35.4337 0.294,38.0277 0.294,41.2247 C0.294,44.4217 2.886,47.0137 6.084,47.0137" id="Fill-141"></path>
                        <path d="M109.6815,47.0137 C112.8795,47.0137 115.4715,44.4217 115.4715,41.2247 C115.4715,38.0277 112.8795,35.4337 109.6815,35.4337 C106.4835,35.4337 103.8915,38.0277 103.8915,41.2247 C103.8915,44.4217 106.4835,47.0137 109.6815,47.0137" id="Fill-143"></path>
                        <path d="M74.9423,47.0137 C78.1403,47.0137 80.7323,44.4217 80.7323,41.2247 C80.7323,38.0277 78.1403,35.4337 74.9423,35.4337 C71.7443,35.4337 69.1523,38.0277 69.1523,41.2247 C69.1523,44.4217 71.7443,47.0137 74.9423,47.0137" id="Fill-145"></path>
                        <path d="M86.522,47.0137 C89.72,47.0137 92.312,44.4217 92.312,41.2247 C92.312,38.0277 89.72,35.4337 86.522,35.4337 C83.324,35.4337 80.732,38.0277 80.732,41.2247 C80.732,44.4217 83.324,47.0137 86.522,47.0137" id="Fill-147"></path>
                        <path d="M98.1018,47.0137 C101.2998,47.0137 103.8918,44.4217 103.8918,41.2247 C103.8918,38.0277 101.2998,35.4337 98.1018,35.4337 C94.9038,35.4337 92.3118,38.0277 92.3118,41.2247 C92.3118,44.4217 94.9038,47.0137 98.1018,47.0137" id="Fill-149"></path>
                        <path d="M144.4207,47.0137 C147.6187,47.0137 150.2107,44.4217 150.2107,41.2247 C150.2107,38.0277 147.6187,35.4337 144.4207,35.4337 C141.2227,35.4337 138.6307,38.0277 138.6307,41.2247 C138.6307,44.4217 141.2227,47.0137 144.4207,47.0137" id="Fill-151"></path>
                        <path d="M156.0004,47.0137 C159.1984,47.0137 161.7904,44.4217 161.7904,41.2247 C161.7904,38.0277 159.1984,35.4337 156.0004,35.4337 C152.8024,35.4337 150.2104,38.0277 150.2104,41.2247 C150.2104,44.4217 152.8024,47.0137 156.0004,47.0137" id="Fill-153"></path>
                        <path d="M166.9601,58.5938 C170.1581,58.5938 172.7501,56.0018 172.7501,52.8048 C172.7501,49.6078 170.1581,47.0138 166.9601,47.0138 C163.7621,47.0138 161.1701,49.6078 161.1701,52.8048 C161.1701,56.0018 163.7621,58.5938 166.9601,58.5938" id="Fill-155"></path>
                        <path d="M121.2612,58.5938 C124.4592,58.5938 127.0512,56.0018 127.0512,52.8048 C127.0512,49.6078 124.4592,47.0138 121.2612,47.0138 C118.0632,47.0138 115.4712,49.6078 115.4712,52.8048 C115.4712,56.0018 118.0632,58.5938 121.2612,58.5938" id="Fill-157"></path>
                        <path d="M109.6815,58.5938 C112.8795,58.5938 115.4715,56.0018 115.4715,52.8048 C115.4715,49.6078 112.8795,47.0138 109.6815,47.0138 C106.4835,47.0138 103.8915,49.6078 103.8915,52.8048 C103.8915,56.0018 106.4835,58.5938 109.6815,58.5938" id="Fill-159"></path>
                        <path d="M144.4207,58.5938 C147.6187,58.5938 150.2107,56.0018 150.2107,52.8048 C150.2107,49.6078 147.6187,47.0138 144.4207,47.0138 C141.2227,47.0138 138.6307,49.6078 138.6307,52.8048 C138.6307,56.0018 141.2227,58.5938 144.4207,58.5938" id="Fill-161"></path>
                        <path d="M109.6815,70.1738 C112.8795,70.1738 115.4715,67.5818 115.4715,64.3848 C115.4715,61.1878 112.8795,58.5938 109.6815,58.5938 C106.4835,58.5938 103.8915,61.1878 103.8915,64.3848 C103.8915,67.5818 106.4835,70.1738 109.6815,70.1738" id="Fill-163"></path>
                        <path d="M144.4207,70.1738 C147.6187,70.1738 150.2107,67.5818 150.2107,64.3848 C150.2107,61.1878 147.6187,58.5938 144.4207,58.5938 C141.2227,58.5938 138.6307,61.1878 138.6307,64.3848 C138.6307,67.5818 141.2227,70.1738 144.4207,70.1738" id="Fill-165"></path>
                        <path d="M132.8409,70.1738 C136.0389,70.1738 138.6309,67.5818 138.6309,64.3848 C138.6309,61.1878 136.0389,58.5938 132.8409,58.5938 C129.6429,58.5938 127.0509,61.1878 127.0509,64.3848 C127.0509,67.5818 129.6429,70.1738 132.8409,70.1738" id="Fill-167"></path>
                        <path d="M156.0004,70.1738 C159.1984,70.1738 161.7904,67.5818 161.7904,64.3848 C161.7904,61.1878 159.1984,58.5938 156.0004,58.5938 C152.8024,58.5938 150.2104,61.1878 150.2104,64.3848 C150.2104,67.5818 152.8024,70.1738 156.0004,70.1738" id="Fill-169"></path>
                        <path d="M132.8409,81.7539 C136.0389,81.7539 138.6309,79.1619 138.6309,75.9649 C138.6309,72.7679 136.0389,70.1739 132.8409,70.1739 C129.6429,70.1739 127.0509,72.7679 127.0509,75.9649 C127.0509,79.1619 129.6429,81.7539 132.8409,81.7539" id="Fill-171"></path>
                        <path d="M121.2612,81.7539 C124.4592,81.7539 127.0512,79.1619 127.0512,75.9649 C127.0512,72.7679 124.4592,70.1739 121.2612,70.1739 C118.0632,70.1739 115.4712,72.7679 115.4712,75.9649 C115.4712,79.1619 118.0632,81.7539 121.2612,81.7539" id="Fill-173"></path>
                        <path d="M109.6815,81.7539 C112.8795,81.7539 115.4715,79.1619 115.4715,75.9649 C115.4715,72.7679 112.8795,70.1739 109.6815,70.1739 C106.4835,70.1739 103.8915,72.7679 103.8915,75.9649 C103.8915,79.1619 106.4835,81.7539 109.6815,81.7539" id="Fill-175"></path>
                        <path d="M98.1018,81.7539 C101.2998,81.7539 103.8918,79.1619 103.8918,75.9649 C103.8918,72.7679 101.2998,70.1739 98.1018,70.1739 C94.9038,70.1739 92.3118,72.7679 92.3118,75.9649 C92.3118,79.1619 94.9038,81.7539 98.1018,81.7539" id="Fill-177"></path>
                        <path d="M144.4207,81.7539 C147.6187,81.7539 150.2107,79.1619 150.2107,75.9649 C150.2107,72.7679 147.6187,70.1739 144.4207,70.1739 C141.2227,70.1739 138.6307,72.7679 138.6307,75.9649 C138.6307,79.1619 141.2227,81.7539 144.4207,81.7539" id="Fill-179"></path>
                        <path d="M121.2612,93.332 C124.4592,93.332 127.0512,90.74 127.0512,87.543 C127.0512,84.346 124.4592,81.752 121.2612,81.752 C118.0632,81.752 115.4712,84.346 115.4712,87.543 C115.4712,90.74 118.0632,93.332 121.2612,93.332" id="Fill-181"></path>
                        <path d="M86.522,93.332 C89.72,93.332 92.312,90.74 92.312,87.543 C92.312,84.346 89.72,81.752 86.522,81.752 C83.324,81.752 80.732,84.346 80.732,87.543 C80.732,90.74 83.324,93.332 86.522,93.332" id="Fill-183"></path>
                        <path d="M144.4207,93.332 C147.6187,93.332 150.2107,90.74 150.2107,87.543 C150.2107,84.346 147.6187,81.752 144.4207,81.752 C141.2227,81.752 138.6307,84.346 138.6307,87.543 C138.6307,90.74 141.2227,93.332 144.4207,93.332" id="Fill-185"></path>
                        <path d="M132.8409,104.9121 C136.0389,104.9121 138.6309,102.3201 138.6309,99.1231 C138.6309,95.9261 136.0389,93.3321 132.8409,93.3321 C129.6429,93.3321 127.0509,95.9261 127.0509,99.1231 C127.0509,102.3201 129.6429,104.9121 132.8409,104.9121" id="Fill-187"></path>
                        <path d="M121.2612,104.9121 C124.4592,104.9121 127.0512,102.3201 127.0512,99.1231 C127.0512,95.9261 124.4592,93.3321 121.2612,93.3321 C118.0632,93.3321 115.4712,95.9261 115.4712,99.1231 C115.4712,102.3201 118.0632,104.9121 121.2612,104.9121" id="Fill-189"></path>
                        <path d="M109.6815,104.9121 C112.8795,104.9121 115.4715,102.3201 115.4715,99.1231 C115.4715,95.9261 112.8795,93.3321 109.6815,93.3321 C106.4835,93.3321 103.8915,95.9261 103.8915,99.1231 C103.8915,102.3201 106.4835,104.9121 109.6815,104.9121" id="Fill-191"></path>
                        <path d="M86.522,104.9121 C89.72,104.9121 92.312,102.3201 92.312,99.1231 C92.312,95.9261 89.72,93.3321 86.522,93.3321 C83.324,93.3321 80.732,95.9261 80.732,99.1231 C80.732,102.3201 83.324,104.9121 86.522,104.9121" id="Fill-193"></path>
                        <path d="M98.1018,104.9121 C101.2998,104.9121 103.8918,102.3201 103.8918,99.1231 C103.8918,95.9261 101.2998,93.3321 98.1018,93.3321 C94.9038,93.3321 92.3118,95.9261 92.3118,99.1231 C92.3118,102.3201 94.9038,104.9121 98.1018,104.9121" id="Fill-195"></path>
                        <path d="M98.1018,93.332 C101.2998,93.332 103.8918,90.74 103.8918,87.543 C103.8918,84.346 101.2998,81.752 98.1018,81.752 C94.9038,81.752 92.3118,84.346 92.3118,87.543 C92.3118,90.74 94.9038,93.332 98.1018,93.332" id="Fill-197"></path>
                        <path d="M132.8409,116.4922 C136.0389,116.4922 138.6309,113.9002 138.6309,110.7032 C138.6309,107.5062 136.0389,104.9122 132.8409,104.9122 C129.6429,104.9122 127.0509,107.5062 127.0509,110.7032 C127.0509,113.9002 129.6429,116.4922 132.8409,116.4922" id="Fill-199"></path>
                        <path d="M109.6815,116.4922 C112.8795,116.4922 115.4715,113.9002 115.4715,110.7032 C115.4715,107.5062 112.8795,104.9122 109.6815,104.9122 C106.4835,104.9122 103.8915,107.5062 103.8915,110.7032 C103.8915,113.9002 106.4835,116.4922 109.6815,116.4922" id="Fill-201"></path>
                        <path d="M74.9423,116.4922 C78.1403,116.4922 80.7323,113.9002 80.7323,110.7032 C80.7323,107.5062 78.1403,104.9122 74.9423,104.9122 C71.7443,104.9122 69.1523,107.5062 69.1523,110.7032 C69.1523,113.9002 71.7443,116.4922 74.9423,116.4922" id="Fill-203"></path>
                        <path d="M86.522,116.4922 C89.72,116.4922 92.312,113.9002 92.312,110.7032 C92.312,107.5062 89.72,104.9122 86.522,104.9122 C83.324,104.9122 80.732,107.5062 80.732,110.7032 C80.732,113.9002 83.324,116.4922 86.522,116.4922" id="Fill-205"></path>
                        <path d="M98.1018,116.4922 C101.2998,116.4922 103.8918,113.9002 103.8918,110.7032 C103.8918,107.5062 101.2998,104.9122 98.1018,104.9122 C94.9038,104.9122 92.3118,107.5062 92.3118,110.7032 C92.3118,113.9002 94.9038,116.4922 98.1018,116.4922" id="Fill-207"></path>
                        <path d="M121.2612,128.0723 C124.4592,128.0723 127.0512,125.4803 127.0512,122.2833 C127.0512,119.0863 124.4592,116.4923 121.2612,116.4923 C118.0632,116.4923 115.4712,119.0863 115.4712,122.2833 C115.4712,125.4803 118.0632,128.0723 121.2612,128.0723" id="Fill-209"></path>
                        <path d="M109.6815,128.0723 C112.8795,128.0723 115.4715,125.4803 115.4715,122.2833 C115.4715,119.0863 112.8795,116.4923 109.6815,116.4923 C106.4835,116.4923 103.8915,119.0863 103.8915,122.2833 C103.8915,125.4803 106.4835,128.0723 109.6815,128.0723" id="Fill-211"></path>
                        <path d="M74.9423,128.0723 C78.1403,128.0723 80.7323,125.4803 80.7323,122.2833 C80.7323,119.0863 78.1403,116.4923 74.9423,116.4923 C71.7443,116.4923 69.1523,119.0863 69.1523,122.2833 C69.1523,125.4803 71.7443,128.0723 74.9423,128.0723" id="Fill-213"></path>
                        <path d="M98.1018,128.0723 C101.2998,128.0723 103.8918,125.4803 103.8918,122.2833 C103.8918,119.0863 101.2998,116.4923 98.1018,116.4923 C94.9038,116.4923 92.3118,119.0863 92.3118,122.2833 C92.3118,125.4803 94.9038,128.0723 98.1018,128.0723" id="Fill-215"></path>
                        <path d="M63.3626,139.6523 C66.5606,139.6523 69.1526,137.0603 69.1526,133.8633 C69.1526,130.6663 66.5606,128.0723 63.3626,128.0723 C60.1646,128.0723 57.5726,130.6663 57.5726,133.8633 C57.5726,137.0603 60.1646,139.6523 63.3626,139.6523" id="Fill-217"></path>
                        <path d="M121.2612,139.6523 C124.4592,139.6523 127.0512,137.0603 127.0512,133.8633 C127.0512,130.6663 124.4592,128.0723 121.2612,128.0723 C118.0632,128.0723 115.4712,130.6663 115.4712,133.8633 C115.4712,137.0603 118.0632,139.6523 121.2612,139.6523" id="Fill-219"></path>
                        <path d="M109.6815,139.6523 C112.8795,139.6523 115.4715,137.0603 115.4715,133.8633 C115.4715,130.6663 112.8795,128.0723 109.6815,128.0723 C106.4835,128.0723 103.8915,130.6663 103.8915,133.8633 C103.8915,137.0603 106.4835,139.6523 109.6815,139.6523" id="Fill-221"></path>
                        <path d="M74.9423,139.6523 C78.1403,139.6523 80.7323,137.0603 80.7323,133.8633 C80.7323,130.6663 78.1403,128.0723 74.9423,128.0723 C71.7443,128.0723 69.1523,130.6663 69.1523,133.8633 C69.1523,137.0603 71.7443,139.6523 74.9423,139.6523" id="Fill-223"></path>
                        <path d="M86.522,139.6523 C89.72,139.6523 92.312,137.0603 92.312,133.8633 C92.312,130.6663 89.72,128.0723 86.522,128.0723 C83.324,128.0723 80.732,130.6663 80.732,133.8633 C80.732,137.0603 83.324,139.6523 86.522,139.6523" id="Fill-225"></path>
                        <path d="M98.1018,139.6523 C101.2998,139.6523 103.8918,137.0603 103.8918,133.8633 C103.8918,130.6663 101.2998,128.0723 98.1018,128.0723 C94.9038,128.0723 92.3118,130.6663 92.3118,133.8633 C92.3118,137.0603 94.9038,139.6523 98.1018,139.6523" id="Fill-227"></path>
                        <path d="M63.3626,151.2305 C66.5606,151.2305 69.1526,148.6385 69.1526,145.4415 C69.1526,142.2445 66.5606,139.6505 63.3626,139.6505 C60.1646,139.6505 57.5726,142.2445 57.5726,145.4415 C57.5726,148.6385 60.1646,151.2305 63.3626,151.2305" id="Fill-229"></path>
                        <path d="M74.9423,151.2305 C78.1403,151.2305 80.7323,148.6385 80.7323,145.4415 C80.7323,142.2445 78.1403,139.6505 74.9423,139.6505 C71.7443,139.6505 69.1523,142.2445 69.1523,145.4415 C69.1523,148.6385 71.7443,151.2305 74.9423,151.2305" id="Fill-231"></path>
                        <path d="M74.9423,162.8105 C78.1403,162.8105 80.7323,160.2185 80.7323,157.0215 C80.7323,153.8245 78.1403,151.2305 74.9423,151.2305 C71.7443,151.2305 69.1523,153.8245 69.1523,157.0215 C69.1523,160.2185 71.7443,162.8105 74.9423,162.8105" id="Fill-233"></path>
                        <path d="M109.6815,151.2305 C112.8795,151.2305 115.4715,148.6385 115.4715,145.4415 C115.4715,142.2445 112.8795,139.6505 109.6815,139.6505 C106.4835,139.6505 103.8915,142.2445 103.8915,145.4415 C103.8915,148.6385 106.4835,151.2305 109.6815,151.2305" id="Fill-235"></path>
                        <path d="M86.522,151.2305 C89.72,151.2305 92.312,148.6385 92.312,145.4415 C92.312,142.2445 89.72,139.6505 86.522,139.6505 C83.324,139.6505 80.732,142.2445 80.732,145.4415 C80.732,148.6385 83.324,151.2305 86.522,151.2305" id="Fill-237"></path>
                        <path d="M63.3626,162.8105 C66.5606,162.8105 69.1526,160.2185 69.1526,157.0215 C69.1526,153.8245 66.5606,151.2305 63.3626,151.2305 C60.1646,151.2305 57.5726,153.8245 57.5726,157.0215 C57.5726,160.2185 60.1646,162.8105 63.3626,162.8105" id="Fill-239"></path>
                        <path d="M98.1018,162.8105 C101.2998,162.8105 103.8918,160.2185 103.8918,157.0215 C103.8918,153.8245 101.2998,151.2305 98.1018,151.2305 C94.9038,151.2305 92.3118,153.8245 92.3118,157.0215 C92.3118,160.2185 94.9038,162.8105 98.1018,162.8105" id="Fill-241"></path>
                        <path d="M109.6815,162.8105 C112.8795,162.8105 115.4715,160.2185 115.4715,157.0215 C115.4715,153.8245 112.8795,151.2305 109.6815,151.2305 C106.4835,151.2305 103.8915,153.8245 103.8915,157.0215 C103.8915,160.2185 106.4835,162.8105 109.6815,162.8105" id="Fill-243"></path>
                        <path d="M52.4029,162.8105 C55.6009,162.8105 58.1929,160.2185 58.1929,157.0215 C58.1929,153.8245 55.6009,151.2305 52.4029,151.2305 C49.2049,151.2305 46.6129,153.8245 46.6129,157.0215 C46.6129,160.2185 49.2049,162.8105 52.4029,162.8105" id="Fill-245"></path>
                        <path d="M74.9423,174.3906 C78.1403,174.3906 80.7323,171.7986 80.7323,168.6016 C80.7323,165.4046 78.1403,162.8106 74.9423,162.8106 C71.7443,162.8106 69.1523,165.4046 69.1523,168.6016 C69.1523,171.7986 71.7443,174.3906 74.9423,174.3906" id="Fill-247"></path>
                        <path d="M86.522,174.3906 C89.72,174.3906 92.312,171.7986 92.312,168.6016 C92.312,165.4046 89.72,162.8106 86.522,162.8106 C83.324,162.8106 80.732,165.4046 80.732,168.6016 C80.732,171.7986 83.324,174.3906 86.522,174.3906" id="Fill-249"></path>
                        <path d="M98.1018,174.3906 C101.2998,174.3906 103.8918,171.7986 103.8918,168.6016 C103.8918,165.4046 101.2998,162.8106 98.1018,162.8106 C94.9038,162.8106 92.3118,165.4046 92.3118,168.6016 C92.3118,171.7986 94.9038,174.3906 98.1018,174.3906" id="Fill-251"></path>
                        <path d="M52.4029,174.3906 C55.6009,174.3906 58.1929,171.7986 58.1929,168.6016 C58.1929,165.4046 55.6009,162.8106 52.4029,162.8106 C49.2049,162.8106 46.6129,165.4046 46.6129,168.6016 C46.6129,171.7986 49.2049,174.3906 52.4029,174.3906" id="Fill-253"></path>
                        <path d="M74.9423,185.9707 C78.1403,185.9707 80.7323,183.3787 80.7323,180.1817 C80.7323,176.9847 78.1403,174.3907 74.9423,174.3907 C71.7443,174.3907 69.1523,176.9847 69.1523,180.1817 C69.1523,183.3787 71.7443,185.9707 74.9423,185.9707" id="Fill-255"></path>
                        <path d="M63.3626,185.9707 C66.5606,185.9707 69.1526,183.3787 69.1526,180.1817 C69.1526,176.9847 66.5606,174.3907 63.3626,174.3907 C60.1646,174.3907 57.5726,176.9847 57.5726,180.1817 C57.5726,183.3787 60.1646,185.9707 63.3626,185.9707" id="Fill-257"></path>
                        <path d="M98.1018,185.9707 C101.2998,185.9707 103.8918,183.3787 103.8918,180.1817 C103.8918,176.9847 101.2998,174.3907 98.1018,174.3907 C94.9038,174.3907 92.3118,176.9847 92.3118,180.1817 C92.3118,183.3787 94.9038,185.9707 98.1018,185.9707" id="Fill-259"></path>
                        <path d="M63.3626,197.5508 C66.5606,197.5508 69.1526,194.9588 69.1526,191.7618 C69.1526,188.5648 66.5606,185.9708 63.3626,185.9708 C60.1646,185.9708 57.5726,188.5648 57.5726,191.7618 C57.5726,194.9588 60.1646,197.5508 63.3626,197.5508" id="Fill-261"></path>
                        <path d="M74.9423,197.5508 C78.1403,197.5508 80.7323,194.9588 80.7323,191.7618 C80.7323,188.5648 78.1403,185.9708 74.9423,185.9708 C71.7443,185.9708 69.1523,188.5648 69.1523,191.7618 C69.1523,194.9588 71.7443,197.5508 74.9423,197.5508" id="Fill-263"></path>
                        <path d="M86.522,197.5508 C89.72,197.5508 92.312,194.9588 92.312,191.7618 C92.312,188.5648 89.72,185.9708 86.522,185.9708 C83.324,185.9708 80.732,188.5648 80.732,191.7618 C80.732,194.9588 83.324,197.5508 86.522,197.5508" id="Fill-265"></path>
                        <path d="M98.1018,197.5508 C101.2998,197.5508 103.8918,194.9588 103.8918,191.7618 C103.8918,188.5648 101.2998,185.9708 98.1018,185.9708 C94.9038,185.9708 92.3118,188.5648 92.3118,191.7618 C92.3118,194.9588 94.9038,197.5508 98.1018,197.5508" id="Fill-267"></path>
                        <path d="M52.4029,197.5508 C55.6009,197.5508 58.1929,194.9588 58.1929,191.7618 C58.1929,188.5648 55.6009,185.9708 52.4029,185.9708 C49.2049,185.9708 46.6129,188.5648 46.6129,191.7618 C46.6129,194.9588 49.2049,197.5508 52.4029,197.5508" id="Fill-269"></path>
                        <path d="M86.522,209.1309 C89.72,209.1309 92.312,206.5389 92.312,203.3419 C92.312,200.1449 89.72,197.5509 86.522,197.5509 C83.324,197.5509 80.732,200.1449 80.732,203.3419 C80.732,206.5389 83.324,209.1309 86.522,209.1309" id="Fill-271"></path>
                        <path d="M74.9423,209.1309 C78.1403,209.1309 80.7323,206.5389 80.7323,203.3419 C80.7323,200.1449 78.1403,197.5509 74.9423,197.5509 C71.7443,197.5509 69.1523,200.1449 69.1523,203.3419 C69.1523,206.5389 71.7443,209.1309 74.9423,209.1309" id="Fill-273"></path>
                        <path d="M98.1018,209.1309 C101.2998,209.1309 103.8918,206.5389 103.8918,203.3419 C103.8918,200.1449 101.2998,197.5509 98.1018,197.5509 C94.9038,197.5509 92.3118,200.1449 92.3118,203.3419 C92.3118,206.5389 94.9038,209.1309 98.1018,209.1309" id="Fill-275"></path>
                        <path d="M52.4029,209.1309 C55.6009,209.1309 58.1929,206.5389 58.1929,203.3419 C58.1929,200.1449 55.6009,197.5509 52.4029,197.5509 C49.2049,197.5509 46.6129,200.1449 46.6129,203.3419 C46.6129,206.5389 49.2049,209.1309 52.4029,209.1309" id="Fill-277"></path>
                        <path d="M63.3626,220.1836 C66.5606,220.1836 69.1526,217.5916 69.1526,214.3946 C69.1526,211.1976 66.5606,208.6036 63.3626,208.6036 C60.1646,208.6036 57.5726,211.1976 57.5726,214.3946 C57.5726,217.5916 60.1646,220.1836 63.3626,220.1836" id="Fill-279"></path>
                        <path d="M74.9423,220.1836 C78.1403,220.1836 80.7323,217.5916 80.7323,214.3946 C80.7323,211.1976 78.1403,208.6036 74.9423,208.6036 C71.7443,208.6036 69.1523,211.1976 69.1523,214.3946 C69.1523,217.5916 71.7443,220.1836 74.9423,220.1836" id="Fill-281"></path>
                        <path d="M86.522,220.1836 C89.72,220.1836 92.312,217.5916 92.312,214.3946 C92.312,211.1976 89.72,208.6036 86.522,208.6036 C83.324,208.6036 80.732,211.1976 80.732,214.3946 C80.732,217.5916 83.324,220.1836 86.522,220.1836" id="Fill-283"></path>
                        <path d="M86.522,231.5918 C89.72,231.5918 92.312,228.9998 92.312,225.8028 C92.312,222.6058 89.72,220.0118 86.522,220.0118 C83.324,220.0118 80.732,222.6058 80.732,225.8028 C80.732,228.9998 83.324,231.5918 86.522,231.5918" id="Fill-285"></path>
                        <path d="M74.9423,231.5918 C78.1403,231.5918 80.7323,228.9998 80.7323,225.8028 C80.7323,222.6058 78.1403,220.0118 74.9423,220.0118 C71.7443,220.0118 69.1523,222.6058 69.1523,225.8028 C69.1523,228.9998 71.7443,231.5918 74.9423,231.5918" id="Fill-287"></path>
                        <path d="M98.1018,231.5918 C101.2998,231.5918 103.8918,228.9998 103.8918,225.8028 C103.8918,222.6058 101.2998,220.0118 98.1018,220.0118 C94.9038,220.0118 92.3118,222.6058 92.3118,225.8028 C92.3118,228.9998 94.9038,231.5918 98.1018,231.5918" id="Fill-289"></path>
                        <path d="M52.4029,231.5918 C55.6009,231.5918 58.1929,228.9998 58.1929,225.8028 C58.1929,222.6058 55.6009,220.0118 52.4029,220.0118 C49.2049,220.0118 46.6129,222.6058 46.6129,225.8028 C46.6129,228.9998 49.2049,231.5918 52.4029,231.5918" id="Fill-291"></path>
                        <path d="M63.3626,243 C66.5606,243 69.1526,240.408 69.1526,237.211 C69.1526,234.014 66.5606,231.42 63.3626,231.42 C60.1646,231.42 57.5726,234.014 57.5726,237.211 C57.5726,240.408 60.1646,243 63.3626,243" id="Fill-293"></path>
                        <path d="M74.9423,243 C78.1403,243 80.7323,240.408 80.7323,237.211 C80.7323,234.014 78.1403,231.42 74.9423,231.42 C71.7443,231.42 69.1523,234.014 69.1523,237.211 C69.1523,240.408 71.7443,243 74.9423,243" id="Fill-295"></path>
                        <path d="M86.522,243 C89.72,243 92.312,240.408 92.312,237.211 C92.312,234.014 89.72,231.42 86.522,231.42 C83.324,231.42 80.732,234.014 80.732,237.211 C80.732,240.408 83.324,243 86.522,243" id="Fill-297"></path>
                        <path d="M98.1018,243 C101.2998,243 103.8918,240.408 103.8918,237.211 C103.8918,234.014 101.2998,231.42 98.1018,231.42 C94.9038,231.42 92.3118,234.014 92.3118,237.211 C92.3118,240.408 94.9038,243 98.1018,243" id="Fill-299"></path>
                        <path d="M52.4029,243 C55.6009,243 58.1929,240.408 58.1929,237.211 C58.1929,234.014 55.6009,231.42 52.4029,231.42 C49.2049,231.42 46.6129,234.014 46.6129,237.211 C46.6129,240.408 49.2049,243 52.4029,243" id="Fill-301"></path>
                    </g>
                </g>
            </g>
        </g>
    </g>
</svg>
