<?xml version="1.0" encoding="UTF-8"?>
<svg width="12px" height="12px" viewBox="0 0 12 12" version="1.1" xmlns="http://www.w3.org/2000/svg" xmlns:xlink="http://www.w3.org/1999/xlink">
    <!-- Generator: Sketch 49.3 (51167) - http://www.bohemiancoding.com/sketch -->
    <title>Group 3182</title>
    <desc>Created with Sketch.</desc>
    <defs></defs>
    <g id="Page-6" stroke="none" stroke-width="1" fill="none" fill-rule="evenodd">
        <g id="bs_microsite_IA17_1215px" transform="translate(-494.000000, -636.000000)">
            <g id="Group-3182" transform="translate(494.000000, 636.500000)">
                <g id="App">
                    <path d="M11.3708,10.1596 L11.3708,1.2946 C11.3708,0.8176 10.9718,0.4106 10.4878,0.4106 L1.6538,0.4106 C1.2518,0.4106 0.7708,0.7716 0.7708,1.2946 L0.7708,10.1596 C0.7708,10.6366 1.1698,11.0426 1.6538,11.0426 L10.4878,11.0426 C10.8898,11.0426 11.3708,10.6826 11.3708,10.1596" id="Fill-3178" fill="#000000"></path>
                    <path d="M4.0116,3.839 L3.3006,3.839 L2.4606,6.46 L2.9996,6.46 L3.1636,5.921 L4.0116,5.921 L4.1716,6.46 L4.8326,6.46 L4.0116,3.839 Z M3.3126,5.44 L3.5916,4.519 L3.8706,5.44 L3.3126,5.44 Z M5.6436,5.371 C5.6436,5.256 5.6436,5.138 5.7006,5.035 C5.7506,4.939 5.8416,4.878 5.9526,4.878 C6.2356,4.878 6.2516,5.279 6.2516,5.478 C6.2516,5.677 6.2396,6.101 5.9486,6.101 C5.8496,6.101 5.7506,6.04 5.6966,5.956 C5.6316,5.849 5.6436,5.685 5.6436,5.562 L5.6436,5.371 Z M5.0816,4.519 L5.0816,7.113 L5.6436,7.113 L5.6436,6.246 L5.6506,6.246 C5.7306,6.418 5.9066,6.498 6.0986,6.498 C6.6636,6.498 6.8396,5.971 6.8396,5.493 C6.8396,5.256 6.8166,5.023 6.6936,4.817 C6.5646,4.596 6.3806,4.481 6.1216,4.481 C5.8726,4.481 5.7196,4.592 5.6166,4.805 L5.6086,4.805 L5.6086,4.519 L5.0816,4.519 Z M7.6836,5.371 C7.6836,5.256 7.6836,5.138 7.7406,5.035 C7.7906,4.939 7.8826,4.878 7.9936,4.878 C8.2766,4.878 8.2916,5.279 8.2916,5.478 C8.2916,5.677 8.2806,6.101 7.9896,6.101 C7.8906,6.101 7.7906,6.04 7.7376,5.956 C7.6726,5.849 7.6836,5.685 7.6836,5.562 L7.6836,5.371 Z M7.1226,4.519 L7.1226,7.113 L7.6836,7.113 L7.6836,6.246 L7.6916,6.246 C7.7716,6.418 7.9476,6.498 8.1386,6.498 C8.7046,6.498 8.8796,5.971 8.8796,5.493 C8.8796,5.256 8.8566,5.023 8.7346,4.817 C8.6046,4.596 8.4216,4.481 8.1616,4.481 C7.9136,4.481 7.7606,4.592 7.6566,4.805 L7.6496,4.805 L7.6496,4.519 L7.1226,4.519 Z" id="Fill-3180" fill="#FFFFFF"></path>
                </g>
            </g>
        </g>
    </g>
</svg>