<?xml version="1.0" encoding="UTF-8"?>
<svg width="170px" height="34px" viewBox="0 0 170 34" version="1.1" xmlns="http://www.w3.org/2000/svg" xmlns:xlink="http://www.w3.org/1999/xlink">
  <title>Banc Sabadell</title>
  <defs></defs>
  <g id="Page-2" stroke="none" stroke-width="1" fill="none" fill-rule="evenodd">
    <g id="bs_microsite_IA17_1215px" transform="translate(0.000000, -1.000000)" fill="#006DFF">
      <g id="Group-303" transform="translate(0.000000, 0.500000)">
        <path d="M22.4511,11.9225 C22.4511,5.8605 17.5371,0.9465 11.4751,0.9465 C5.4141,0.9465 0.5001,5.8605 0.5001,11.9225 C0.5001,17.9845 5.4141,22.8985 11.4751,22.8985 C17.5371,22.8985 22.4511,17.9845 22.4511,11.9225 M13.9521,11.6765 L13.9521,11.7085 C15.3121,11.9805 16.2401,13.0205 16.2401,14.4445 C16.2401,15.4045 15.6641,16.2525 14.8961,16.8125 C14.0961,17.4045 13.0241,17.4045 12.0801,17.4045 L7.1681,17.4045 L7.1681,6.4295 L12.0801,6.4295 C12.9441,6.4295 13.8401,6.4295 14.5921,6.9095 C15.4721,7.4685 15.9361,8.2685 15.9361,9.3085 C15.9361,10.5565 15.1041,11.3885 13.9521,11.6765 M12.9601,15.1325 C13.3281,14.8925 13.5361,14.4445 13.5361,13.9965 C13.5361,13.5805 13.2801,13.1485 12.9121,12.9405 C12.5441,12.7325 12.0321,12.7325 11.6161,12.7325 L9.7281,12.7325 L9.7281,15.3725 L11.5041,15.3725 C11.9681,15.3725 12.5601,15.4045 12.9601,15.1325 M12.8321,10.5245 C13.1361,10.3005 13.2961,9.9005 13.2961,9.5325 C13.2961,9.1325 13.1041,8.7485 12.7521,8.5405 C12.3841,8.3325 11.7121,8.3805 11.2801,8.3805 L9.7281,8.3805 L9.7281,10.7805 L11.4721,10.7805 C11.9201,10.7805 12.4481,10.8125 12.8321,10.5245" id="Fill-299"></path>
        <path d="M46.1655,12.5187 C44.4715,7.7187 40.5185,6.0247 35.6795,6.0247 C33.1385,6.0247 30.7585,6.5897 28.7415,8.2837 C26.7655,9.9377 25.7575,12.1957 25.7575,14.7777 C25.7575,20.8277 30.5975,22.2787 35.5175,23.2877 C37.2115,23.6507 40.3575,24.0937 40.3575,26.3927 C40.3575,28.6917 37.8975,29.3777 36.0425,29.3777 C33.1785,29.3777 31.0815,28.3697 30.2745,25.4657 L24.3055,26.8367 C25.5555,32.2417 30.2745,34.4997 35.4775,34.4997 C38.2605,34.4997 41.2855,33.9757 43.5035,32.2417 C45.6415,30.5877 46.9315,28.0067 46.9315,25.3037 C46.9315,22.5617 45.5605,20.2627 43.3015,18.7707 C41.3655,17.4797 38.3405,16.9147 36.0825,16.4307 C34.5095,16.1487 32.0895,15.6647 32.0895,13.6477 C32.0895,11.5107 34.1865,11.0667 35.9215,11.0667 C38.3815,11.0667 39.8735,11.9947 40.6805,14.3337 L46.1655,12.5187 Z M67.5415,34.0967 C67.2185,33.0887 67.1385,32.0797 67.1385,31.0317 L67.1385,21.4727 C67.1385,19.0127 67.3395,16.7537 65.2425,15.0597 C63.5885,13.6887 60.8465,13.2047 58.7485,13.2047 C54.4335,13.2047 49.5935,14.6567 48.9885,19.6177 L54.5945,20.1417 C54.5945,18.1247 56.2485,17.1567 58.1435,17.1567 C59.0315,17.1567 60.0395,17.4397 60.5635,18.1247 C61.1685,18.8917 61.0885,19.9397 61.0885,20.8277 L61.0885,21.3117 C58.5875,21.5527 55.3205,21.7147 52.9815,22.6017 C50.2795,23.6097 48.3835,25.6667 48.3835,28.6917 C48.3835,32.5637 51.2065,34.4997 54.8365,34.4997 C57.9015,34.4997 59.6765,33.3307 61.3705,30.9107 C61.3305,31.9587 61.4105,33.0477 61.6525,34.0967 L67.5415,34.0967 Z M61.0885,25.1027 C61.0885,26.5547 61.1285,27.7647 60.2815,29.0547 C59.5955,30.1037 58.5065,30.7487 57.2965,30.7487 C55.6435,30.7487 54.6755,29.6597 54.6755,28.0467 C54.6755,25.0617 58.8295,24.5377 61.0885,24.2957 L61.0885,25.1027 Z M76.4145,22.5617 C76.4145,20.3837 76.8175,17.2777 79.6815,17.2777 C82.9485,17.2777 82.9485,21.5527 82.9485,23.8517 C82.9485,26.0707 82.9485,30.3457 79.6005,30.3457 C78.5115,30.3457 77.6645,29.8217 77.0995,28.9337 C76.4545,27.9257 76.4145,26.6347 76.4145,25.5057 L76.4145,22.5617 Z M70.4045,34.0967 L73.6315,34.0967 C73.9945,33.0077 74.2365,31.8377 74.9625,30.9507 C76.4545,33.4107 77.8665,34.4997 80.8105,34.4997 C86.9815,34.4997 89.1195,29.2167 89.1195,23.8517 C89.1195,19.0127 87.3445,13.2047 81.4965,13.2047 C79.1975,13.2047 77.5035,14.1727 76.4945,16.1887 L76.3335,16.1887 L76.3335,6.4287 L70.4045,6.4287 L70.4045,34.0967 Z M109.4865,34.0967 C109.1645,33.0887 109.0835,32.0797 109.0835,31.0317 L109.0835,21.4727 C109.0835,19.0127 109.2855,16.7537 107.1875,15.0597 C105.5345,13.6887 102.7915,13.2047 100.6945,13.2047 C96.3785,13.2047 91.5385,14.6567 90.9335,19.6177 L96.5395,20.1417 C96.5395,18.1247 98.1935,17.1567 100.0895,17.1567 C100.9765,17.1567 101.9845,17.4397 102.5095,18.1247 C103.1145,18.8917 103.0335,19.9397 103.0335,20.8277 L103.0335,21.3117 C100.5325,21.5527 97.2655,21.7147 94.9265,22.6017 C92.2245,23.6097 90.3285,25.6667 90.3285,28.6917 C90.3285,32.5637 93.1515,34.4997 96.7815,34.4997 C99.8475,34.4997 101.6215,33.3307 103.3155,30.9107 C103.2755,31.9587 103.3565,33.0477 103.5985,34.0967 L109.4865,34.0967 Z M103.0335,25.1027 C103.0335,26.5547 103.0735,27.7647 102.2265,29.0547 C101.5415,30.1037 100.4525,30.7487 99.2425,30.7487 C97.5885,30.7487 96.6205,29.6597 96.6205,28.0467 C96.6205,25.0617 100.7745,24.5377 103.0335,24.2957 L103.0335,25.1027 Z M129.8545,34.0967 L129.8545,6.4287 L123.9255,6.4287 L123.9255,15.7857 C122.6345,13.8897 121.1025,13.2047 118.8035,13.2047 C112.8345,13.2047 111.3015,19.2137 111.3015,24.0937 C111.3015,28.8537 112.9145,34.4997 118.6825,34.4997 C121.3035,34.4997 122.9975,33.0887 124.1275,30.9107 L124.2075,30.9107 L124.2075,34.0967 L129.8545,34.0967 Z M123.9255,25.5457 C123.9255,26.5547 123.8855,27.6437 123.4015,28.5707 C122.9175,29.4987 121.9085,30.2247 120.8195,30.2247 C117.8755,30.2247 117.5525,26.4737 117.5525,24.2557 C117.5525,21.7947 117.6735,17.3587 121.0615,17.3587 C123.7645,17.3587 123.9255,20.7467 123.9255,22.7227 L123.9255,25.5457 Z M151.6335,24.8607 C151.6735,22.0777 151.2305,19.1737 149.5365,16.8347 C147.8425,14.4947 144.8985,13.2047 142.0345,13.2047 C135.6615,13.2047 132.0725,18.0847 132.0725,24.1347 C132.0725,30.2247 136.0655,34.4997 142.1955,34.4997 C149.1335,34.4997 151.5125,28.4497 151.5125,27.4417 L146.0275,27.0387 C146.0275,28.9337 144.2125,30.2647 142.3975,30.2647 C139.8165,30.2647 138.4445,28.2887 138.4445,25.8687 L138.4855,24.8607 L151.6335,24.8607 Z M138.4445,21.3517 C138.6465,19.0127 139.6545,17.0767 142.2765,17.0767 C144.8575,17.0767 145.5835,19.1337 145.7045,21.3517 L138.4445,21.3517 Z M154.2545,34.0967 L160.1835,34.0967 L160.1835,6.4287 L154.2545,6.4287 L154.2545,34.0967 Z M163.1275,34.0967 L169.0565,34.0967 L169.0565,6.4287 L163.1275,6.4287 L163.1275,34.0967 Z" id="Fill-301"></path>
      </g>
    </g>
  </g>
</svg>
