<?xml version="1.0" encoding="UTF-8"?>
<svg width="169px" height="35px" viewBox="0 0 169 35" version="1.1" xmlns="http://www.w3.org/2000/svg" xmlns:xlink="http://www.w3.org/1999/xlink">
    <!-- Generator: Sketch 49.3 (51167) - http://www.bohemiancoding.com/sketch -->
    <title>Group 6</title>
    <desc>Created with Sketch.</desc>
    <defs></defs>
    <g id="Page-1" stroke="none" stroke-width="1" fill="none" fill-rule="evenodd">
        <g id="bs_microsite_IA17_1215px" transform="translate(-37.000000, -12.000000)" fill="#FFFFFF">
            <g id="Group-6" transform="translate(37.000000, 12.000000)">
                <path d="M21.9511,11.9025 C21.9511,5.8405 17.0371,0.9265 10.9751,0.9265 C4.9141,0.9265 0.0001,5.8405 0.0001,11.9025 C0.0001,17.9645 4.9141,22.8785 10.9751,22.8785 C17.0371,22.8785 21.9511,17.9645 21.9511,11.9025 M13.4521,11.6565 L13.4521,11.6885 C14.8121,11.9605 15.7401,13.0005 15.7401,14.4245 C15.7401,15.3845 15.1641,16.2325 14.3961,16.7925 C13.5961,17.3845 12.5241,17.3845 11.5801,17.3845 L6.6681,17.3845 L6.6681,6.4095 L11.5801,6.4095 C12.4441,6.4095 13.3401,6.4095 14.0921,6.8895 C14.9721,7.4485 15.4361,8.2485 15.4361,9.2885 C15.4361,10.5365 14.6041,11.3685 13.4521,11.6565 M12.4601,15.1125 C12.8281,14.8725 13.0361,14.4245 13.0361,13.9765 C13.0361,13.5605 12.7801,13.1285 12.4121,12.9205 C12.0441,12.7125 11.5321,12.7125 11.1161,12.7125 L9.2281,12.7125 L9.2281,15.3525 L11.0041,15.3525 C11.4681,15.3525 12.0601,15.3845 12.4601,15.1125 M12.3321,10.5045 C12.6361,10.2805 12.7961,9.8805 12.7961,9.5125 C12.7961,9.1125 12.6041,8.7285 12.2521,8.5205 C11.8841,8.3125 11.2121,8.3605 10.7801,8.3605 L9.2281,8.3605 L9.2281,10.7605 L10.9721,10.7605 C11.4201,10.7605 11.9481,10.7925 12.3321,10.5045" id="Fill-2"></path>
                <path d="M45.6655,12.4987 C43.9715,7.6987 40.0185,6.0047 35.1795,6.0047 C32.6385,6.0047 30.2585,6.5697 28.2415,8.2637 C26.2655,9.9177 25.2575,12.1757 25.2575,14.7577 C25.2575,20.8077 30.0975,22.2587 35.0175,23.2677 C36.7115,23.6307 39.8575,24.0737 39.8575,26.3727 C39.8575,28.6717 37.3975,29.3577 35.5425,29.3577 C32.6785,29.3577 30.5815,28.3497 29.7745,25.4457 L23.8055,26.8167 C25.0555,32.2217 29.7745,34.4797 34.9775,34.4797 C37.7605,34.4797 40.7855,33.9557 43.0035,32.2217 C45.1415,30.5677 46.4315,27.9867 46.4315,25.2837 C46.4315,22.5417 45.0605,20.2427 42.8015,18.7507 C40.8655,17.4597 37.8405,16.8947 35.5825,16.4107 C34.0095,16.1287 31.5895,15.6447 31.5895,13.6277 C31.5895,11.4907 33.6865,11.0467 35.4215,11.0467 C37.8815,11.0467 39.3735,11.9747 40.1805,14.3137 L45.6655,12.4987 Z M67.0415,34.0767 C66.7185,33.0687 66.6385,32.0597 66.6385,31.0117 L66.6385,21.4527 C66.6385,18.9927 66.8395,16.7337 64.7425,15.0397 C63.0885,13.6687 60.3465,13.1847 58.2485,13.1847 C53.9335,13.1847 49.0935,14.6367 48.4885,19.5977 L54.0945,20.1217 C54.0945,18.1047 55.7485,17.1367 57.6435,17.1367 C58.5315,17.1367 59.5395,17.4197 60.0635,18.1047 C60.6685,18.8717 60.5885,19.9197 60.5885,20.8077 L60.5885,21.2917 C58.0875,21.5327 54.8205,21.6947 52.4815,22.5817 C49.7795,23.5897 47.8835,25.6467 47.8835,28.6717 C47.8835,32.5437 50.7065,34.4797 54.3365,34.4797 C57.4015,34.4797 59.1765,33.3107 60.8705,30.8907 C60.8305,31.9387 60.9105,33.0277 61.1525,34.0767 L67.0415,34.0767 Z M60.5885,25.0827 C60.5885,26.5347 60.6285,27.7447 59.7815,29.0347 C59.0955,30.0837 58.0065,30.7287 56.7965,30.7287 C55.1435,30.7287 54.1755,29.6397 54.1755,28.0267 C54.1755,25.0417 58.3295,24.5177 60.5885,24.2757 L60.5885,25.0827 Z M75.9145,22.5417 C75.9145,20.3637 76.3175,17.2577 79.1815,17.2577 C82.4485,17.2577 82.4485,21.5327 82.4485,23.8317 C82.4485,26.0507 82.4485,30.3257 79.1005,30.3257 C78.0115,30.3257 77.1645,29.8017 76.5995,28.9137 C75.9545,27.9057 75.9145,26.6147 75.9145,25.4857 L75.9145,22.5417 Z M69.9045,34.0767 L73.1315,34.0767 C73.4945,32.9877 73.7365,31.8177 74.4625,30.9307 C75.9545,33.3907 77.3665,34.4797 80.3105,34.4797 C86.4815,34.4797 88.6195,29.1967 88.6195,23.8317 C88.6195,18.9927 86.8445,13.1847 80.9965,13.1847 C78.6975,13.1847 77.0035,14.1527 75.9945,16.1687 L75.8335,16.1687 L75.8335,6.4087 L69.9045,6.4087 L69.9045,34.0767 Z M108.9865,34.0767 C108.6645,33.0687 108.5835,32.0597 108.5835,31.0117 L108.5835,21.4527 C108.5835,18.9927 108.7855,16.7337 106.6875,15.0397 C105.0345,13.6687 102.2915,13.1847 100.1945,13.1847 C95.8785,13.1847 91.0385,14.6367 90.4335,19.5977 L96.0395,20.1217 C96.0395,18.1047 97.6935,17.1367 99.5895,17.1367 C100.4765,17.1367 101.4845,17.4197 102.0095,18.1047 C102.6145,18.8717 102.5335,19.9197 102.5335,20.8077 L102.5335,21.2917 C100.0325,21.5327 96.7655,21.6947 94.4265,22.5817 C91.7245,23.5897 89.8285,25.6467 89.8285,28.6717 C89.8285,32.5437 92.6515,34.4797 96.2815,34.4797 C99.3475,34.4797 101.1215,33.3107 102.8155,30.8907 C102.7755,31.9387 102.8565,33.0277 103.0985,34.0767 L108.9865,34.0767 Z M102.5335,25.0827 C102.5335,26.5347 102.5735,27.7447 101.7265,29.0347 C101.0415,30.0837 99.9525,30.7287 98.7425,30.7287 C97.0885,30.7287 96.1205,29.6397 96.1205,28.0267 C96.1205,25.0417 100.2745,24.5177 102.5335,24.2757 L102.5335,25.0827 Z M129.3545,34.0767 L129.3545,6.4087 L123.4255,6.4087 L123.4255,15.7657 C122.1345,13.8697 120.6025,13.1847 118.3035,13.1847 C112.3345,13.1847 110.8015,19.1937 110.8015,24.0737 C110.8015,28.8337 112.4145,34.4797 118.1825,34.4797 C120.8035,34.4797 122.4975,33.0687 123.6275,30.8907 L123.7075,30.8907 L123.7075,34.0767 L129.3545,34.0767 Z M123.4255,25.5257 C123.4255,26.5347 123.3855,27.6237 122.9015,28.5507 C122.4175,29.4787 121.4085,30.2047 120.3195,30.2047 C117.3755,30.2047 117.0525,26.4537 117.0525,24.2357 C117.0525,21.7747 117.1735,17.3387 120.5615,17.3387 C123.2645,17.3387 123.4255,20.7267 123.4255,22.7027 L123.4255,25.5257 Z M151.1335,24.8407 C151.1735,22.0577 150.7305,19.1537 149.0365,16.8147 C147.3425,14.4747 144.3985,13.1847 141.5345,13.1847 C135.1615,13.1847 131.5725,18.0647 131.5725,24.1147 C131.5725,30.2047 135.5655,34.4797 141.6955,34.4797 C148.6335,34.4797 151.0125,28.4297 151.0125,27.4217 L145.5275,27.0187 C145.5275,28.9137 143.7125,30.2447 141.8975,30.2447 C139.3165,30.2447 137.9445,28.2687 137.9445,25.8487 L137.9855,24.8407 L151.1335,24.8407 Z M137.9445,21.3317 C138.1465,18.9927 139.1545,17.0567 141.7765,17.0567 C144.3575,17.0567 145.0835,19.1137 145.2045,21.3317 L137.9445,21.3317 Z M153.7545,34.0767 L159.6835,34.0767 L159.6835,6.4087 L153.7545,6.4087 L153.7545,34.0767 Z M162.6275,34.0767 L168.5565,34.0767 L168.5565,6.4087 L162.6275,6.4087 L162.6275,34.0767 Z" id="Fill-4"></path>
            </g>
        </g>
    </g>
</svg>