<?xml version="1.0" encoding="UTF-8"?>
<svg width="12px" height="10px" viewBox="0 0 12 10" version="1.1" xmlns="http://www.w3.org/2000/svg" xmlns:xlink="http://www.w3.org/1999/xlink">
    <!-- Generator: Sketch 49.3 (51167) - http://www.bohemiancoding.com/sketch -->
    <title>Fill 3176</title>
    <desc>Created with Sketch.</desc>
    <defs></defs>
    <g id="Page-6" stroke="none" stroke-width="1" fill="none" fill-rule="evenodd">
        <g id="bs_microsite_IA17_1215px" transform="translate(-494.000000, -620.000000)" fill="#000000">
            <path d="M505.5,621.8407 C505.105,622.0197 504.681,622.1407 504.235,622.1967 C504.691,621.9167 505.039,621.4757 505.204,620.9487 C504.778,621.2087 504.307,621.3947 503.805,621.4947 C503.404,621.0587 502.831,620.7837 502.199,620.7837 C500.983,620.7837 499.997,621.7927 499.997,623.0357 C499.997,623.2137 500.017,623.3857 500.055,623.5497 C498.225,623.4567 496.603,622.5597 495.518,621.1957 C495.328,621.5297 495.219,621.9167 495.219,622.3277 C495.219,623.1107 495.608,623.7997 496.199,624.2037 C495.837,624.1937 495.498,624.0917 495.202,623.9237 L495.202,623.9507 C495.202,625.0417 495.96,625.9527 496.967,626.1597 C496.783,626.2107 496.588,626.2397 496.388,626.2397 C496.245,626.2397 496.108,626.2247 495.973,626.1987 C496.253,627.0937 497.066,627.7447 498.029,627.7637 C497.276,628.3667 496.327,628.7267 495.296,628.7267 C495.118,628.7267 494.943,628.7167 494.771,628.6967 C495.745,629.3357 496.901,629.7087 498.144,629.7087 C502.194,629.7087 504.408,626.2757 504.408,623.2977 C504.408,623.2017 504.406,623.1037 504.401,623.0077 C504.832,622.6877 505.205,622.2937 505.5,621.8407" id="Fill-3176"></path>
        </g>
    </g>
</svg>